<svg xmlns="http://www.w3.org/2000/svg" viewBox="0 0 202.67 55.33"><defs><style>.cls-1{fill:#f1d31c;}.cls-2{fill:#171515;}.cls-3{fill:#fff;}.cls-4{fill:none;stroke:#171515;stroke-miterlimit:10;}</style></defs><title>register_button</title><g id="Layer_2" data-name="Layer 2"><g id="Layer_1-2" data-name="Layer 1"><path class="cls-1" d="M189,55.33H13.68A13.73,13.73,0,0,1,0,41.65v-28A13.73,13.73,0,0,1,13.68,0H189a13.73,13.73,0,0,1,13.69,13.68v28A13.73,13.73,0,0,1,189,55.33"/><path class="cls-2" d="M35.76,34.93a.47.47,0,0,1,0,.23.42.42,0,0,1-.14.3.45.45,0,0,1-.33.14h-4.9a.92.92,0,0,1-.91-.54l-1.9-4.28H25.8V35a.53.53,0,0,1-.17.41.55.55,0,0,1-.41.18H20.55A.6.6,0,0,1,20,35V21.06a.57.57,0,0,1,.17-.41.56.56,0,0,1,.41-.17H29a7.18,7.18,0,0,1,4.68,1.4,4.64,4.64,0,0,1,1.73,3.82A4.54,4.54,0,0,1,33.1,30Zm-10-10.44v2.29h2.7a.91.91,0,0,0,.74-.31,1.21,1.21,0,0,0,.26-.79,1.45,1.45,0,0,0-.25-.83.86.86,0,0,0-.75-.36Z"/><path class="cls-2" d="M43.92,31.38h8.62a.62.62,0,0,1,.59.59v3a.62.62,0,0,1-.59.59H38.89a.55.55,0,0,1-.41-.18.57.57,0,0,1-.17-.41V21.06a.57.57,0,0,1,.17-.41.54.54,0,0,1,.41-.17H52.33a.54.54,0,0,1,.41.17.57.57,0,0,1,.17.41v3a.61.61,0,0,1-.17.42.58.58,0,0,1-.41.17H43.92v1.36h7.22a.58.58,0,0,1,.58.58v2.81a.58.58,0,0,1-.17.41.54.54,0,0,1-.41.17H43.92Z"/><path class="cls-2" d="M65.42,26.29h6.26a.58.58,0,0,1,.58.58v2.29A5.57,5.57,0,0,1,70,34a10,10,0,0,1-5.91,1.59,10.2,10.2,0,0,1-5.91-1.55A5.42,5.42,0,0,1,56,29.28V26.79a6.24,6.24,0,0,1,.63-2.86,5.16,5.16,0,0,1,1.79-2,10.23,10.23,0,0,1,5.72-1.48,12.13,12.13,0,0,1,3.17.39A7.12,7.12,0,0,1,71,23a3.27,3.27,0,0,1,1.06,2,.43.43,0,0,1-.14.32.45.45,0,0,1-.33.14H66.73a.9.9,0,0,1-.62-.19,2.44,2.44,0,0,0-1.83-.68,3.25,3.25,0,0,0-1.81.43,1.27,1.27,0,0,0-.66,1.1v3.47A1.5,1.5,0,0,0,62.46,31a3.16,3.16,0,0,0,1.82.46,3.06,3.06,0,0,0,1.82-.47,1.43,1.43,0,0,0,.66-1.09H65.42a.57.57,0,0,1-.41-.17.55.55,0,0,1-.18-.41v-2.4a.54.54,0,0,1,.18-.41A.53.53,0,0,1,65.42,26.29Z"/><path class="cls-2" d="M89.11,24.9H85.2v6.27h3.91a.57.57,0,0,1,.41.17.54.54,0,0,1,.17.41V35a.53.53,0,0,1-.17.41.54.54,0,0,1-.41.18H75.42a.62.62,0,0,1-.59-.59V31.75a.55.55,0,0,1,.18-.41.57.57,0,0,1,.41-.17h4V24.9h-4a.53.53,0,0,1-.41-.17.54.54,0,0,1-.18-.41V21.06a.54.54,0,0,1,.18-.41.53.53,0,0,1,.41-.17H89.11a.58.58,0,0,1,.58.58v3.26a.58.58,0,0,1-.58.58Z"/><path class="cls-2" d="M106.86,27.58a3.69,3.69,0,0,1,1.5,3.22,4,4,0,0,1-2.18,3.48,11,11,0,0,1-5.79,1.34,10.12,10.12,0,0,1-5.61-1.32,3.84,3.84,0,0,1-2-3.24c0-.31.17-.47.5-.47h4.43a1,1,0,0,1,.73.26,3.11,3.11,0,0,0,2.1.56c1.37,0,2-.21,2-.61s-.22-.45-.65-.59a14.23,14.23,0,0,0-2.57-.43q-6.11-.71-6.11-4.53a4,4,0,0,1,2-3.47,9.31,9.31,0,0,1,5.26-1.33,9.08,9.08,0,0,1,5.33,1.43c1.35.95,2,1.95,2,3a.44.44,0,0,1-.14.34.53.53,0,0,1-.38.13h-4.64a1,1,0,0,1-.67-.25,2.4,2.4,0,0,0-1.56-.44c-1,0-1.45.19-1.45.58,0,.21.19.37.57.49a14.4,14.4,0,0,0,2.24.37A11.11,11.11,0,0,1,106.86,27.58Z"/><path class="cls-2" d="M111.53,20.48h14.91a.56.56,0,0,1,.41.17.57.57,0,0,1,.17.41v3.48a.58.58,0,0,1-.17.41.6.6,0,0,1-.41.17h-4.65V35a.57.57,0,0,1-.17.41.55.55,0,0,1-.41.18h-4.45a.54.54,0,0,1-.41-.18.53.53,0,0,1-.17-.41V25.12h-4.65a.58.58,0,0,1-.58-.58V21.06a.57.57,0,0,1,.17-.41A.54.54,0,0,1,111.53,20.48Z"/><path class="cls-2" d="M135.72,31.38h8.62a.62.62,0,0,1,.59.59v3a.62.62,0,0,1-.59.59H130.69a.55.55,0,0,1-.41-.18.57.57,0,0,1-.17-.41V21.06a.57.57,0,0,1,.17-.41.54.54,0,0,1,.41-.17h13.44a.54.54,0,0,1,.41.17.57.57,0,0,1,.17.41v3a.61.61,0,0,1-.17.42.58.58,0,0,1-.41.17h-8.41v1.36h7.22a.58.58,0,0,1,.58.58v2.81a.58.58,0,0,1-.17.41.54.54,0,0,1-.41.17h-7.22Z"/><path class="cls-2" d="M164.28,34.93a.47.47,0,0,1,0,.23.42.42,0,0,1-.14.3.45.45,0,0,1-.33.14h-4.91a.91.91,0,0,1-.9-.54l-1.9-4.28h-1.82V35a.57.57,0,0,1-.17.41.55.55,0,0,1-.41.18h-4.67a.55.55,0,0,1-.41-.18.57.57,0,0,1-.17-.41V21.06a.57.57,0,0,1,.17-.41.54.54,0,0,1,.41-.17h8.4a7.19,7.19,0,0,1,4.69,1.4,4.67,4.67,0,0,1,1.73,3.82A4.56,4.56,0,0,1,161.62,30Zm-10-10.44v2.29H157a.91.91,0,0,0,.74-.31,1.21,1.21,0,0,0,.25-.79,1.45,1.45,0,0,0-.24-.83.86.86,0,0,0-.75-.36Z"/><path class="cls-3" d="M35.76,32.47a.47.47,0,0,1,0,.23.42.42,0,0,1-.14.3.45.45,0,0,1-.33.14h-4.9a.92.92,0,0,1-.91-.54l-1.9-4.28H25.8v4.23a.53.53,0,0,1-.17.41.55.55,0,0,1-.41.18H20.55a.6.6,0,0,1-.58-.59V18.6a.57.57,0,0,1,.17-.41.56.56,0,0,1,.41-.17H29a7.18,7.18,0,0,1,4.68,1.4,4.64,4.64,0,0,1,1.73,3.82A4.54,4.54,0,0,1,33.1,27.5ZM25.8,22v2.29h2.7a.91.91,0,0,0,.74-.31,1.21,1.21,0,0,0,.26-.79,1.45,1.45,0,0,0-.25-.83A.86.86,0,0,0,28.5,22Z"/><path class="cls-3" d="M43.92,28.92h8.62a.62.62,0,0,1,.59.59v3a.62.62,0,0,1-.59.59H38.89a.55.55,0,0,1-.41-.18.57.57,0,0,1-.17-.41V18.6a.57.57,0,0,1,.17-.41.54.54,0,0,1,.41-.17H52.33a.54.54,0,0,1,.41.17.57.57,0,0,1,.17.41v3a.61.61,0,0,1-.17.42.58.58,0,0,1-.41.17H43.92v1.36h7.22a.58.58,0,0,1,.58.58V27a.57.57,0,0,1-.17.41.54.54,0,0,1-.41.17H43.92Z"/><path class="cls-3" d="M65.42,23.83h6.26a.58.58,0,0,1,.58.58V26.7A5.57,5.57,0,0,1,70,31.57a10,10,0,0,1-5.91,1.59,10.2,10.2,0,0,1-5.91-1.55A5.42,5.42,0,0,1,56,26.82V24.33a6.24,6.24,0,0,1,.63-2.86,5.16,5.16,0,0,1,1.79-2A10.23,10.23,0,0,1,64.12,18a12.13,12.13,0,0,1,3.17.39A7.12,7.12,0,0,1,71,20.57a3.27,3.27,0,0,1,1.06,2.05.43.43,0,0,1-.14.32.45.45,0,0,1-.33.14H66.73a.9.9,0,0,1-.62-.19,2.44,2.44,0,0,0-1.83-.68,3.25,3.25,0,0,0-1.81.43,1.27,1.27,0,0,0-.66,1.1v3.47a1.5,1.5,0,0,0,.65,1.28,3.16,3.16,0,0,0,1.82.46,3.06,3.06,0,0,0,1.82-.47,1.43,1.43,0,0,0,.66-1.09H65.42a.57.57,0,0,1-.41-.17.55.55,0,0,1-.18-.41v-2.4A.54.54,0,0,1,65,24,.53.53,0,0,1,65.42,23.83Z"/><path class="cls-3" d="M89.11,22.44H85.2v6.27h3.91a.57.57,0,0,1,.41.17.54.54,0,0,1,.17.41v3.26a.53.53,0,0,1-.17.41.54.54,0,0,1-.41.18H75.42a.62.62,0,0,1-.59-.59V29.29a.55.55,0,0,1,.18-.41.57.57,0,0,1,.41-.17h4V22.44h-4a.53.53,0,0,1-.41-.17.54.54,0,0,1-.18-.41V18.6a.54.54,0,0,1,.18-.41.53.53,0,0,1,.41-.17H89.11a.58.58,0,0,1,.58.58v3.26a.58.58,0,0,1-.58.58Z"/><path class="cls-3" d="M106.86,25.12a3.69,3.69,0,0,1,1.5,3.22,4,4,0,0,1-2.18,3.48,11,11,0,0,1-5.79,1.34,10.12,10.12,0,0,1-5.61-1.32,3.84,3.84,0,0,1-2-3.24c0-.31.17-.47.5-.47h4.43a1,1,0,0,1,.73.26,3.11,3.11,0,0,0,2.1.56c1.37,0,2-.21,2-.61s-.22-.45-.65-.59a14.23,14.23,0,0,0-2.57-.43q-6.11-.7-6.11-4.53a4,4,0,0,1,2-3.47A9.31,9.31,0,0,1,100.48,18a9.08,9.08,0,0,1,5.33,1.43c1.35.95,2,1.95,2,3a.44.44,0,0,1-.14.34.53.53,0,0,1-.38.13h-4.64a1,1,0,0,1-.67-.25,2.4,2.4,0,0,0-1.56-.44c-1,0-1.45.19-1.45.58,0,.21.19.37.57.49a14.4,14.4,0,0,0,2.24.37A11.11,11.11,0,0,1,106.86,25.12Z"/><path class="cls-3" d="M111.53,18h14.91a.56.56,0,0,1,.41.17.57.57,0,0,1,.17.41v3.48a.58.58,0,0,1-.17.41.6.6,0,0,1-.41.17h-4.65v9.89a.57.57,0,0,1-.17.41.55.55,0,0,1-.41.18h-4.45a.54.54,0,0,1-.41-.18.53.53,0,0,1-.17-.41V22.66h-4.65a.58.58,0,0,1-.58-.58V18.6a.57.57,0,0,1,.17-.41A.54.54,0,0,1,111.53,18Z"/><path class="cls-3" d="M135.72,28.92h8.62a.62.62,0,0,1,.59.59v3a.62.62,0,0,1-.59.59H130.69a.55.55,0,0,1-.41-.18.57.57,0,0,1-.17-.41V18.6a.57.57,0,0,1,.17-.41.54.54,0,0,1,.41-.17h13.44a.54.54,0,0,1,.41.17.57.57,0,0,1,.17.41v3a.61.61,0,0,1-.17.42.58.58,0,0,1-.41.17h-8.41v1.36h7.22a.58.58,0,0,1,.58.58V27a.57.57,0,0,1-.17.41.54.54,0,0,1-.41.17h-7.22Z"/><path class="cls-3" d="M164.28,32.47a.47.47,0,0,1,0,.23.42.42,0,0,1-.14.3.45.45,0,0,1-.33.14h-4.91a.91.91,0,0,1-.9-.54l-1.9-4.28h-1.82v4.23a.57.57,0,0,1-.17.41.55.55,0,0,1-.41.18h-4.67a.55.55,0,0,1-.41-.18.57.57,0,0,1-.17-.41V18.6a.57.57,0,0,1,.17-.41.54.54,0,0,1,.41-.17h8.4a7.19,7.19,0,0,1,4.69,1.4,4.67,4.67,0,0,1,1.73,3.82,4.56,4.56,0,0,1-2.27,4.26ZM154.32,22v2.29H157a.91.91,0,0,0,.74-.31,1.21,1.21,0,0,0,.25-.79,1.45,1.45,0,0,0-.24-.83A.86.86,0,0,0,157,22Z"/><path class="cls-4" d="M28.5,22a.86.86,0,0,1,.75.36,1.48,1.48,0,0,1,.25.83,1.21,1.21,0,0,1-.26.79.9.9,0,0,1-.74.31H25.8V22Zm4.6,5.47a4.54,4.54,0,0,0,2.27-4.26,4.64,4.64,0,0,0-1.73-3.82A7.18,7.18,0,0,0,29,18H20.55a.56.56,0,0,0-.41.17.57.57,0,0,0-.17.41V32.55a.6.6,0,0,0,.58.59h4.67a.54.54,0,0,0,.41-.18.53.53,0,0,0,.17-.41V28.32h1.82l1.9,4.28a.92.92,0,0,0,.91.54h4.9a.45.45,0,0,0,.33-.14.4.4,0,0,0,.14-.3.47.47,0,0,0,0-.23Z"/><path class="cls-4" d="M43.92,27.56h7.22a.54.54,0,0,0,.41-.17.57.57,0,0,0,.17-.41V24.17a.58.58,0,0,0-.58-.58H43.92V22.23h8.41a.58.58,0,0,0,.41-.17.6.6,0,0,0,.17-.41v-3a.57.57,0,0,0-.17-.41.54.54,0,0,0-.41-.17H38.89a.54.54,0,0,0-.41.17.57.57,0,0,0-.17.41V32.55a.57.57,0,0,0,.17.41.55.55,0,0,0,.41.18H52.54a.62.62,0,0,0,.59-.59v-3a.62.62,0,0,0-.59-.59H43.92Z"/><path class="cls-4" d="M65,24a.54.54,0,0,0-.18.41v2.4a.55.55,0,0,0,.18.41.57.57,0,0,0,.41.17h1.34a1.43,1.43,0,0,1-.66,1.09,3.06,3.06,0,0,1-1.82.47,3.16,3.16,0,0,1-1.82-.46,1.5,1.5,0,0,1-.65-1.28V23.74a1.27,1.27,0,0,1,.66-1.1,3.25,3.25,0,0,1,1.81-.43,2.44,2.44,0,0,1,1.83.68.91.91,0,0,0,.63.19h4.88a.45.45,0,0,0,.33-.14.43.43,0,0,0,.14-.32A3.27,3.27,0,0,0,71,20.57a7.12,7.12,0,0,0-3.74-2.19A12.13,12.13,0,0,0,64.12,18a10.25,10.25,0,0,0-5.72,1.48,5.16,5.16,0,0,0-1.79,2A6.24,6.24,0,0,0,56,24.33v2.49a5.42,5.42,0,0,0,2.23,4.79,10.2,10.2,0,0,0,5.91,1.55A10,10,0,0,0,70,31.57a5.57,5.57,0,0,0,2.23-4.87V24.41a.58.58,0,0,0-.58-.58H65.42A.53.53,0,0,0,65,24Z"/><path class="cls-4" d="M89.52,22.27a.54.54,0,0,0,.18-.41V18.6a.54.54,0,0,0-.18-.41.53.53,0,0,0-.41-.17H75.42a.53.53,0,0,0-.41.17.54.54,0,0,0-.18.41v3.26a.54.54,0,0,0,.18.41.53.53,0,0,0,.41.17h4v6.27h-4a.57.57,0,0,0-.41.17.55.55,0,0,0-.18.41v3.26a.62.62,0,0,0,.59.59H89.11a.62.62,0,0,0,.59-.59V29.29a.55.55,0,0,0-.18-.41.57.57,0,0,0-.41-.17H85.2V22.44h3.91A.53.53,0,0,0,89.52,22.27Z"/><path class="cls-4" d="M101.81,23.64a13.58,13.58,0,0,1-2.24-.36c-.38-.12-.57-.28-.57-.49,0-.39.49-.58,1.45-.58a2.4,2.4,0,0,1,1.56.44,1,1,0,0,0,.67.25h4.64a.53.53,0,0,0,.38-.13.46.46,0,0,0,.14-.34c0-1.06-.68-2.06-2-3A9.08,9.08,0,0,0,100.48,18a9.31,9.31,0,0,0-5.26,1.33,4,4,0,0,0-2,3.47q0,3.83,6.11,4.53a14.23,14.23,0,0,1,2.57.43c.43.14.65.34.65.59s-.68.6-2,.6a3.11,3.11,0,0,1-2.1-.55,1,1,0,0,0-.73-.26H93.28c-.33,0-.5.16-.5.47a3.84,3.84,0,0,0,2,3.24,10.12,10.12,0,0,0,5.61,1.32,11,11,0,0,0,5.79-1.34,4,4,0,0,0,2.18-3.48,3.69,3.69,0,0,0-1.5-3.22A11.22,11.22,0,0,0,101.81,23.64Z"/><path class="cls-4" d="M111.12,18.19a.57.57,0,0,0-.17.41v3.48a.58.58,0,0,0,.58.58h4.65v9.89a.53.53,0,0,0,.17.41.54.54,0,0,0,.41.18h4.45a.55.55,0,0,0,.41-.18.57.57,0,0,0,.17-.41V22.66h4.65a.6.6,0,0,0,.41-.17.58.58,0,0,0,.17-.41V18.6a.57.57,0,0,0-.17-.41.56.56,0,0,0-.41-.17H111.53A.54.54,0,0,0,111.12,18.19Z"/><path class="cls-4" d="M135.72,27.56h7.22a.54.54,0,0,0,.41-.17.57.57,0,0,0,.17-.41V24.17a.58.58,0,0,0-.58-.58h-7.22V22.23h8.41a.58.58,0,0,0,.41-.17.6.6,0,0,0,.17-.41v-3a.57.57,0,0,0-.17-.41.54.54,0,0,0-.41-.17H130.69a.54.54,0,0,0-.41.17.57.57,0,0,0-.17.41V32.55a.57.57,0,0,0,.17.41.55.55,0,0,0,.41.18h13.65a.62.62,0,0,0,.59-.59v-3a.62.62,0,0,0-.59-.59h-8.62Z"/><path class="cls-4" d="M157,22a.86.86,0,0,1,.75.36,1.48,1.48,0,0,1,.25.83,1.21,1.21,0,0,1-.26.79.91.91,0,0,1-.74.31h-2.7V22Zm4.6,5.47a4.56,4.56,0,0,0,2.27-4.26,4.67,4.67,0,0,0-1.73-3.82,7.18,7.18,0,0,0-4.68-1.4h-8.41a.54.54,0,0,0-.41.17.57.57,0,0,0-.17.41V32.55a.57.57,0,0,0,.17.41.55.55,0,0,0,.41.18h4.67a.55.55,0,0,0,.41-.18.57.57,0,0,0,.17-.41V28.32h1.82L158,32.6a.91.91,0,0,0,.9.54h4.91a.45.45,0,0,0,.33-.14.4.4,0,0,0,.14-.3.47.47,0,0,0,0-.23Z"/><path class="cls-2" d="M186.21,22.34a1.15,1.15,0,0,0-1-.57H172.7a1.12,1.12,0,0,0-1,.58,1,1,0,0,0,0,1L178,33.05a1.11,1.11,0,0,0,1,.51,1.15,1.15,0,0,0,1-.51l6.25-9.67h0a1,1,0,0,0,0-1"/></g></g></svg>