<svg xmlns="http://www.w3.org/2000/svg" viewBox="0 0 202.19 54.3"><defs><style>.cls-1{fill:#f1d31c;}.cls-2{fill:#000718;}.cls-3{fill:#fefefe;}.cls-4{fill:none;stroke:#000718;stroke-miterlimit:10;}</style></defs><title>register</title><g id="Layer_2" data-name="Layer 2"><g id="Layer_1-2" data-name="Layer 1"><path class="cls-1" d="M12.43,0H189.76a12.44,12.44,0,0,1,12.43,12.43V41.87A12.44,12.44,0,0,1,189.76,54.3H12.43A12.44,12.44,0,0,1,0,41.87V12.43A12.44,12.44,0,0,1,12.43,0"/><path class="cls-2" d="M35.22,35.14a.54.54,0,0,1,.05.24.42.42,0,0,1-.14.29.45.45,0,0,1-.34.14h-4.9a.92.92,0,0,1-.91-.54L27.08,31H25.26v4.24a.57.57,0,0,1-.17.41.54.54,0,0,1-.41.17H20a.58.58,0,0,1-.58-.58v-14a.58.58,0,0,1,.58-.58h8.41a7.22,7.22,0,0,1,4.69,1.4,4.67,4.67,0,0,1,1.72,3.83,4.54,4.54,0,0,1-2.26,4.25Zm-10-10.43V27H28a.92.92,0,0,0,.74-.32,1.21,1.21,0,0,0,.26-.79,1.48,1.48,0,0,0-.25-.83.85.85,0,0,0-.75-.35Z"/><path class="cls-2" d="M43.39,31.6H52a.61.61,0,0,1,.42.17.58.58,0,0,1,.17.41v3a.58.58,0,0,1-.59.58H38.36a.53.53,0,0,1-.41-.17.54.54,0,0,1-.18-.41v-14a.54.54,0,0,1,.18-.41.53.53,0,0,1,.41-.17H51.8a.54.54,0,0,1,.41.17.57.57,0,0,1,.17.41v3.05a.6.6,0,0,1-.17.41.58.58,0,0,1-.41.17H43.39v1.36h7.22a.57.57,0,0,1,.41.17.56.56,0,0,1,.17.41v2.81a.53.53,0,0,1-.17.41.54.54,0,0,1-.41.18H43.39Z"/><path class="cls-2" d="M64.89,26.5h6.27a.57.57,0,0,1,.41.17.55.55,0,0,1,.18.41v2.29a5.59,5.59,0,0,1-2.24,4.88,10,10,0,0,1-5.91,1.59,10.2,10.2,0,0,1-5.91-1.55,5.44,5.44,0,0,1-2.24-4.8V27a6.16,6.16,0,0,1,.64-2.87,5.14,5.14,0,0,1,1.78-2,10.29,10.29,0,0,1,5.73-1.48,12,12,0,0,1,3.16.39,7.48,7.48,0,0,1,2.29.95,7.87,7.87,0,0,1,1.46,1.24,3.27,3.27,0,0,1,1.06,2.05.4.4,0,0,1-.14.32.45.45,0,0,1-.33.14H66.21a.85.85,0,0,1-.62-.19,2.44,2.44,0,0,0-1.83-.68,3.29,3.29,0,0,0-1.82.43,1.28,1.28,0,0,0-.65,1.1v3.47a1.48,1.48,0,0,0,.64,1.28,3.12,3.12,0,0,0,1.83.46,3.06,3.06,0,0,0,1.82-.46,1.4,1.4,0,0,0,.65-1.1H64.89a.56.56,0,0,1-.41-.17.57.57,0,0,1-.17-.41v-2.4a.58.58,0,0,1,.17-.41A.6.6,0,0,1,64.89,26.5Z"/><path class="cls-2" d="M88.6,25.12H84.69v6.26H88.6a.62.62,0,0,1,.59.59v3.26a.54.54,0,0,1-.18.41.53.53,0,0,1-.41.17H74.9a.58.58,0,0,1-.58-.58V32a.53.53,0,0,1,.17-.41.54.54,0,0,1,.41-.18h4V25.12h-4a.54.54,0,0,1-.41-.18.53.53,0,0,1-.17-.41V21.27a.58.58,0,0,1,.58-.58H88.6a.53.53,0,0,1,.41.17.54.54,0,0,1,.18.41v3.26a.62.62,0,0,1-.59.59Z"/><path class="cls-2" d="M106.36,27.79a3.71,3.71,0,0,1,1.5,3.22,4,4,0,0,1-2.19,3.49,11,11,0,0,1-5.79,1.34,10.16,10.16,0,0,1-5.61-1.32,3.83,3.83,0,0,1-2-3.25c0-.31.16-.47.49-.47H97.2a1,1,0,0,1,.74.27,3.08,3.08,0,0,0,2.09.55c1.37,0,2.06-.2,2.06-.6s-.22-.45-.65-.6A14.23,14.23,0,0,0,98.87,30q-6.12-.7-6.12-4.53a4,4,0,0,1,2-3.47A9.29,9.29,0,0,1,100,20.66a9.1,9.1,0,0,1,5.33,1.43c1.35.95,2,1.95,2,3a.44.44,0,0,1-.14.34.53.53,0,0,1-.38.13h-4.65a1,1,0,0,1-.67-.24,2.29,2.29,0,0,0-1.55-.45c-1,0-1.45.19-1.45.58,0,.21.19.38.56.49a14.6,14.6,0,0,0,2.25.37A11.11,11.11,0,0,1,106.36,27.79Z"/><path class="cls-2" d="M111,20.69H126a.56.56,0,0,1,.41.17.57.57,0,0,1,.17.41v3.48a.58.58,0,0,1-.17.41.6.6,0,0,1-.41.17H121.3v9.9a.57.57,0,0,1-.17.41.56.56,0,0,1-.41.17h-4.46a.54.54,0,0,1-.41-.17.57.57,0,0,1-.17-.41v-9.9H111a.6.6,0,0,1-.41-.17.58.58,0,0,1-.17-.41V21.27a.57.57,0,0,1,.17-.41A.56.56,0,0,1,111,20.69Z"/><path class="cls-2" d="M135.24,31.6h8.62a.57.57,0,0,1,.41.17.54.54,0,0,1,.17.41v3a.58.58,0,0,1-.58.58H130.2a.54.54,0,0,1-.41-.17.57.57,0,0,1-.17-.41v-14a.57.57,0,0,1,.17-.41.54.54,0,0,1,.41-.17h13.44a.53.53,0,0,1,.41.17.54.54,0,0,1,.18.41v3.05a.6.6,0,0,1-.59.58h-8.4v1.36h7.22a.58.58,0,0,1,.58.58v2.81a.6.6,0,0,1-.58.59h-7.22Z"/><path class="cls-2" d="M163.81,35.14a.55.55,0,0,1,0,.24.48.48,0,0,1-.47.43h-4.91a.93.93,0,0,1-.91-.54L155.66,31h-1.82v4.24a.58.58,0,0,1-.58.58h-4.67a.54.54,0,0,1-.41-.17.57.57,0,0,1-.17-.41v-14a.57.57,0,0,1,.17-.41.54.54,0,0,1,.41-.17H157a7.21,7.21,0,0,1,4.69,1.4,4.68,4.68,0,0,1,1.73,3.83,4.54,4.54,0,0,1-2.27,4.25Zm-10-10.43V27h2.71a.9.9,0,0,0,.73-.32,1.21,1.21,0,0,0,.26-.79,1.4,1.4,0,0,0-.25-.83.82.82,0,0,0-.74-.35Z"/><path class="cls-3" d="M34.82,32.65a.54.54,0,0,1,0,.24.42.42,0,0,1-.14.29.49.49,0,0,1-.34.14h-4.9a.92.92,0,0,1-.91-.54l-1.9-4.28H24.86v4.24a.6.6,0,0,1-.17.41.58.58,0,0,1-.41.17H19.61a.57.57,0,0,1-.41-.17.56.56,0,0,1-.17-.41v-14a.56.56,0,0,1,.17-.41.57.57,0,0,1,.41-.17H28a7.23,7.23,0,0,1,4.69,1.41,4.65,4.65,0,0,1,1.72,3.82,4.55,4.55,0,0,1-2.26,4.26Zm-10-10.44V24.5h2.7a.91.91,0,0,0,.74-.31,1.21,1.21,0,0,0,.26-.79,1.45,1.45,0,0,0-.25-.83.86.86,0,0,0-.75-.36Z"/><path class="cls-3" d="M43,29.1h8.63a.6.6,0,0,1,.58.59v3.05a.58.58,0,0,1-.58.58H38a.6.6,0,0,1-.59-.58v-14a.6.6,0,0,1,.59-.58H51.4a.58.58,0,0,1,.41.17.56.56,0,0,1,.17.41v3.05a.53.53,0,0,1-.17.41.55.55,0,0,1-.41.18H43v1.36h7.22a.57.57,0,0,1,.41.17.54.54,0,0,1,.17.41v2.81a.58.58,0,0,1-.58.58H43Z"/><path class="cls-3" d="M64.5,24h6.26a.53.53,0,0,1,.41.17.54.54,0,0,1,.18.41v2.29a5.57,5.57,0,0,1-2.24,4.87,10,10,0,0,1-5.91,1.59,10.13,10.13,0,0,1-5.91-1.55A5.43,5.43,0,0,1,55.05,27V24.51a6.12,6.12,0,0,1,.64-2.86,5.24,5.24,0,0,1,1.78-2,10.29,10.29,0,0,1,5.73-1.47,12.44,12.44,0,0,1,3.16.38,7.91,7.91,0,0,1,2.3,1,8.09,8.09,0,0,1,1.45,1.23,3.29,3.29,0,0,1,1.06,2.06.41.41,0,0,1-.14.32.45.45,0,0,1-.33.14H65.81a.85.85,0,0,1-.62-.2,2.48,2.48,0,0,0-1.83-.68,3.32,3.32,0,0,0-1.81.43,1.29,1.29,0,0,0-.66,1.11v3.47a1.49,1.49,0,0,0,.64,1.28,3.21,3.21,0,0,0,1.83.46,3.06,3.06,0,0,0,1.82-.47,1.43,1.43,0,0,0,.66-1.09H64.5a.57.57,0,0,1-.41-.17.55.55,0,0,1-.18-.41v-2.4a.54.54,0,0,1,.18-.41A.53.53,0,0,1,64.5,24Z"/><path class="cls-3" d="M88.2,22.62H84.29v6.27H88.2a.57.57,0,0,1,.41.17.55.55,0,0,1,.18.41v3.27a.6.6,0,0,1-.59.58H74.5a.58.58,0,0,1-.41-.17.56.56,0,0,1-.17-.41V29.47a.54.54,0,0,1,.17-.41.58.58,0,0,1,.41-.17h4V22.62h-4a.58.58,0,0,1-.41-.17.54.54,0,0,1-.17-.41V18.77a.56.56,0,0,1,.17-.41.58.58,0,0,1,.41-.17H88.2a.6.6,0,0,1,.59.58V22a.55.55,0,0,1-.18.41A.57.57,0,0,1,88.2,22.62Z"/><path class="cls-3" d="M106,25.3a3.69,3.69,0,0,1,1.5,3.22A4,4,0,0,1,105.27,32a11,11,0,0,1-5.79,1.33A10.1,10.1,0,0,1,93.88,32a3.79,3.79,0,0,1-2-3.24c0-.31.16-.47.49-.47H96.8a1,1,0,0,1,.74.27,3.15,3.15,0,0,0,2.1.55c1.36,0,2-.2,2-.61,0-.25-.22-.45-.65-.59a14.23,14.23,0,0,0-2.57-.43q-6.12-.7-6.12-4.53a4,4,0,0,1,2-3.47,9.21,9.21,0,0,1,5.26-1.33,9.1,9.1,0,0,1,5.33,1.42c1.35,1,2,2,2,3a.46.46,0,0,1-.14.34.53.53,0,0,1-.38.13h-4.65a1,1,0,0,1-.67-.25,2.29,2.29,0,0,0-1.55-.45c-1,0-1.45.2-1.45.59,0,.21.19.37.56.49a14,14,0,0,0,2.25.36A11.22,11.22,0,0,1,106,25.3Z"/><path class="cls-3" d="M110.63,18.19h14.92a.58.58,0,0,1,.58.58v3.48a.58.58,0,0,1-.58.59H120.9v9.9a.58.58,0,0,1-.58.58h-4.46a.58.58,0,0,1-.58-.58v-9.9h-4.65a.58.58,0,0,1-.58-.59V18.77a.58.58,0,0,1,.58-.58Z"/><path class="cls-3" d="M134.84,29.1h8.62a.62.62,0,0,1,.59.59v3.05a.6.6,0,0,1-.59.58H129.8a.58.58,0,0,1-.41-.17.6.6,0,0,1-.17-.41v-14a.6.6,0,0,1,.17-.41.58.58,0,0,1,.41-.17h13.45a.58.58,0,0,1,.58.58v3.05a.6.6,0,0,1-.58.59h-8.41v1.36h7.22a.58.58,0,0,1,.58.58v2.81a.57.57,0,0,1-.17.41.54.54,0,0,1-.41.17h-7.22Z"/><path class="cls-3" d="M163.41,32.65a.55.55,0,0,1,0,.24.42.42,0,0,1-.14.29.45.45,0,0,1-.33.14h-4.91a.94.94,0,0,1-.91-.54l-1.9-4.28h-1.81v4.24a.6.6,0,0,1-.59.58h-4.67a.58.58,0,0,1-.58-.58v-14a.58.58,0,0,1,.58-.58h8.41a7.21,7.21,0,0,1,4.69,1.41A4.66,4.66,0,0,1,163,23.42a4.56,4.56,0,0,1-2.27,4.26Zm-10-10.44V24.5h2.7a.89.89,0,0,0,.73-.31,1.21,1.21,0,0,0,.26-.79,1.38,1.38,0,0,0-.25-.83.83.83,0,0,0-.74-.36Z"/><path class="cls-4" d="M27.56,22.21a.86.86,0,0,1,.75.36,1.45,1.45,0,0,1,.25.83,1.21,1.21,0,0,1-.26.79.91.91,0,0,1-.74.31h-2.7V22.21Zm4.61,5.47a4.56,4.56,0,0,0,2.27-4.26,4.66,4.66,0,0,0-1.73-3.82A7.23,7.23,0,0,0,28,18.19H19.61a.57.57,0,0,0-.41.17.56.56,0,0,0-.17.41v14a.54.54,0,0,0,.17.41.57.57,0,0,0,.41.17h4.67a.58.58,0,0,0,.58-.58V28.5h1.82l1.9,4.28a.92.92,0,0,0,.91.54h4.9a.49.49,0,0,0,.34-.14.42.42,0,0,0,.14-.29.54.54,0,0,0,0-.24Z"/><path class="cls-4" d="M43,27.74h7.22a.58.58,0,0,0,.58-.58V24.35a.54.54,0,0,0-.17-.41.57.57,0,0,0-.41-.17H43V22.41H51.4a.55.55,0,0,0,.41-.18.53.53,0,0,0,.17-.41V18.77a.56.56,0,0,0-.17-.41.58.58,0,0,0-.41-.17H38a.6.6,0,0,0-.59.58v14a.55.55,0,0,0,.18.41.57.57,0,0,0,.41.17H51.62a.6.6,0,0,0,.41-.17.58.58,0,0,0,.17-.41V29.69a.6.6,0,0,0-.58-.59H43Z"/><path class="cls-4" d="M64.09,24.18a.54.54,0,0,0-.18.41V27a.55.55,0,0,0,.18.41.57.57,0,0,0,.41.17h1.34a1.43,1.43,0,0,1-.66,1.09,3.06,3.06,0,0,1-1.82.47,3.21,3.21,0,0,1-1.83-.46,1.48,1.48,0,0,1-.64-1.28V23.92a1.29,1.29,0,0,1,.66-1.11,3.32,3.32,0,0,1,1.81-.43,2.48,2.48,0,0,1,1.83.68.85.85,0,0,0,.62.2H70.7a.45.45,0,0,0,.33-.14.41.41,0,0,0,.14-.32,3.29,3.29,0,0,0-1.06-2.06,7.76,7.76,0,0,0-1.45-1.23,7.91,7.91,0,0,0-2.3-1,12.44,12.44,0,0,0-3.16-.38,10.21,10.21,0,0,0-5.73,1.48,5.14,5.14,0,0,0-1.78,2,6.12,6.12,0,0,0-.64,2.86V27a5.43,5.43,0,0,0,2.24,4.79,10.13,10.13,0,0,0,5.91,1.55,10,10,0,0,0,5.91-1.59,5.57,5.57,0,0,0,2.24-4.87V24.59a.62.62,0,0,0-.59-.59H64.5A.54.54,0,0,0,64.09,24.18Z"/><path class="cls-4" d="M88.61,22.45a.55.55,0,0,0,.18-.41V18.78a.62.62,0,0,0-.59-.59H74.5a.55.55,0,0,0-.41.18.53.53,0,0,0-.17.41V22a.54.54,0,0,0,.17.41.58.58,0,0,0,.41.17h4v6.27h-4a.58.58,0,0,0-.41.17.54.54,0,0,0-.17.41v3.27a.56.56,0,0,0,.17.41.58.58,0,0,0,.41.17H88.2a.6.6,0,0,0,.59-.58V29.47a.55.55,0,0,0-.18-.41.57.57,0,0,0-.41-.17H84.29V22.62H88.2A.57.57,0,0,0,88.61,22.45Z"/><path class="cls-4" d="M100.91,23.82a14,14,0,0,1-2.25-.36c-.37-.12-.56-.28-.56-.49,0-.39.48-.59,1.45-.59a2.29,2.29,0,0,1,1.55.45,1,1,0,0,0,.67.25h4.65a.53.53,0,0,0,.38-.13.46.46,0,0,0,.14-.34c0-1.06-.68-2.06-2-3a9.1,9.1,0,0,0-5.33-1.43,9.21,9.21,0,0,0-5.26,1.33,4,4,0,0,0-2,3.47q0,3.83,6.12,4.53a14.23,14.23,0,0,1,2.57.43c.43.14.65.34.65.59,0,.41-.69.61-2,.61a3.15,3.15,0,0,1-2.1-.55,1,1,0,0,0-.74-.27H92.37c-.33,0-.49.16-.49.47a3.79,3.79,0,0,0,2,3.24,10.1,10.1,0,0,0,5.6,1.32A11,11,0,0,0,105.27,32a4,4,0,0,0,2.19-3.49A3.69,3.69,0,0,0,106,25.3,11.22,11.22,0,0,0,100.91,23.82Z"/><path class="cls-4" d="M110.22,18.36a.6.6,0,0,0-.17.41v3.48a.58.58,0,0,0,.58.59h4.65v9.9a.58.58,0,0,0,.17.41.61.61,0,0,0,.42.17h4.45a.58.58,0,0,0,.58-.58v-9.9h4.65a.58.58,0,0,0,.58-.59V18.77a.58.58,0,0,0-.58-.58H110.63A.6.6,0,0,0,110.22,18.36Z"/><path class="cls-4" d="M134.84,27.74h7.22a.54.54,0,0,0,.41-.17.57.57,0,0,0,.17-.41V24.35a.58.58,0,0,0-.58-.58h-7.22V22.41h8.41a.6.6,0,0,0,.58-.59V18.77a.58.58,0,0,0-.58-.58H129.8a.58.58,0,0,0-.58.58v14a.58.58,0,0,0,.17.41.6.6,0,0,0,.41.17h13.66a.57.57,0,0,0,.41-.17.55.55,0,0,0,.18-.41V29.69a.62.62,0,0,0-.59-.59h-8.62Z"/><path class="cls-4" d="M156.15,22.21a.83.83,0,0,1,.74.36,1.38,1.38,0,0,1,.25.83,1.21,1.21,0,0,1-.26.79.89.89,0,0,1-.73.31h-2.7V22.21Zm4.6,5.47A4.56,4.56,0,0,0,163,23.42a4.66,4.66,0,0,0-1.73-3.82,7.21,7.21,0,0,0-4.69-1.41h-8.41a.58.58,0,0,0-.58.58v14a.58.58,0,0,0,.17.41.6.6,0,0,0,.41.17h4.67a.57.57,0,0,0,.41-.17.55.55,0,0,0,.18-.41V28.5h1.81l1.9,4.28a.94.94,0,0,0,.91.54H163a.45.45,0,0,0,.33-.14.42.42,0,0,0,.14-.29.55.55,0,0,0,0-.24Z"/></g></g></svg>