<svg xmlns="http://www.w3.org/2000/svg" viewBox="0 0 51.58 51.58"><defs><style>.cls-1{fill:#fff;}</style></defs><title>youtube01</title><g id="Layer_2" data-name="Layer 2"><g id="Layer_1-2" data-name="Layer 1"><polygon class="cls-1" points="22.58 30.62 30.97 25.79 22.58 20.96 22.58 30.62"/><path class="cls-1" d="M25.79,0A25.79,25.79,0,1,0,51.58,25.79,25.79,25.79,0,0,0,25.79,0M41.91,25.82a42.13,42.13,0,0,1-.67,7.75,4,4,0,0,1-2.84,2.84c-2.52.66-12.61.66-12.61.66s-10.06,0-12.61-.69a4,4,0,0,1-2.84-2.84,42.57,42.57,0,0,1-.66-7.75A42.75,42.75,0,0,1,10.34,18a4.13,4.13,0,0,1,2.84-2.87c2.52-.66,12.61-.66,12.61-.66s10.09,0,12.61.69A4,4,0,0,1,41.24,18a40.6,40.6,0,0,1,.67,7.78"/></g></g></svg>