<svg xmlns="http://www.w3.org/2000/svg" viewBox="0 0 51.58 51.58"><defs><style>.cls-1{fill:#fff;}</style></defs><title>youtube</title><g id="Layer_2" data-name="Layer 2"><g id="Layer_1-2" data-name="Layer 1"><path class="cls-1" d="M20.29,34.18l13-7.46a1.07,1.07,0,0,0,0-1.86l-13-7.46a1.07,1.07,0,0,0-1.61.93V33.25a1.07,1.07,0,0,0,1.61.93"/><path class="cls-1" d="M25.79,0A25.79,25.79,0,1,0,51.58,25.79,25.79,25.79,0,0,0,25.79,0m0,48.4A22.61,22.61,0,1,1,48.4,25.79,22.61,22.61,0,0,1,25.79,48.4"/></g></g></svg>