<svg xmlns="http://www.w3.org/2000/svg" viewBox="0 0 1296.18 90.03"><defs><style>.cls-1{fill:#262261;}.cls-2{fill:#8a2c74;}</style></defs><g id="Layer_2" data-name="Layer 2"><g id="Layer_1-2" data-name="Layer 1"><path class="cls-1" d="M208,46.55q4.17,3,4.17,9t-6.06,9.68Q200,68.89,190,68.89t-15.57-3.66q-5.55-3.66-5.55-9c0-.87.46-1.3,1.38-1.3h12.3a2.85,2.85,0,0,1,2,.73q1.68,1.55,5.82,1.54,5.7,0,5.7-1.68c0-.7-.6-1.25-1.8-1.66a40.73,40.73,0,0,0-7.14-1.18q-17-2-17-12.58,0-6,5.46-9.64t14.61-3.68q9.15,0,14.79,3.95t5.64,8.37a1.24,1.24,0,0,1-.39.95,1.53,1.53,0,0,1-1,.35h-12.9a2.7,2.7,0,0,1-1.86-.68,6.46,6.46,0,0,0-4.32-1.24q-4,0-4,1.62c0,.58.52,1,1.56,1.36a39.75,39.75,0,0,0,6.24,1Q203.81,43.57,208,46.55Z"/><path class="cls-1" d="M249.29,26.83h12.36a1.64,1.64,0,0,1,1.62,1.62V67.21a1.64,1.64,0,0,1-1.62,1.62H249.29a1.64,1.64,0,0,1-1.62-1.62V54.43h-12V67.21a1.64,1.64,0,0,1-1.62,1.62H221.69a1.61,1.61,0,0,1-1.14-.45,1.53,1.53,0,0,1-.48-1.17V28.45a1.64,1.64,0,0,1,1.62-1.62h12.36a1.64,1.64,0,0,1,1.62,1.62v12.3h12V28.45a1.64,1.64,0,0,1,1.62-1.62Z"/><path class="cls-1" d="M308.66,64.56q-5.91,4.34-16,4.33t-16-4.33q-5.91-4.32-5.91-13.51V28.43a1.62,1.62,0,0,1,1.62-1.6h12.54a1.55,1.55,0,0,1,1.14.47,1.51,1.51,0,0,1,.48,1.12V51.88a4.43,4.43,0,0,0,1.65,3.71,8.33,8.33,0,0,0,8.94,0,4.43,4.43,0,0,0,1.65-3.71V28.42a1.51,1.51,0,0,1,.48-1.12,1.55,1.55,0,0,1,1.14-.47H313a1.62,1.62,0,0,1,1.62,1.6V51.05Q314.57,60.25,308.66,64.56Z"/><path class="cls-1" d="M325.79,26.83H364a1.64,1.64,0,0,1,1.62,1.62v9.12A1.64,1.64,0,0,1,364,39.19H340.37V43h19.68a1.64,1.64,0,0,1,1.62,1.62v9.06a1.64,1.64,0,0,1-1.62,1.62H340.37V67.21a1.64,1.64,0,0,1-1.62,1.62h-13a1.64,1.64,0,0,1-1.62-1.62V28.45a1.64,1.64,0,0,1,1.62-1.62Z"/><path class="cls-1" d="M376.79,26.83H415a1.64,1.64,0,0,1,1.62,1.62v9.12A1.64,1.64,0,0,1,415,39.19H391.37V43h19.68a1.64,1.64,0,0,1,1.62,1.62v9.06a1.64,1.64,0,0,1-1.62,1.62H391.37V67.21a1.64,1.64,0,0,1-1.62,1.62h-13a1.64,1.64,0,0,1-1.62-1.62V28.45a1.64,1.64,0,0,1,1.62-1.62Z"/><path class="cls-1" d="M444.77,56.53h20.46a1.64,1.64,0,0,1,1.62,1.62v9.06a1.64,1.64,0,0,1-1.62,1.62h-35a1.64,1.64,0,0,1-1.62-1.62V28.45a1.64,1.64,0,0,1,1.62-1.62h13a1.64,1.64,0,0,1,1.62,1.62Z"/><path class="cls-1" d="M492.17,57.13h23.94a1.64,1.64,0,0,1,1.62,1.62v8.46a1.64,1.64,0,0,1-1.62,1.62H478.19a1.64,1.64,0,0,1-1.62-1.62V28.45a1.64,1.64,0,0,1,1.62-1.62h37.32a1.64,1.64,0,0,1,1.62,1.62v8.46a1.64,1.64,0,0,1-1.62,1.62H492.17v3.78h20a1.64,1.64,0,0,1,1.62,1.62v7.8a1.64,1.64,0,0,1-1.62,1.62h-20Z"/><path class="cls-1" d="M587.33,68.83H576a1.27,1.27,0,0,1-.93-.39,1.1,1.1,0,0,1-.39-.75,1.82,1.82,0,0,1,.06-.54l13.08-38.34a2.51,2.51,0,0,1,2.7-2h16.68a2.51,2.51,0,0,1,2.7,2L623,67.15a1.82,1.82,0,0,1,.06.54,1.1,1.1,0,0,1-.39.75,1.27,1.27,0,0,1-.93.39H610.37a2.76,2.76,0,0,1-2.7-2l-1.5-4.2H591.53l-1.5,4.2A2.76,2.76,0,0,1,587.33,68.83Zm15.78-17.94-4.26-12.48-4.26,12.48Z"/><path class="cls-1" d="M660.11,26.83h11a1.64,1.64,0,0,1,1.62,1.62V67.21a1.64,1.64,0,0,1-1.62,1.62H660.23a1.64,1.64,0,0,1-1.62-1.62V48.61l-4.38,8.64a2.52,2.52,0,0,1-1.08,1.11,3,3,0,0,1-1.44.39h-4.08a2.57,2.57,0,0,1-1.68-.54,2.85,2.85,0,0,1-.84-1l-4.38-8.64v18.6a1.64,1.64,0,0,1-1.62,1.62H628.25a1.64,1.64,0,0,1-1.62-1.62V28.45a1.64,1.64,0,0,1,1.62-1.62h11a2.82,2.82,0,0,1,2.58,1.62l7.86,14.4,7.86-14.4A2.82,2.82,0,0,1,660.11,26.83Z"/><path class="cls-1" d="M723.53,55.63q0,13.2-16.92,13.2H681.89a1.53,1.53,0,0,1-1.14-.48,1.56,1.56,0,0,1-.48-1.14V28.45a1.56,1.56,0,0,1,.48-1.14,1.53,1.53,0,0,1,1.14-.48H706q8.52,0,12.57,3.09t4,9.33v.18a7.92,7.92,0,0,1-1.56,4.92,7.06,7.06,0,0,1-3.24,2.58,7.64,7.64,0,0,1,4,3.15A9.52,9.52,0,0,1,723.53,55.63ZM705.74,41.74a3.24,3.24,0,0,0,.63-2,2.87,2.87,0,0,0-.63-1.86,2.21,2.21,0,0,0-1.83-.78h-8v5.46h8A2.12,2.12,0,0,0,705.74,41.74Zm-9.87,10.89v5.88h8.7a2.42,2.42,0,0,0,2.07-.93,3.39,3.39,0,0,0,.69-2.07v-.06a2.88,2.88,0,0,0-.75-2,2.58,2.58,0,0,0-2-.84Z"/><path class="cls-1" d="M740.33,68.83H729a1.25,1.25,0,0,1-.93-.39,1.06,1.06,0,0,1-.39-.75,1.82,1.82,0,0,1,.06-.54l13.08-38.34a2.51,2.51,0,0,1,2.7-2h16.68a2.51,2.51,0,0,1,2.7,2L776,67.15a1.82,1.82,0,0,1,.06.54,1.1,1.1,0,0,1-.39.75,1.29,1.29,0,0,1-.93.39H763.37a2.75,2.75,0,0,1-2.7-2l-1.5-4.2H744.53l-1.5,4.2A2.77,2.77,0,0,1,740.33,68.83Zm15.78-17.94-4.26-12.48-4.26,12.48Z"/><path class="cls-1" d="M820,46.55q4.17,3,4.18,9t-6.07,9.68Q812,68.89,802,68.89t-15.57-3.66q-5.55-3.66-5.55-9c0-.87.46-1.3,1.38-1.3h12.3a2.85,2.85,0,0,1,2,.73q1.68,1.55,5.82,1.54,5.7,0,5.7-1.68c0-.7-.6-1.25-1.8-1.66a40.73,40.73,0,0,0-7.14-1.18q-17-2-17-12.58,0-6,5.46-9.64t14.61-3.68q9.15,0,14.79,3.95t5.64,8.37a1.24,1.24,0,0,1-.39.95,1.53,1.53,0,0,1-1,.35h-12.9a2.72,2.72,0,0,1-1.86-.68,6.46,6.46,0,0,0-4.32-1.24q-4,0-4,1.62c0,.58.52,1,1.56,1.36a39.75,39.75,0,0,0,6.24,1Q815.8,43.57,820,46.55Z"/><path class="cls-1" d="M871,46.55q4.17,3,4.18,9t-6.07,9.68Q863,68.89,853,68.89t-15.57-3.66q-5.55-3.66-5.55-9c0-.87.46-1.3,1.38-1.3h12.3a2.85,2.85,0,0,1,2,.73q1.68,1.55,5.82,1.54,5.7,0,5.7-1.68c0-.7-.6-1.25-1.8-1.66a40.73,40.73,0,0,0-7.14-1.18q-17-2-17-12.58,0-6,5.46-9.64t14.61-3.68q9.15,0,14.79,3.95t5.64,8.37a1.24,1.24,0,0,1-.39.95,1.53,1.53,0,0,1-1,.35h-12.9a2.72,2.72,0,0,1-1.86-.68,6.46,6.46,0,0,0-4.32-1.24q-4,0-4,1.62c0,.58.52,1,1.56,1.36a39.75,39.75,0,0,0,6.24,1Q866.8,43.57,871,46.55Z"/><path class="cls-1" d="M893.32,68.83H882a1.27,1.27,0,0,1-.93-.39,1.1,1.1,0,0,1-.39-.75,1.82,1.82,0,0,1,.06-.54L893.8,28.81a2.51,2.51,0,0,1,2.7-2h16.68a2.51,2.51,0,0,1,2.7,2L929,67.15a1.82,1.82,0,0,1,.06.54,1.1,1.1,0,0,1-.39.75,1.27,1.27,0,0,1-.93.39H916.36a2.76,2.76,0,0,1-2.7-2l-1.5-4.2H897.52l-1.5,4.2A2.76,2.76,0,0,1,893.32,68.83ZM909.1,50.89l-4.26-12.48-4.26,12.48Z"/><path class="cls-1" d="M936.34,26.83h19.14a34,34,0,0,1,11.46,1.74,16.25,16.25,0,0,1,7.86,5.88,17.13,17.13,0,0,1,3,10.32v6.12q0,9.6-6.48,14-5.94,4-15.84,4H936.34a1.64,1.64,0,0,1-1.62-1.62V28.45a1.64,1.64,0,0,1,1.62-1.62Zm14,11.7v18.6h5.46a6.85,6.85,0,0,0,4.47-1.35A4.65,4.65,0,0,0,961.9,52V43.69a4.65,4.65,0,0,0-1.65-3.81,6.85,6.85,0,0,0-4.47-1.35Z"/><path class="cls-1" d="M1029,44.26v7.13a16.42,16.42,0,0,1-3,10.07,16.21,16.21,0,0,1-7.86,5.73,39.48,39.48,0,0,1-22.92,0,16.21,16.21,0,0,1-7.86-5.73,16.61,16.61,0,0,1-3-10.18V44.37q0-8.82,6.21-13.22t16.11-4.38q9.9,0,16.11,4.38T1029,44.26Zm-28.44-1v9.07a4.21,4.21,0,0,0,1.65,3.58,7.25,7.25,0,0,0,4.47,1.25,7.13,7.13,0,0,0,4.47-1.28,4.29,4.29,0,0,0,1.65-3.6v-9a4.29,4.29,0,0,0-1.65-3.6,7.13,7.13,0,0,0-4.47-1.27,7.25,7.25,0,0,0-4.47,1.24A4.23,4.23,0,0,0,1000.54,43.29Z"/><path class="cls-1" d="M1081.48,67a1.5,1.5,0,0,1,.12.66,1.15,1.15,0,0,1-.39.81,1.27,1.27,0,0,1-.93.39h-13.62a2.56,2.56,0,0,1-2.52-1.5l-5.28-11.88h-5V67.21a1.64,1.64,0,0,1-1.62,1.62h-13a1.64,1.64,0,0,1-1.62-1.62V28.45a1.64,1.64,0,0,1,1.62-1.62h23.34q8.22,0,13,3.9a13,13,0,0,1,4.8,10.62q0,8.16-6.3,11.82Zm-27.66-29v6.36h7.5a2.5,2.5,0,0,0,2-.87,3.32,3.32,0,0,0,.72-2.19,3.94,3.94,0,0,0-.69-2.31,2.36,2.36,0,0,0-2.07-1Z"/><path class="cls-1" d="M1126,46.55q4.17,3,4.17,9t-6.06,9.68q-6.06,3.7-16.08,3.71t-15.57-3.66q-5.55-3.66-5.55-9c0-.87.46-1.3,1.38-1.3h12.3a2.85,2.85,0,0,1,2,.73q1.68,1.55,5.82,1.54,5.7,0,5.7-1.68c0-.7-.6-1.25-1.8-1.66a40.73,40.73,0,0,0-7.14-1.18q-17-2-17-12.58,0-6,5.46-9.64t14.61-3.68q9.15,0,14.79,3.95t5.64,8.37a1.24,1.24,0,0,1-.39.95,1.53,1.53,0,0,1-1,.35h-12.9a2.7,2.7,0,0,1-1.86-.68,6.46,6.46,0,0,0-4.32-1.24q-4,0-4,1.62c0,.58.52,1,1.56,1.36a39.75,39.75,0,0,0,6.24,1Q1121.8,43.57,1126,46.55Z"/><polygon class="cls-2" points="0 0 4.97 68.38 24.91 48.97 41.55 86.59 42.55 13.51 16.44 31.15 0 0"/><polygon class="cls-2" points="115.78 7.87 57.99 44.76 84.54 53.08 59.36 85.59 124.13 51.73 96.2 37.15 115.78 7.87"/><polygon class="cls-2" points="1172.05 3.44 1177.03 71.82 1196.97 52.41 1213.6 90.03 1214.6 16.95 1188.5 34.59 1172.05 3.44"/><polygon class="cls-2" points="1287.84 11.31 1230.04 48.2 1256.6 56.51 1231.42 89.03 1296.18 55.16 1268.25 40.59 1287.84 11.31"/></g></g></svg>