<svg xmlns="http://www.w3.org/2000/svg" viewBox="0 0 372.37 78.15"><defs><style>.cls-1{fill:#aa2023;}.cls-2{fill:#fff;}.cls-3{fill:#050505;}.cls-4{fill:#faec1e;}.cls-5{fill:#163293;}</style></defs><g id="Layer_2" data-name="Layer 2"><g id="Layer_1-2" data-name="Layer 1"><path class="cls-1" d="M372.37,48a23.76,23.76,0,1,1-23.76-23.76A23.76,23.76,0,0,1,372.37,48"/><path class="cls-2" d="M364.32,38.48c1.07,3.85-3.52,6.4-7.1,5.38-3.58-1.53-6.64-5.62-4.6-9.71,2-3.57,7.15-3.06,9.47-.25a7.74,7.74,0,0,1,2.23,4.58"/><path class="cls-3" d="M334.06,45.75a2,2,0,0,1,.24.39l.24.45.46.88c.31.59.59,1.16.9,1.71.6,1.11,1.2,2.16,1.84,3.12A25.4,25.4,0,0,0,342,57.36a27.49,27.49,0,0,0,2.66,2.12,36.6,36.6,0,0,0,3.2,1.94c1.14.66,2.39,1.23,3.7,1.88.66.31,1.34.61,2,1s1.41.66,2.15,1.06a17.56,17.56,0,0,1-9.38,2.26,18,18,0,0,1-9.79-3.22A17.68,17.68,0,0,1,330,56a17.37,17.37,0,0,1-1-5.07,15.62,15.62,0,0,1,.08-2.56,11.59,11.59,0,0,1,.21-1.27c0-.21.09-.42.15-.64l.21-.69a2,2,0,0,1,2.54-1.39,2.12,2.12,0,0,1,.78.43Z"/><path class="cls-4" d="M97.84,77.48l-9.26,0a1.05,1.05,0,0,1-.76-.32.92.92,0,0,1-.32-.61,1.57,1.57,0,0,1,.06-.45L98.35,44.8a2.06,2.06,0,0,1,2.21-1.61l13.62.05a2.06,2.06,0,0,1,2.2,1.63L127,76.22a1.51,1.51,0,0,1,0,.44.92.92,0,0,1-.32.61,1,1,0,0,1-.76.31l-9.26,0a2.24,2.24,0,0,1-2.2-1.67l-1.21-3.44-12,0-1.24,3.43A2.24,2.24,0,0,1,97.84,77.48Zm12.94-14.6-3.44-10.21-3.52,10.18Z"/><path class="cls-4" d="M168.68,67q0,10.77-13.85,10.73l-20.19-.07a1.32,1.32,0,0,1-.93-.4,1.27,1.27,0,0,1-.39-.93l.11-31.66a1.36,1.36,0,0,1,.4-.93,1.22,1.22,0,0,1,.93-.38l19.7.07q7,0,10.26,2.56c2.19,1.69,3.29,4.23,3.28,7.63v.14a6.49,6.49,0,0,1-1.29,4,5.76,5.76,0,0,1-2.66,2.1,6.17,6.17,0,0,1,3.28,2.58A7.76,7.76,0,0,1,168.68,67ZM146.1,64.43v4.8l7.1,0a1.92,1.92,0,0,0,1.69-.75,2.74,2.74,0,0,0,.57-1.69v0a2.34,2.34,0,0,0-.6-1.62,2.09,2.09,0,0,0-1.64-.69Zm8.1-8.87a2.72,2.72,0,0,0,.52-1.59,2.36,2.36,0,0,0-.51-1.52,1.79,1.79,0,0,0-1.5-.64l-6.56,0,0,4.46,6.57,0A1.76,1.76,0,0,0,154.2,55.56Z"/><path class="cls-4" d="M211.15,57.82l0,5.83a13.39,13.39,0,0,1-2.48,8.21,13.23,13.23,0,0,1-6.44,4.66,28.62,28.62,0,0,1-9.36,1.35,28.16,28.16,0,0,1-9.35-1.42,13.25,13.25,0,0,1-6.41-4.7,13.6,13.6,0,0,1-2.42-8.32l0-5.64q0-7.22,5.11-10.78T193,43.47q8.09,0,13.15,3.63T211.15,57.82ZM187.93,57l0,7.41a3.43,3.43,0,0,0,1.34,2.92,7,7,0,0,0,7.3,0,3.52,3.52,0,0,0,1.36-2.94l0-7.32a3.5,3.5,0,0,0-1.33-3,5.86,5.86,0,0,0-3.65-1,6,6,0,0,0-3.66,1A3.44,3.44,0,0,0,187.93,57Z"/><path class="cls-4" d="M248.8,74.54Q244,78,235.73,78c-5.49,0-9.84-1.21-13-3.57s-4.81-6-4.79-11.05L218,44.92a1.25,1.25,0,0,1,.39-.92,1.28,1.28,0,0,1,.94-.38l10.24,0a1.33,1.33,0,0,1,.93.39,1.26,1.26,0,0,1,.39.92l-.07,19.16a3.62,3.62,0,0,0,1.33,3,6.84,6.84,0,0,0,7.3,0,3.62,3.62,0,0,0,1.36-3L240.84,45a1.21,1.21,0,0,1,.4-.91,1.3,1.3,0,0,1,.93-.38l10.24,0a1.27,1.27,0,0,1,.93.39,1.25,1.25,0,0,1,.39.92l-.07,18.48Q253.63,71,248.8,74.54Z"/><path class="cls-4" d="M261.82,43.77l33.81.12a1.31,1.31,0,0,1,1.31,1.33l0,7.89a1.28,1.28,0,0,1-.4.93,1.22,1.22,0,0,1-.93.38l-10.54,0L285,76.83a1.33,1.33,0,0,1-1.32,1.32l-10.1,0a1.27,1.27,0,0,1-.93-.39,1.31,1.31,0,0,1-.39-.94l.08-22.44-10.53,0A1.33,1.33,0,0,1,260.46,53l0-7.89a1.27,1.27,0,0,1,.39-.93A1.31,1.31,0,0,1,261.82,43.77Z"/><path class="cls-5" d="M97.86,72.44l-9.26,0a1,1,0,0,1-.76-.32.9.9,0,0,1-.32-.61,1.56,1.56,0,0,1,0-.44l10.8-31.27a2,2,0,0,1,2.21-1.61l13.62.05a2,2,0,0,1,2.2,1.62L127,71.17a1.56,1.56,0,0,1,0,.44.9.9,0,0,1-.32.61,1.07,1.07,0,0,1-.76.32l-9.27,0a2.25,2.25,0,0,1-2.2-1.67l-1.21-3.43-12-.05-1.24,3.43A2.26,2.26,0,0,1,97.86,72.44ZM110.8,57.83l-3.45-10.2-3.51,10.18Z"/><path class="cls-5" d="M168.7,61.91q0,10.78-13.86,10.73l-20.18-.07a1.24,1.24,0,0,1-.93-.4,1.27,1.27,0,0,1-.39-.93l.11-31.65a1.24,1.24,0,0,1,.4-.93,1.27,1.27,0,0,1,.93-.39l19.7.07q6.95,0,10.25,2.56c2.2,1.69,3.3,4.23,3.28,7.63v.15a6.34,6.34,0,0,1-1.29,4,5.63,5.63,0,0,1-2.65,2.1,6.23,6.23,0,0,1,3.27,2.58A7.77,7.77,0,0,1,168.7,61.91Zm-22.58-2.53,0,4.8,7.11,0a2,2,0,0,0,1.69-.76,2.72,2.72,0,0,0,.57-1.69v0a2.35,2.35,0,0,0-.61-1.62,2.1,2.1,0,0,0-1.63-.7Zm8.09-8.87a2.59,2.59,0,0,0,.52-1.59,2.28,2.28,0,0,0-.51-1.52,1.82,1.82,0,0,0-1.49-.64l-6.56,0,0,4.46,6.57,0A1.71,1.71,0,0,0,154.21,50.51Z"/><path class="cls-5" d="M211.17,52.78l0,5.83a13.43,13.43,0,0,1-2.48,8.2,13.22,13.22,0,0,1-6.44,4.66,28.09,28.09,0,0,1-9.36,1.35,28.49,28.49,0,0,1-9.36-1.41,13.28,13.28,0,0,1-6.4-4.71,13.54,13.54,0,0,1-2.42-8.32l0-5.64q0-7.22,5.11-10.78T193,38.43q8.08,0,13.14,3.63C209.51,44.46,211.18,48,211.17,52.78Zm-23.23-.88,0,7.41a3.44,3.44,0,0,0,1.33,2.93,6,6,0,0,0,3.65,1,5.83,5.83,0,0,0,3.66-1,3.49,3.49,0,0,0,1.35-2.94l0-7.32A3.5,3.5,0,0,0,196.6,49,5.81,5.81,0,0,0,193,48a5.93,5.93,0,0,0-3.66,1A3.46,3.46,0,0,0,187.94,51.9Z"/><path class="cls-5" d="M248.81,69.49Q244,73,235.74,73t-13-3.58q-4.81-3.56-4.79-11.05L218,39.87a1.26,1.26,0,0,1,.39-.92,1.3,1.3,0,0,1,.93-.38l10.24,0a1.27,1.27,0,0,1,.93.39,1.23,1.23,0,0,1,.39.91l-.07,19.16a3.63,3.63,0,0,0,1.34,3,6.81,6.81,0,0,0,7.3,0,3.64,3.64,0,0,0,1.36-3L240.86,40a1.25,1.25,0,0,1,.39-.92,1.34,1.34,0,0,1,.94-.38l10.24,0a1.27,1.27,0,0,1,.93.39,1.22,1.22,0,0,1,.38.92l-.06,18.48Q253.65,66,248.81,69.49Z"/><path class="cls-5" d="M261.83,38.72l33.81.12A1.35,1.35,0,0,1,297,40.17l0,7.89a1.27,1.27,0,0,1-.39.93,1.29,1.29,0,0,1-.93.39l-10.54,0L285,71.78a1.27,1.27,0,0,1-.39.93,1.31,1.31,0,0,1-.94.39l-10.09,0a1.33,1.33,0,0,1-1.32-1.32l.08-22.45-10.53,0a1.35,1.35,0,0,1-1.32-1.33l0-7.89a1.33,1.33,0,0,1,1.32-1.32Z"/><path class="cls-2" d="M27.32,25.37c-2.67-1.08-5.25,1-6.68,3.09A37.07,37.07,0,0,0,16,38.92,28.8,28.8,0,0,0,15,45.51a8.11,8.11,0,0,1-5.66-1.89C5.23,40.29,4.34,33.87,4.57,29a21.48,21.48,0,0,1,1.16-6C9,24.63,13.26,24,16.5,21.51a9.83,9.83,0,0,0,4-6.6c.21-2.38-1.12-5-3.71-5.25-2.78-.27-5.52,1.9-7.3,3.8a26.07,26.07,0,0,0-4.53,6.82,8,8,0,0,1-1.38-2c-2.55-5-2.26-12-.32-17.18A.86.86,0,0,0,1.64.53C-.49,6.22-.79,14,2.23,19.47a8.67,8.67,0,0,0,2,2.47A24.45,24.45,0,0,0,5.38,41.46,10.86,10.86,0,0,0,15,47.23a20.17,20.17,0,0,0,.21,2.33c1.05,7,6.45,14,14,14.07,1.1,0,1.29-1.7.19-1.7-5.63,0-9.86-4.37-11.69-9.44a17.59,17.59,0,0,1-1-5.4,11.29,11.29,0,0,0,2.74-.82,17,17,0,0,0,7.28-6.92,24.36,24.36,0,0,0,3.44-7.87c.44-2.42-.32-5.11-2.79-6.11m-17-10.31c1.4-1.62,4.2-4.24,6.59-3.63,3.13.8,1.7,5.07.42,6.8a10.22,10.22,0,0,1-6.46,3.87,6.57,6.57,0,0,1-4.53-.73,24.09,24.09,0,0,1,4-6.31M27.17,34.74a27.61,27.61,0,0,1-3.92,6.43,12.67,12.67,0,0,1-6.58,4.11,28.55,28.55,0,0,1,1.71-8.1,67.74,67.74,0,0,1,3-6.54c1.09-2.29,4.85-6,6.79-2.3,1,2-.16,4.57-1,6.4"/></g></g></svg>