<svg xmlns="http://www.w3.org/2000/svg" viewBox="0 0 169.63 142.1"><defs><style>.cls-1{fill:#f9eb1a;}</style></defs><g id="Layer_2" data-name="Layer 2"><g id="Layer_1-2" data-name="Layer 1"><path class="cls-1" d="M169.63,114.74l-.6-.13a19.55,19.55,0,0,1-4.22,7.81A28,28,0,0,1,158,128a46.1,46.1,0,0,1-8.1,3.74,62.27,62.27,0,0,1-8.63,2.39c-11.74,2.42-23.89,2.39-35.79,1.15a170.87,170.87,0,0,1-34.94-7.71A152.08,152.08,0,0,1,54,121a120.54,120.54,0,0,1-15.29-8.49c-2.4-1.59-4.73-3.25-6.92-5-1.12-.87-2.15-1.81-3.21-2.72s-2-1.88-3-2.87a46.05,46.05,0,0,1-5-6.08,26,26,0,0,1-3.2-6.3,13.08,13.08,0,0,1-.65-5.65,10,10,0,0,1,1.77-4.65,17.05,17.05,0,0,1,4.23-4.08,32,32,0,0,1,6.19-3.31,50.81,50.81,0,0,1,7.34-2.35c1.27-.33,2.6-.57,3.9-.84s2.66-.47,4-.63a106.47,106.47,0,0,1,16.63-.8q3.57.1,7.15.41c-7.46,7.9-14.21,20.25-13.8,39l16.67-.37c-.22-9.82,2-17.36,6.78-23.45A36,36,0,0,1,96.39,72.1a7.91,7.91,0,0,0,1.35-.22l6.54-23.42c-1.65-.31-3.17-.62-4.58-1h-.08c-3.16-.73-5.75-1.47-7.84-2.16C84.53,42.55,72,36.48,67.3,26.6,64.59,20.87,65,14.45,68.41,7L53.28,0c-5.57,12.05-5.93,23.39-1.05,33.71A41.37,41.37,0,0,0,60.37,45.1a126.17,126.17,0,0,0-19.83,2.66c-1.66.34-3.32.79-5,1.21s-3.31,1-5,1.53a69.39,69.39,0,0,0-9.82,4.11,50.14,50.14,0,0,0-9.43,6.24,34.34,34.34,0,0,0-7.95,9.51A27.42,27.42,0,0,0,0,83.12,29.75,29.75,0,0,0,2.52,95.4,41.71,41.71,0,0,0,8.43,105a61,61,0,0,0,7.31,7.48c1.27,1.13,2.6,2.16,3.92,3.2s2.67,2,4.05,2.88c2.73,1.87,5.54,3.53,8.39,5.09a133.07,133.07,0,0,0,17.52,7.9,164,164,0,0,0,18.15,5.54,178.4,178.4,0,0,0,37.23,5c12.49.25,25.09-.78,37.13-4.33a66.64,66.64,0,0,0,8.82-3.25,48.33,48.33,0,0,0,8.18-4.66,29.64,29.64,0,0,0,6.77-6.55,20.44,20.44,0,0,0,3.73-8.54"/></g></g></svg>