<svg xmlns="http://www.w3.org/2000/svg" viewBox="0 0 60.09 60.09"><defs><style>.cls-1{fill:#ed3045;}.cls-2{fill:#fff;}.cls-3{fill:#050505;}</style></defs><g id="Layer_2" data-name="Layer 2"><g id="Layer_1-2" data-name="Layer 1"><path class="cls-1" d="M60.09,30A30,30,0,1,1,30,0,30,30,0,0,1,60.09,30"/><path class="cls-2" d="M49.91,18c1.36,4.87-4.46,8.1-9,6.8-4.52-1.93-8.4-7.1-5.82-12.27,2.59-4.53,9-3.88,12-.32A9.79,9.79,0,0,1,49.91,18"/><path class="cls-3" d="M11.65,27.23a2.62,2.62,0,0,1,.3.49l.3.56.58,1.12c.39.74.75,1.47,1.15,2.16.76,1.41,1.51,2.73,2.32,3.94a32.05,32.05,0,0,0,5.32,6.4A34.49,34.49,0,0,0,25,44.58,45,45,0,0,0,29,47c1.45.83,3,1.55,4.68,2.37.83.39,1.69.77,2.57,1.22S38.06,51.46,39,52a22.09,22.09,0,0,1-11.86,2.85,22.74,22.74,0,0,1-12.37-4.06,22.22,22.22,0,0,1-9.55-17,19.35,19.35,0,0,1,.1-3.23c.06-.54.15-1.07.26-1.61.06-.27.12-.54.2-.81L6,27.18a2.58,2.58,0,0,1,3.22-1.75,2.54,2.54,0,0,1,1,.54Z"/></g></g></svg>