<svg xmlns="http://www.w3.org/2000/svg" viewBox="0 0 669.63 65.77"><defs><style>.cls-1{fill:#9e131a;}.cls-2{fill:#ffd00f;}</style></defs><g id="Layer_2" data-name="Layer 2"><g id="Layer_1-2" data-name="Layer 1"><path class="cls-1" d="M82.28,25.07H95.56c3.26,0,5.55.81,7.07,2.33a5.68,5.68,0,0,1,1.66,4.18v.07a6,6,0,0,1-4,5.78c3.14,1,5.14,2.81,5.14,6.32v.08c0,4.44-3.63,7.14-9.81,7.14H82.28Zm11.5,10.32c2.19,0,3.41-.74,3.41-2.26v-.07c0-1.41-1.11-2.22-3.26-2.22H89.27v4.55Zm1,9.81c2.18,0,3.44-.85,3.44-2.37v-.08c0-1.4-1.11-2.33-3.51-2.33H89.27V45.2Z"/><path class="cls-1" d="M108.73,38.09V38c0-7.44,6-13.47,14-13.47s13.91,6,13.91,13.39V38c0,7.44-6,13.47-14,13.47S108.73,45.53,108.73,38.09Zm20.57,0V38a6.73,6.73,0,0,0-6.66-7,6.61,6.61,0,0,0-6.55,6.92V38a6.73,6.73,0,0,0,6.63,7A6.6,6.6,0,0,0,129.3,38.09Z"/><path class="cls-1" d="M140.37,38.09V38c0-7.44,6-13.47,14-13.47s13.92,6,13.92,13.39V38c0,7.44-6,13.47-14,13.47S140.37,45.53,140.37,38.09Zm20.57,0V38a6.73,6.73,0,0,0-6.66-7,6.61,6.61,0,0,0-6.55,6.92V38a6.72,6.72,0,0,0,6.62,7A6.61,6.61,0,0,0,160.94,38.09Z"/><path class="cls-1" d="M172.93,25.07h7.17V35.58L189,25.07h8.51l-9.8,11.13L197.86,51h-8.62l-6.51-9.62-2.63,2.92V51h-7.17Z"/><path class="cls-1" d="M219.43,41.27l-9.84-16.2h8.18l5.33,9.43,5.36-9.43h8l-9.84,16.09V51h-7.22Z"/><path class="cls-1" d="M236.38,38.09V38c0-7.44,6-13.47,14-13.47s13.91,6,13.91,13.39V38c0,7.44-6,13.47-14,13.47S236.38,45.53,236.38,38.09Zm20.57,0V38a6.73,6.73,0,0,0-6.66-7,6.61,6.61,0,0,0-6.55,6.92V38a6.73,6.73,0,0,0,6.63,7A6.6,6.6,0,0,0,257,38.09Z"/><path class="cls-1" d="M268.57,39.61V25.07h7.29V39.46c0,3.74,1.89,5.51,4.77,5.51s4.78-1.7,4.78-5.32V25.07h7.29V39.42c0,8.37-4.78,12-12.14,12S268.57,47.71,268.57,39.61Z"/><path class="cls-1" d="M297.87,25.07h12.25c4,0,6.7,1,8.44,2.81a8.06,8.06,0,0,1,2.29,6V34a8.2,8.2,0,0,1-5.33,8l6.18,9h-8.29l-5.21-7.85h-3.15V51h-7.18ZM309.79,37.5c2.44,0,3.85-1.18,3.85-3.07v-.08c0-2-1.48-3.07-3.89-3.07h-4.7V37.5Z"/><path class="cls-1" d="M334.54,47.12l4-4.77a13.36,13.36,0,0,0,8.39,3.11c1.93,0,3-.67,3-1.78v-.07c0-1.08-.86-1.67-4.37-2.48-5.51-1.26-9.77-2.82-9.77-8.14v-.08c0-4.81,3.81-8.29,10-8.29a16.32,16.32,0,0,1,10.65,3.44l-3.58,5.07a13,13,0,0,0-7.26-2.55c-1.74,0-2.59.74-2.59,1.67v.07c0,1.18.89,1.7,4.48,2.52,6,1.29,9.66,3.21,9.66,8.06V43c0,5.29-4.18,8.43-10.47,8.43A18.09,18.09,0,0,1,334.54,47.12Z"/><path class="cls-1" d="M361.55,25.07h20.83v6.1H368.65v3.92h12.44v5.67H368.65v4.1h13.92V51h-21Z"/><path class="cls-1" d="M396.11,24.88H403l11,26.09h-7.69l-1.89-4.63h-10L392.63,51h-7.55Zm6.29,15.88-2.89-7.37-2.92,7.37Z"/><path class="cls-1" d="M420.49,31.36h-7.77V25.07h22.72v6.29h-7.77V51h-7.18Z"/><path class="cls-1" d="M437,47.12l4-4.77a13.36,13.36,0,0,0,8.4,3.11c1.92,0,3-.67,3-1.78v-.07c0-1.08-.85-1.67-4.37-2.48-5.51-1.26-9.77-2.82-9.77-8.14v-.08c0-4.81,3.81-8.29,10-8.29a16.35,16.35,0,0,1,10.66,3.44l-3.59,5.07a13,13,0,0,0-7.26-2.55c-1.73,0-2.58.74-2.58,1.67v.07c0,1.18.88,1.7,4.47,2.52,6,1.29,9.66,3.21,9.66,8.06V43c0,5.29-4.18,8.43-10.47,8.43A18.09,18.09,0,0,1,437,47.12Z"/><path class="cls-1" d="M475.14,25.07h6.7l10.65,13.69V25.07h7.11V51h-6.29L482.24,36.76V51h-7.1Z"/><path class="cls-1" d="M504.22,38.09V38c0-7.44,6-13.47,14-13.47s13.91,6,13.91,13.39V38c0,7.44-6,13.47-14,13.47S504.22,45.53,504.22,38.09Zm20.57,0V38a6.73,6.73,0,0,0-6.66-7,6.61,6.61,0,0,0-6.55,6.92V38a6.73,6.73,0,0,0,6.63,7A6.6,6.6,0,0,0,524.79,38.09Z"/><path class="cls-1" d="M533.56,25.07h7.59l4.51,15,5-15.06h6.18l5,15.06,4.51-15h7.44l-8.66,26.08h-6.25l-5.22-14.91-5.18,14.91h-6.25Z"/><path class="cls-1" d="M577.26,28.21V25.07h8v3.14L583.1,42.53h-3.7Zm.33,16.47h7.33V51h-7.33Z"/><polygon class="cls-2" points="629.35 44.12 625.78 65.77 638.39 45.76 649.08 65.77 647.43 45.22 664.7 57 651.54 36.72 669.63 35.9 653.19 29.87 666.07 15.35 647.71 23.84 648.8 1.1 640.03 20.55 628.52 0 630.17 22.47 610.71 14.52 626.33 30.69 605.23 33.43 624.41 36.99 607.7 50.42 629.35 44.12"/><polygon class="cls-2" points="24.11 44.12 20.55 65.77 33.16 45.76 43.84 65.77 42.2 45.22 59.46 57 46.31 36.72 64.4 35.9 47.95 29.87 60.83 15.35 42.47 23.84 43.57 1.1 34.8 20.55 23.29 0 24.94 22.47 5.48 14.52 21.1 30.69 0 33.43 19.18 36.99 2.47 50.42 24.11 44.12"/></g></g></svg>