<svg xmlns="http://www.w3.org/2000/svg" xmlns:xlink="http://www.w3.org/1999/xlink" viewBox="0 0 248.53 66.59"><defs><style>.cls-1,.cls-6{fill:none;}.cls-2{fill:#b52439;}.cls-3{clip-path:url(#clip-path);}.cls-4{fill:url(#linear-gradient);}.cls-5{fill:#171515;}.cls-6{stroke:#171515;stroke-miterlimit:10;}.cls-7{fill:#fefefe;}</style><clipPath id="clip-path"><rect class="cls-1" width="248.53" height="58.86" rx="12.23"/></clipPath><linearGradient id="linear-gradient" x1="1277.16" y1="6625.81" x2="1278.16" y2="6625.81" gradientTransform="matrix(248.53, 0, 0, -248.53, -317419.52, 1646773.12)" gradientUnits="userSpaceOnUse"><stop offset="0" stop-color="#f6cb46"/><stop offset="1" stop-color="#df733d"/><stop offset="1" stop-color="#df733d"/></linearGradient></defs><g id="Layer_2" data-name="Layer 2"><g id="Layer_1-2" data-name="Layer 1"><path class="cls-2" d="M236.3,66.59H12.23A12.22,12.22,0,0,1,0,54.37V20A12.23,12.23,0,0,1,12.23,7.73H236.3A12.23,12.23,0,0,1,248.53,20V54.37A12.22,12.22,0,0,1,236.3,66.59"/><g class="cls-3"><rect class="cls-4" width="248.53" height="58.86"/></g><path class="cls-5" d="M47.49,33.63q0,5.4-6.92,5.4H30.47a.68.68,0,0,1-.66-.66V22.53a.65.65,0,0,1,.2-.47.62.62,0,0,1,.46-.19h9.86a8.51,8.51,0,0,1,5.14,1.26,4.49,4.49,0,0,1,1.65,3.81V27a3.16,3.16,0,0,1-.64,2,2.81,2.81,0,0,1-1.32,1.06,3.1,3.1,0,0,1,1.64,1.29A3.85,3.85,0,0,1,47.49,33.63ZM40.22,28a1.34,1.34,0,0,0,.26-.8,1.19,1.19,0,0,0-.26-.76.91.91,0,0,0-.75-.32H36.19v2.23h3.28A.85.85,0,0,0,40.22,28Zm-4,4.45v2.4h3.55a1,1,0,0,0,.85-.38,1.41,1.41,0,0,0,.28-.84v0a1.16,1.16,0,0,0-.31-.81,1,1,0,0,0-.82-.34Z"/><path class="cls-5" d="M68.72,29V31.9A6.76,6.76,0,0,1,67.5,36a6.61,6.61,0,0,1-3.22,2.34,16.22,16.22,0,0,1-9.36,0A6.54,6.54,0,0,1,51.71,36a6.78,6.78,0,0,1-1.23-4.16V29A6.2,6.2,0,0,1,53,23.63a11.18,11.18,0,0,1,6.58-1.79,11.18,11.18,0,0,1,6.58,1.79A6.12,6.12,0,0,1,68.72,29Zm-11.62-.4V32.3a1.72,1.72,0,0,0,.67,1.46,3,3,0,0,0,1.83.51,2.91,2.91,0,0,0,1.83-.52,1.75,1.75,0,0,0,.67-1.47V28.62a1.76,1.76,0,0,0-.67-1.48,3.51,3.51,0,0,0-3.66,0A1.72,1.72,0,0,0,57.1,28.59Z"/><path class="cls-5" d="M90.17,29V31.9a6.45,6.45,0,0,1-4.43,6.46,16.25,16.25,0,0,1-9.37,0A6.63,6.63,0,0,1,73.16,36a6.78,6.78,0,0,1-1.23-4.16V29a6.2,6.2,0,0,1,2.54-5.41,11.2,11.2,0,0,1,6.58-1.79,11.21,11.21,0,0,1,6.59,1.79A6.13,6.13,0,0,1,90.17,29Zm-11.62-.4V32.3a1.73,1.73,0,0,0,.68,1.46,3,3,0,0,0,1.82.51,2.91,2.91,0,0,0,1.83-.52,1.75,1.75,0,0,0,.67-1.47V28.62a1.76,1.76,0,0,0-.67-1.48,3.49,3.49,0,0,0-3.65,0A1.73,1.73,0,0,0,78.55,28.59Z"/><path class="cls-5" d="M112.63,38.17a.57.57,0,0,1,.1.34.55.55,0,0,1-.54.52h-6.32a1.1,1.1,0,0,1-.89-.39l-4.26-5.28v5a.68.68,0,0,1-.66.66H95a.68.68,0,0,1-.66-.66V22.53a.65.65,0,0,1,.2-.47.62.62,0,0,1,.46-.19h5.06a.62.62,0,0,1,.46.19.65.65,0,0,1,.2.47v4.61l3.87-4.86a1.16,1.16,0,0,1,.91-.41h5.91a.55.55,0,0,1,.38.15.54.54,0,0,1,.16.37.52.52,0,0,1-.13.36L106,29.83Z"/><path class="cls-5" d="M152.49,29.93a4.2,4.2,0,0,1,1.7,3.65,4.51,4.51,0,0,1-2.47,4,12.55,12.55,0,0,1-6.58,1.51,11.55,11.55,0,0,1-6.36-1.49,4.35,4.35,0,0,1-2.27-3.68q0-.54.57-.54h5a1.13,1.13,0,0,1,.84.31,3.58,3.58,0,0,0,2.38.62c1.55,0,2.33-.23,2.33-.68,0-.29-.25-.51-.74-.68a16.18,16.18,0,0,0-2.92-.49q-6.93-.8-6.94-5.13a4.6,4.6,0,0,1,2.23-3.95,10.56,10.56,0,0,1,6-1.5,10.31,10.31,0,0,1,6.05,1.62c1.53,1.08,2.3,2.21,2.3,3.41a.47.47,0,0,1-.16.39.58.58,0,0,1-.42.15h-5.28a1.12,1.12,0,0,1-.76-.28,2.62,2.62,0,0,0-1.76-.51q-1.65,0-1.65.66c0,.24.22.43.64.56a16.58,16.58,0,0,0,2.55.42A12.59,12.59,0,0,1,152.49,29.93Z"/><path class="cls-5" d="M165,34.25h9.78a.65.65,0,0,1,.66.66v3.46a.62.62,0,0,1-.19.46.65.65,0,0,1-.47.2H159.32a.65.65,0,0,1-.47-.2.63.63,0,0,1-.2-.46V22.53a.65.65,0,0,1,.2-.47.64.64,0,0,1,.47-.19h15.25a.62.62,0,0,1,.46.19.65.65,0,0,1,.2.47V26a.65.65,0,0,1-.2.47.63.63,0,0,1-.46.2H165v1.54h8.19a.68.68,0,0,1,.66.66V32a.65.65,0,0,1-.2.47.62.62,0,0,1-.46.19H165Z"/><path class="cls-5" d="M183.69,39h-4.64a.52.52,0,0,1-.38-.16.49.49,0,0,1-.16-.31.61.61,0,0,1,0-.22l5.34-15.67a1,1,0,0,1,1.11-.8h6.81a1,1,0,0,1,1.11.8l5.34,15.67a.61.61,0,0,1,0,.22.49.49,0,0,1-.16.31.52.52,0,0,1-.38.16H193.1a1.13,1.13,0,0,1-1.1-.84l-.61-1.71h-6l-.61,1.71A1.13,1.13,0,0,1,183.69,39Zm6.45-7.33-1.74-5.1-1.75,5.1Z"/><path class="cls-5" d="M201.32,21.87h16.91a.64.64,0,0,1,.47.19.65.65,0,0,1,.2.47v3.94a.68.68,0,0,1-.67.67H213V38.37a.62.62,0,0,1-.19.46.67.67,0,0,1-.47.2h-5.05a.65.65,0,0,1-.47-.2.62.62,0,0,1-.19-.46V27.14h-5.27a.68.68,0,0,1-.67-.67V22.53a.65.65,0,0,1,.2-.47A.64.64,0,0,1,201.32,21.87Z"/><path class="cls-6" d="M39.47,28.31H36.19V26.08h3.28a.91.91,0,0,1,.75.32,1.19,1.19,0,0,1,.26.76,1.34,1.34,0,0,1-.26.8A.85.85,0,0,1,39.47,28.31Zm.27,4.1a1,1,0,0,1,.82.34,1.16,1.16,0,0,1,.31.81v0a1.41,1.41,0,0,1-.28.84,1,1,0,0,1-.85.38H36.19v-2.4Zm7.06-1a3.1,3.1,0,0,0-1.64-1.29A2.81,2.81,0,0,0,46.48,29a3.16,3.16,0,0,0,.64-2v-.07a4.49,4.49,0,0,0-1.65-3.81,8.51,8.51,0,0,0-5.14-1.26H30.47a.62.62,0,0,0-.46.19.65.65,0,0,0-.2.47V38.37a.68.68,0,0,0,.66.66h10.1q6.91,0,6.92-5.4A3.85,3.85,0,0,0,46.8,31.37Z"/><path class="cls-6" d="M57.77,27.13a3.51,3.51,0,0,1,3.66,0,1.76,1.76,0,0,1,.67,1.48v3.66a1.75,1.75,0,0,1-.67,1.47,2.91,2.91,0,0,1-1.83.52,3,3,0,0,1-1.83-.51,1.71,1.71,0,0,1-.67-1.46V28.59A1.72,1.72,0,0,1,57.77,27.13Zm8.41-3.5a11.18,11.18,0,0,0-6.58-1.79A11.18,11.18,0,0,0,53,23.63,6.2,6.2,0,0,0,50.48,29v2.82A6.78,6.78,0,0,0,51.71,36a6.54,6.54,0,0,0,3.21,2.34,16.22,16.22,0,0,0,9.36,0A6.61,6.61,0,0,0,67.5,36a6.75,6.75,0,0,0,1.22-4.11V29A6.12,6.12,0,0,0,66.18,23.63Z"/><path class="cls-6" d="M79.23,27.13a2.94,2.94,0,0,1,1.82-.51,3,3,0,0,1,1.83.52,1.76,1.76,0,0,1,.67,1.48v3.66a1.75,1.75,0,0,1-.67,1.47,2.91,2.91,0,0,1-1.83.52,2.94,2.94,0,0,1-1.82-.51,1.72,1.72,0,0,1-.68-1.46V28.59A1.73,1.73,0,0,1,79.23,27.13Zm8.41-3.5a11.21,11.21,0,0,0-6.59-1.79,11.2,11.2,0,0,0-6.58,1.79A6.2,6.2,0,0,0,71.93,29v2.82A6.78,6.78,0,0,0,73.16,36a6.63,6.63,0,0,0,3.21,2.34,16.25,16.25,0,0,0,9.37,0,6.44,6.44,0,0,0,4.43-6.45V29A6.13,6.13,0,0,0,87.64,23.63Z"/><path class="cls-6" d="M106,29.83l5.81-7.08a.52.52,0,0,0,.13-.36.54.54,0,0,0-.16-.37.55.55,0,0,0-.38-.15H105.5a1.19,1.19,0,0,0-.91.41l-3.87,4.86V22.53a.65.65,0,0,0-.2-.47.64.64,0,0,0-.47-.19H95a.62.62,0,0,0-.46.19.65.65,0,0,0-.2.47V38.37A.68.68,0,0,0,95,39h5a.65.65,0,0,0,.47-.2.63.63,0,0,0,.2-.46v-5L105,38.64a1.1,1.1,0,0,0,.89.39h6.32a.49.49,0,0,0,.38-.16.48.48,0,0,0,.16-.36.57.57,0,0,0-.1-.34Z"/><path class="cls-6" d="M146.76,28.26a16.58,16.58,0,0,1-2.55-.42c-.42-.13-.64-.32-.64-.55,0-.45.55-.67,1.65-.67a2.62,2.62,0,0,1,1.76.51,1.12,1.12,0,0,0,.76.28H153a.59.59,0,0,0,.43-.15.46.46,0,0,0,.16-.38c0-1.2-.77-2.34-2.3-3.42a10.31,10.31,0,0,0-6.05-1.62,10.48,10.48,0,0,0-6,1.51,4.57,4.57,0,0,0-2.23,3.94q0,4.34,6.94,5.14a16.47,16.47,0,0,1,2.92.48c.49.17.73.39.73.67,0,.46-.77.69-2.32.69a3.56,3.56,0,0,1-2.38-.62,1.18,1.18,0,0,0-.84-.3h-5c-.38,0-.57.17-.57.53a4.35,4.35,0,0,0,2.27,3.68,11.46,11.46,0,0,0,6.36,1.49,12.55,12.55,0,0,0,6.58-1.51,4.51,4.51,0,0,0,2.47-4,4.2,4.2,0,0,0-1.7-3.65A12.59,12.59,0,0,0,146.76,28.26Z"/><path class="cls-6" d="M165,32.7h8.19a.62.62,0,0,0,.46-.19.65.65,0,0,0,.2-.47V28.85a.68.68,0,0,0-.66-.66H165V26.65h9.54a.63.63,0,0,0,.46-.2.65.65,0,0,0,.2-.47V22.53a.65.65,0,0,0-.2-.47.62.62,0,0,0-.46-.19H159.32a.64.64,0,0,0-.47.19.65.65,0,0,0-.2.47V38.37a.63.63,0,0,0,.2.46.65.65,0,0,0,.47.2h15.49a.65.65,0,0,0,.47-.2.62.62,0,0,0,.19-.46V34.91a.65.65,0,0,0-.66-.66H165Z"/><path class="cls-6" d="M186.65,31.7l1.74-5.1,1.75,5.1Zm-1.86,6.49.61-1.71h6l.61,1.71a1.13,1.13,0,0,0,1.1.84h4.64a.52.52,0,0,0,.38-.16.49.49,0,0,0,.16-.31.65.65,0,0,0,0-.22l-5.34-15.67a1,1,0,0,0-1.11-.8H185a1,1,0,0,0-1.11.8l-5.34,15.67a.65.65,0,0,0,0,.22.49.49,0,0,0,.16.31.52.52,0,0,0,.38.16h4.64A1.13,1.13,0,0,0,184.79,38.19Z"/><path class="cls-6" d="M200.85,22.06a.65.65,0,0,0-.2.47v3.94a.63.63,0,0,0,.2.47.65.65,0,0,0,.47.2h5.27V38.37a.62.62,0,0,0,.19.46.65.65,0,0,0,.47.2h5.05a.67.67,0,0,0,.47-.2.62.62,0,0,0,.19-.46V27.14h5.27a.65.65,0,0,0,.47-.2.63.63,0,0,0,.19-.47V22.53a.65.65,0,0,0-.66-.66H201.32A.64.64,0,0,0,200.85,22.06Z"/><path class="cls-7" d="M47.49,30.1q0,5.4-6.92,5.4H30.47a.68.68,0,0,1-.66-.66V19a.65.65,0,0,1,.2-.47.63.63,0,0,1,.46-.2h9.86a8.51,8.51,0,0,1,5.14,1.27,4.49,4.49,0,0,1,1.65,3.81v.07a3.16,3.16,0,0,1-.64,2,2.81,2.81,0,0,1-1.32,1.06,3.05,3.05,0,0,1,1.64,1.29A3.85,3.85,0,0,1,47.49,30.1Zm-7.27-5.67a1.34,1.34,0,0,0,.26-.8,1.19,1.19,0,0,0-.26-.76.91.91,0,0,0-.75-.32H36.19v2.23h3.28A.88.88,0,0,0,40.22,24.43Zm-4,4.45v2.4h3.55a1,1,0,0,0,.85-.38,1.42,1.42,0,0,0,.28-.85v0a1.16,1.16,0,0,0-.31-.81,1,1,0,0,0-.82-.34Z"/><path class="cls-7" d="M68.72,25.46v2.91a6.76,6.76,0,0,1-1.22,4.12,6.61,6.61,0,0,1-3.22,2.34,16.22,16.22,0,0,1-9.36,0,6.54,6.54,0,0,1-3.21-2.34,6.78,6.78,0,0,1-1.23-4.16V25.51A6.2,6.2,0,0,1,53,20.1a11.18,11.18,0,0,1,6.58-1.79,11.18,11.18,0,0,1,6.58,1.79A6.12,6.12,0,0,1,68.72,25.46Zm-11.62-.4v3.71a1.72,1.72,0,0,0,.67,1.46,3,3,0,0,0,1.83.51,2.91,2.91,0,0,0,1.83-.52,1.75,1.75,0,0,0,.67-1.47V25.09a1.76,1.76,0,0,0-.67-1.48,3.51,3.51,0,0,0-3.66,0A1.72,1.72,0,0,0,57.1,25.06Z"/><path class="cls-7" d="M90.17,25.46v2.91a6.45,6.45,0,0,1-4.43,6.46,16.25,16.25,0,0,1-9.37,0,6.63,6.63,0,0,1-3.21-2.34,6.78,6.78,0,0,1-1.23-4.16V25.51a6.2,6.2,0,0,1,2.54-5.41,11.2,11.2,0,0,1,6.58-1.79,11.21,11.21,0,0,1,6.59,1.79A6.13,6.13,0,0,1,90.17,25.46Zm-11.62-.4v3.71a1.73,1.73,0,0,0,.68,1.46,3,3,0,0,0,1.82.51,2.91,2.91,0,0,0,1.83-.52,1.75,1.75,0,0,0,.67-1.47V25.09a1.76,1.76,0,0,0-.67-1.48,3.49,3.49,0,0,0-3.65,0A1.73,1.73,0,0,0,78.55,25.06Z"/><path class="cls-7" d="M112.63,34.64a.57.57,0,0,1,.1.34.55.55,0,0,1-.54.52h-6.32a1.1,1.1,0,0,1-.89-.39l-4.26-5.28v5a.68.68,0,0,1-.66.66H95a.68.68,0,0,1-.66-.66V19a.65.65,0,0,1,.2-.47.63.63,0,0,1,.46-.2h5.06a.63.63,0,0,1,.46.2.65.65,0,0,1,.2.47v4.61l3.87-4.86a1.17,1.17,0,0,1,.91-.42h5.91a.57.57,0,0,1,.38.16.54.54,0,0,1,.16.37.52.52,0,0,1-.13.36L106,26.3Z"/><path class="cls-7" d="M152.49,26.39a4.23,4.23,0,0,1,1.7,3.66,4.51,4.51,0,0,1-2.47,4,12.55,12.55,0,0,1-6.58,1.51A11.55,11.55,0,0,1,138.78,34a4.35,4.35,0,0,1-2.27-3.68q0-.54.57-.54h5a1.13,1.13,0,0,1,.84.31,3.58,3.58,0,0,0,2.38.62c1.55,0,2.33-.23,2.33-.69,0-.28-.25-.5-.74-.67a16.18,16.18,0,0,0-2.92-.49q-6.93-.8-6.94-5.13a4.6,4.6,0,0,1,2.23-4,10.56,10.56,0,0,1,6-1.5,10.31,10.31,0,0,1,6.05,1.62c1.53,1.08,2.3,2.21,2.3,3.41a.47.47,0,0,1-.16.39.58.58,0,0,1-.42.15h-5.28a1.12,1.12,0,0,1-.76-.28,2.62,2.62,0,0,0-1.76-.51q-1.65,0-1.65.66c0,.24.22.43.64.56a16.58,16.58,0,0,0,2.55.42A12.73,12.73,0,0,1,152.49,26.39Z"/><path class="cls-7" d="M165,30.72h9.78a.65.65,0,0,1,.66.66v3.46a.62.62,0,0,1-.19.46.65.65,0,0,1-.47.2H159.32a.65.65,0,0,1-.47-.2.63.63,0,0,1-.2-.46V19a.68.68,0,0,1,.67-.67h15.25a.63.63,0,0,1,.46.2.65.65,0,0,1,.2.47v3.45a.65.65,0,0,1-.2.47.63.63,0,0,1-.46.2H165v1.54h8.19a.68.68,0,0,1,.66.66v3.19a.65.65,0,0,1-.2.47.62.62,0,0,1-.46.19H165Z"/><path class="cls-7" d="M183.69,35.5h-4.64a.52.52,0,0,1-.38-.16.49.49,0,0,1-.16-.31.61.61,0,0,1,0-.22l5.34-15.67a1,1,0,0,1,1.11-.81h6.81a1,1,0,0,1,1.11.81l5.34,15.67a.61.61,0,0,1,0,.22.49.49,0,0,1-.16.31.52.52,0,0,1-.38.16H193.1a1.13,1.13,0,0,1-1.1-.84L191.39,33h-6l-.61,1.71A1.13,1.13,0,0,1,183.69,35.5Zm6.45-7.33-1.74-5.1-1.75,5.1Z"/><path class="cls-7" d="M201.32,18.33h16.91a.68.68,0,0,1,.67.67v3.94a.68.68,0,0,1-.67.67H213V34.84a.62.62,0,0,1-.19.46.67.67,0,0,1-.47.2h-5.05a.65.65,0,0,1-.47-.2.62.62,0,0,1-.19-.46V23.61h-5.27a.68.68,0,0,1-.67-.67V19a.68.68,0,0,1,.67-.67Z"/><path class="cls-6" d="M39.47,24.78H36.19V22.55h3.28a.91.91,0,0,1,.75.32,1.19,1.19,0,0,1,.26.76,1.34,1.34,0,0,1-.26.8A.85.85,0,0,1,39.47,24.78Zm.27,4.1a1,1,0,0,1,.82.34,1.16,1.16,0,0,1,.31.81v0a1.41,1.41,0,0,1-.28.84,1,1,0,0,1-.85.38H36.19v-2.4Zm7.06-1a3.1,3.1,0,0,0-1.64-1.29,2.81,2.81,0,0,0,1.32-1.06,3.16,3.16,0,0,0,.64-2v-.07a4.49,4.49,0,0,0-1.65-3.81,8.51,8.51,0,0,0-5.14-1.27H30.47a.63.63,0,0,0-.46.2.65.65,0,0,0-.2.47V34.84a.68.68,0,0,0,.66.66h10.1q6.91,0,6.92-5.4A3.85,3.85,0,0,0,46.8,27.84Z"/><path class="cls-6" d="M57.77,23.6a3.51,3.51,0,0,1,3.66,0,1.75,1.75,0,0,1,.67,1.47v3.67a1.75,1.75,0,0,1-.67,1.47,2.91,2.91,0,0,1-1.83.52,3,3,0,0,1-1.83-.51,1.71,1.71,0,0,1-.67-1.46V25.06A1.72,1.72,0,0,1,57.77,23.6Zm8.41-3.5a11.18,11.18,0,0,0-6.58-1.79A11.18,11.18,0,0,0,53,20.1a6.2,6.2,0,0,0-2.54,5.41v2.82a6.78,6.78,0,0,0,1.23,4.16,6.54,6.54,0,0,0,3.21,2.34,16.22,16.22,0,0,0,9.36,0,6.61,6.61,0,0,0,3.22-2.34,6.75,6.75,0,0,0,1.22-4.11V25.46A6.12,6.12,0,0,0,66.18,20.1Z"/><path class="cls-6" d="M79.23,23.6a2.94,2.94,0,0,1,1.82-.51,3,3,0,0,1,1.83.52,1.75,1.75,0,0,1,.67,1.47v3.67a1.75,1.75,0,0,1-.67,1.47,2.91,2.91,0,0,1-1.83.52,2.94,2.94,0,0,1-1.82-.51,1.72,1.72,0,0,1-.68-1.46V25.06A1.73,1.73,0,0,1,79.23,23.6Zm8.41-3.5a11.21,11.21,0,0,0-6.59-1.79,11.2,11.2,0,0,0-6.58,1.79,6.2,6.2,0,0,0-2.54,5.41v2.82a6.78,6.78,0,0,0,1.23,4.16,6.63,6.63,0,0,0,3.21,2.34,16.25,16.25,0,0,0,9.37,0,6.44,6.44,0,0,0,4.43-6.45V25.46A6.13,6.13,0,0,0,87.64,20.1Z"/><path class="cls-6" d="M106,26.3l5.81-7.08a.52.52,0,0,0,.13-.36.54.54,0,0,0-.16-.37.57.57,0,0,0-.38-.16H105.5a1.2,1.2,0,0,0-.91.42l-3.87,4.86V19a.68.68,0,0,0-.67-.67H95a.63.63,0,0,0-.46.2.65.65,0,0,0-.2.47V34.84a.68.68,0,0,0,.66.66h5a.65.65,0,0,0,.47-.2.63.63,0,0,0,.2-.46v-5L105,35.11a1.1,1.1,0,0,0,.89.39h6.32a.55.55,0,0,0,.54-.52.57.57,0,0,0-.1-.34Z"/><path class="cls-6" d="M146.76,24.73a16.58,16.58,0,0,1-2.55-.42c-.42-.13-.64-.32-.64-.56q0-.66,1.65-.66a2.62,2.62,0,0,1,1.76.51,1.12,1.12,0,0,0,.76.28H153a.59.59,0,0,0,.43-.15.47.47,0,0,0,.16-.39c0-1.19-.77-2.33-2.3-3.41a10.31,10.31,0,0,0-6.05-1.62,10.56,10.56,0,0,0-6,1.5,4.6,4.6,0,0,0-2.23,4q0,4.33,6.94,5.14a15.56,15.56,0,0,1,2.92.48c.49.17.73.39.73.67,0,.46-.77.69-2.32.69a3.56,3.56,0,0,1-2.38-.62,1.19,1.19,0,0,0-.84-.31h-5q-.57,0-.57.54A4.35,4.35,0,0,0,138.78,34a11.46,11.46,0,0,0,6.36,1.49A12.55,12.55,0,0,0,151.72,34a4.51,4.51,0,0,0,2.47-4,4.2,4.2,0,0,0-1.7-3.65A12.59,12.59,0,0,0,146.76,24.73Z"/><path class="cls-6" d="M165,29.17h8.19a.62.62,0,0,0,.46-.19.65.65,0,0,0,.2-.47V25.32a.68.68,0,0,0-.66-.66H165V23.12h9.54a.63.63,0,0,0,.46-.2.65.65,0,0,0,.2-.47V19a.65.65,0,0,0-.2-.47.63.63,0,0,0-.46-.2H159.32a.68.68,0,0,0-.67.67V34.84a.63.63,0,0,0,.2.46.65.65,0,0,0,.47.2h15.49a.65.65,0,0,0,.47-.2.62.62,0,0,0,.19-.46V31.38a.65.65,0,0,0-.66-.66H165Z"/><path class="cls-6" d="M186.65,28.17l1.74-5.1,1.75,5.1Zm-1.86,6.49L185.4,33h6l.61,1.71a1.13,1.13,0,0,0,1.1.84h4.64a.52.52,0,0,0,.38-.16.49.49,0,0,0,.16-.31.65.65,0,0,0,0-.22l-5.34-15.67a1,1,0,0,0-1.11-.8H185a1,1,0,0,0-1.11.8l-5.34,15.67a.65.65,0,0,0,0,.22.49.49,0,0,0,.16.31.52.52,0,0,0,.38.16h4.64A1.13,1.13,0,0,0,184.79,34.66Z"/><path class="cls-6" d="M200.85,18.53a.65.65,0,0,0-.2.47v3.94a.63.63,0,0,0,.2.47.65.65,0,0,0,.47.2h5.27V34.84a.62.62,0,0,0,.19.46.65.65,0,0,0,.47.2h5.05a.67.67,0,0,0,.47-.2.62.62,0,0,0,.19-.46V23.61h5.27a.65.65,0,0,0,.47-.2.63.63,0,0,0,.19-.47V19a.65.65,0,0,0-.66-.66H201.32A.64.64,0,0,0,200.85,18.53Z"/></g></g></svg>