<svg xmlns="http://www.w3.org/2000/svg" xmlns:xlink="http://www.w3.org/1999/xlink" viewBox="0 0 248.14 66.49"><defs><style>.cls-1,.cls-7{fill:none;}.cls-2{fill:#601f58;}.cls-3{clip-path:url(#clip-path);}.cls-4{fill:url(#linear-gradient);}.cls-5{fill:#171515;}.cls-6{fill:#fefefe;}.cls-7{stroke:#171515;stroke-miterlimit:10;}</style><clipPath id="clip-path"><rect class="cls-1" width="248.14" height="58.77" rx="12.23"/></clipPath><linearGradient id="linear-gradient" x1="2175.99" y1="5874.8" x2="2176.99" y2="5874.8" gradientTransform="matrix(248.14, 0, 0, -248.14, -539952.71, 1457806.08)" gradientUnits="userSpaceOnUse"><stop offset="0" stop-color="#cfd958"/><stop offset="1" stop-color="#63b257"/></linearGradient></defs><g id="Layer_2" data-name="Layer 2"><g id="Layer_1-2" data-name="Layer 1"><path class="cls-2" d="M235.91,66.49H12.23A12.24,12.24,0,0,1,0,54.26V20A12.24,12.24,0,0,1,12.23,7.72H235.91A12.23,12.23,0,0,1,248.14,20V54.26a12.23,12.23,0,0,1-12.23,12.23"/><g class="cls-3"><rect class="cls-4" width="248.14" height="58.77"/></g><path class="cls-5" d="M47.41,33.58q0,5.39-6.9,5.39H30.43a.65.65,0,0,1-.47-.2.63.63,0,0,1-.2-.46V22.49A.63.63,0,0,1,30,22a.65.65,0,0,1,.47-.2h9.84a8.44,8.44,0,0,1,5.12,1.26,4.47,4.47,0,0,1,1.66,3.81V27a3.2,3.2,0,0,1-.64,2A2.84,2.84,0,0,1,45.09,30a3.19,3.19,0,0,1,1.64,1.29A3.84,3.84,0,0,1,47.41,33.58Zm-7.25-5.67a1.3,1.3,0,0,0,.25-.79,1.16,1.16,0,0,0-.25-.76.92.92,0,0,0-.75-.32H36.13v2.23h3.28A.87.87,0,0,0,40.16,27.91Zm-4,4.45v2.4h3.55a1,1,0,0,0,.84-.38,1.4,1.4,0,0,0,.28-.85v0a1.2,1.2,0,0,0-.3-.81,1.05,1.05,0,0,0-.82-.34Z"/><path class="cls-5" d="M68.61,28.94v2.91a6.44,6.44,0,0,1-4.43,6.45,16.18,16.18,0,0,1-9.35,0A6.63,6.63,0,0,1,51.62,36a6.81,6.81,0,0,1-1.22-4.15V29a6.18,6.18,0,0,1,2.53-5.39,11.1,11.1,0,0,1,6.58-1.79,11.09,11.09,0,0,1,6.57,1.79A6.1,6.1,0,0,1,68.61,28.94ZM57,28.55v3.7a1.72,1.72,0,0,0,.67,1.46,3.49,3.49,0,0,0,3.65,0A1.75,1.75,0,0,0,62,32.23V28.57a1.75,1.75,0,0,0-.67-1.47,2.89,2.89,0,0,0-1.82-.52,3,3,0,0,0-1.83.51A1.71,1.71,0,0,0,57,28.55Z"/><path class="cls-5" d="M90,28.94v2.91A6.75,6.75,0,0,1,88.81,36,6.63,6.63,0,0,1,85.6,38.3a16.18,16.18,0,0,1-9.35,0A6.63,6.63,0,0,1,73,36a6.81,6.81,0,0,1-1.22-4.15V29a6.15,6.15,0,0,1,2.53-5.39,11.1,11.1,0,0,1,6.58-1.79A11.09,11.09,0,0,1,87.5,23.6,6.1,6.1,0,0,1,90,28.94Zm-11.6-.39v3.7a1.72,1.72,0,0,0,.67,1.46,3.49,3.49,0,0,0,3.65,0,1.75,1.75,0,0,0,.67-1.47V28.57a1.75,1.75,0,0,0-.67-1.47,2.89,2.89,0,0,0-1.82-.52,3,3,0,0,0-1.83.51A1.71,1.71,0,0,0,78.43,28.55Z"/><path class="cls-5" d="M112.46,38.11a.64.64,0,0,1,.09.34.5.5,0,0,1-.16.36A.52.52,0,0,1,112,39H105.7a1.06,1.06,0,0,1-.88-.39l-4.26-5.27v5a.68.68,0,0,1-.66.66h-5a.65.65,0,0,1-.47-.2.63.63,0,0,1-.2-.46V22.49a.63.63,0,0,1,.2-.46.65.65,0,0,1,.47-.2h5a.68.68,0,0,1,.66.66v4.6l3.87-4.84a1.14,1.14,0,0,1,.9-.42h5.9a.49.49,0,0,1,.38.16.5.5,0,0,1,.16.37.53.53,0,0,1-.12.35l-5.8,7.08Z"/><path class="cls-5" d="M152.25,29.88a4.2,4.2,0,0,1,1.7,3.65,4.53,4.53,0,0,1-2.47,3.95A12.47,12.47,0,0,1,144.92,39a11.55,11.55,0,0,1-6.36-1.49,4.32,4.32,0,0,1-2.26-3.67.49.49,0,0,1,.56-.54h5a1.16,1.16,0,0,1,.83.3,3.52,3.52,0,0,0,2.38.63c1.55,0,2.32-.23,2.32-.69,0-.28-.24-.51-.73-.67a16.18,16.18,0,0,0-2.92-.49q-6.91-.79-6.92-5.13a4.56,4.56,0,0,1,2.22-3.93,10.56,10.56,0,0,1,6-1.5,10.26,10.26,0,0,1,6,1.61c1.53,1.08,2.3,2.21,2.3,3.41a.5.5,0,0,1-.16.39.61.61,0,0,1-.43.15h-5.26a1.15,1.15,0,0,1-.76-.28,2.62,2.62,0,0,0-1.76-.51c-1.1,0-1.64.22-1.64.66,0,.24.21.42.63.56a17,17,0,0,0,2.55.41A12.67,12.67,0,0,1,152.25,29.88Z"/><path class="cls-5" d="M164.77,34.19h9.77a.68.68,0,0,1,.66.66v3.46a.68.68,0,0,1-.66.66H159.06a.68.68,0,0,1-.66-.66V22.49a.68.68,0,0,1,.66-.66h15.23a.65.65,0,0,1,.47.2.62.62,0,0,1,.19.46v3.45a.65.65,0,0,1-.66.66h-9.52v1.55h8.17a.64.64,0,0,1,.47.19.65.65,0,0,1,.2.47V32a.67.67,0,0,1-.2.47.64.64,0,0,1-.47.19h-8.17Z"/><path class="cls-5" d="M183.4,39h-4.63a.55.55,0,0,1-.38-.16.49.49,0,0,1-.16-.31.61.61,0,0,1,0-.22l5.33-15.64a1,1,0,0,1,1.1-.81h6.81a1,1,0,0,1,1.1.81l5.34,15.64a1.09,1.09,0,0,1,0,.22.45.45,0,0,1-.16.31.53.53,0,0,1-.38.16H192.8a1.13,1.13,0,0,1-1.1-.84l-.62-1.71h-6l-.61,1.71A1.13,1.13,0,0,1,183.4,39Zm6.44-7.32-1.74-5.09-1.74,5.09Z"/><path class="cls-5" d="M201,21.83h16.89a.68.68,0,0,1,.66.66v3.94a.65.65,0,0,1-.2.47.62.62,0,0,1-.46.19h-5.26V38.31a.63.63,0,0,1-.2.46.65.65,0,0,1-.47.2h-5a.68.68,0,0,1-.66-.66V27.09H201a.65.65,0,0,1-.66-.66V22.49a.62.62,0,0,1,.19-.46A.65.65,0,0,1,201,21.83Z"/><path class="cls-6" d="M47.41,30.06q0,5.39-6.9,5.38H30.43a.64.64,0,0,1-.47-.19.65.65,0,0,1-.2-.47V19a.65.65,0,0,1,.2-.47.64.64,0,0,1,.47-.19h9.84a8.44,8.44,0,0,1,5.12,1.26,4.46,4.46,0,0,1,1.66,3.8v.08a3.15,3.15,0,0,1-.64,2,2.81,2.81,0,0,1-1.32,1.06,3.12,3.12,0,0,1,1.64,1.28A3.87,3.87,0,0,1,47.41,30.06Zm-7.25-5.67a1.33,1.33,0,0,0,.25-.8,1.15,1.15,0,0,0-.25-.75.9.9,0,0,0-.75-.32H36.13v2.22h3.28A.86.86,0,0,0,40.16,24.39Zm-4,4.44v2.4h3.55a1,1,0,0,0,.84-.38A1.35,1.35,0,0,0,40.8,30v0a1.15,1.15,0,0,0-.3-.8,1.06,1.06,0,0,0-.82-.35Z"/><path class="cls-6" d="M68.61,25.42v2.91a6.42,6.42,0,0,1-4.43,6.44,14,14,0,0,1-4.67.7,14,14,0,0,1-4.68-.7,6.68,6.68,0,0,1-3.21-2.33,6.84,6.84,0,0,1-1.22-4.16V25.47a6.2,6.2,0,0,1,2.53-5.4,11.18,11.18,0,0,1,6.58-1.79,11.16,11.16,0,0,1,6.57,1.79A6.13,6.13,0,0,1,68.61,25.42ZM57,25v3.71a1.7,1.7,0,0,0,.67,1.45,3,3,0,0,0,1.83.51,2.89,2.89,0,0,0,1.82-.52A1.73,1.73,0,0,0,62,28.7V25.05a1.73,1.73,0,0,0-.67-1.47,2.89,2.89,0,0,0-1.82-.52,3,3,0,0,0-1.83.5A1.72,1.72,0,0,0,57,25Z"/><path class="cls-6" d="M90,25.42v2.91a6.75,6.75,0,0,1-1.22,4.11,6.68,6.68,0,0,1-3.21,2.33,16,16,0,0,1-9.35,0A6.68,6.68,0,0,1,73,32.44a6.84,6.84,0,0,1-1.22-4.16V25.47a6.17,6.17,0,0,1,2.53-5.4,11.18,11.18,0,0,1,6.58-1.79,11.16,11.16,0,0,1,6.57,1.79A6.13,6.13,0,0,1,90,25.42ZM78.43,25v3.71a1.7,1.7,0,0,0,.67,1.45,3,3,0,0,0,1.83.51,2.89,2.89,0,0,0,1.82-.52,1.73,1.73,0,0,0,.67-1.47V25.05a1.73,1.73,0,0,0-.67-1.47,2.89,2.89,0,0,0-1.82-.52,3,3,0,0,0-1.83.5A1.72,1.72,0,0,0,78.43,25Z"/><path class="cls-6" d="M112.46,34.59a.62.62,0,0,1,.09.34.46.46,0,0,1-.16.35.49.49,0,0,1-.37.16H105.7a1.06,1.06,0,0,1-.88-.39l-4.26-5.26v5a.65.65,0,0,1-.2.47.62.62,0,0,1-.46.19h-5a.64.64,0,0,1-.47-.19.65.65,0,0,1-.2-.47V19a.65.65,0,0,1,.2-.47.64.64,0,0,1,.47-.19h5a.62.62,0,0,1,.46.19.65.65,0,0,1,.2.47v4.6l3.87-4.85a1.16,1.16,0,0,1,.9-.41h5.9a.49.49,0,0,1,.38.16.46.46,0,0,1,.16.36.56.56,0,0,1-.12.36l-5.8,7.07Z"/><path class="cls-6" d="M152.25,26.35A4.22,4.22,0,0,1,154,30,4.5,4.5,0,0,1,151.48,34a12.47,12.47,0,0,1-6.56,1.52A11.55,11.55,0,0,1,138.56,34a4.34,4.34,0,0,1-2.26-3.68c0-.35.19-.53.56-.53h5a1.16,1.16,0,0,1,.83.3,3.52,3.52,0,0,0,2.38.62c1.55,0,2.32-.23,2.32-.68,0-.29-.24-.51-.73-.68a17.49,17.49,0,0,0-2.92-.48q-6.91-.81-6.92-5.13a4.57,4.57,0,0,1,2.22-3.94,10.56,10.56,0,0,1,6-1.5,10.26,10.26,0,0,1,6,1.62c1.53,1.07,2.3,2.21,2.3,3.41a.5.5,0,0,1-.16.39.65.65,0,0,1-.43.14h-5.26a1.1,1.1,0,0,1-.76-.28,2.68,2.68,0,0,0-1.76-.5c-1.1,0-1.64.22-1.64.66,0,.23.21.42.63.55a16.58,16.58,0,0,0,2.55.42A12.68,12.68,0,0,1,152.25,26.35Z"/><path class="cls-6" d="M164.77,30.67h9.77a.62.62,0,0,1,.46.19.67.67,0,0,1,.2.47v3.45a.65.65,0,0,1-.2.47.62.62,0,0,1-.46.19H159.06a.62.62,0,0,1-.46-.19.65.65,0,0,1-.2-.47V19a.65.65,0,0,1,.2-.47.62.62,0,0,1,.46-.19h15.23A.65.65,0,0,1,175,19v3.45a.67.67,0,0,1-.66.66h-9.52v1.54h8.17a.65.65,0,0,1,.47.2.63.63,0,0,1,.2.46v3.19a.63.63,0,0,1-.2.46.65.65,0,0,1-.47.2h-8.17Z"/><path class="cls-6" d="M183.4,35.44h-4.63a.51.51,0,0,1-.38-.16.45.45,0,0,1-.16-.3.61.61,0,0,1,0-.22l5.33-15.65a1,1,0,0,1,1.1-.8h6.81a1,1,0,0,1,1.1.8l5.34,15.65a1.09,1.09,0,0,1,0,.22.41.41,0,0,1-.16.3.49.49,0,0,1-.38.16H192.8a1.12,1.12,0,0,1-1.1-.83l-.62-1.71h-6l-.61,1.71A1.12,1.12,0,0,1,183.4,35.44Zm6.44-7.32L188.1,23l-1.74,5.09Z"/><path class="cls-6" d="M201,18.31h16.89a.62.62,0,0,1,.46.19.65.65,0,0,1,.2.47v3.94a.68.68,0,0,1-.66.66h-5.26V34.78a.65.65,0,0,1-.2.47.64.64,0,0,1-.47.19h-5a.62.62,0,0,1-.46-.19.65.65,0,0,1-.2-.47V23.57H201a.65.65,0,0,1-.47-.2.62.62,0,0,1-.19-.46V19a.65.65,0,0,1,.66-.66Z"/><path class="cls-7" d="M39.1,25.25H35.82V23H39.1a.9.9,0,0,1,.74.31,1.21,1.21,0,0,1,.26.76,1.34,1.34,0,0,1-.26.8A.85.85,0,0,1,39.1,25.25Zm.27,4.09a1.08,1.08,0,0,1,.82.34,1.2,1.2,0,0,1,.3.81v0a1.35,1.35,0,0,1-.28.84,1,1,0,0,1-.84.38H35.82v-2.4Zm7.05-1A3.12,3.12,0,0,0,44.78,27,2.91,2.91,0,0,0,46.1,26a3.21,3.21,0,0,0,.63-2v-.08a4.48,4.48,0,0,0-1.65-3.8A8.46,8.46,0,0,0,40,18.82H30.11a.62.62,0,0,0-.46.19.65.65,0,0,0-.2.47V35.29a.63.63,0,0,0,.2.46.59.59,0,0,0,.46.2H40.2q6.9,0,6.9-5.38A3.94,3.94,0,0,0,46.42,28.3Z"/><path class="cls-7" d="M57.37,24.07a3.49,3.49,0,0,1,3.65,0,1.75,1.75,0,0,1,.67,1.47v3.66A1.75,1.75,0,0,1,61,30.68a2.91,2.91,0,0,1-1.83.52,3,3,0,0,1-1.82-.51,1.71,1.71,0,0,1-.67-1.46v-3.7A1.72,1.72,0,0,1,57.37,24.07Zm8.4-3.49a11.18,11.18,0,0,0-6.58-1.79,11.16,11.16,0,0,0-6.57,1.79A6.15,6.15,0,0,0,50.09,26v2.82a6.79,6.79,0,0,0,1.22,4.15,6.63,6.63,0,0,0,3.21,2.34,16,16,0,0,0,9.35,0,6.44,6.44,0,0,0,4.43-6.44V25.93A6.12,6.12,0,0,0,65.77,20.58Z"/><path class="cls-7" d="M78.79,24.07a3.49,3.49,0,0,1,3.65,0,1.75,1.75,0,0,1,.67,1.47v3.66a1.75,1.75,0,0,1-.67,1.47,2.91,2.91,0,0,1-1.83.52,3,3,0,0,1-1.82-.51,1.71,1.71,0,0,1-.67-1.46v-3.7A1.72,1.72,0,0,1,78.79,24.07Zm8.4-3.49a11.18,11.18,0,0,0-6.58-1.79A11.16,11.16,0,0,0,74,20.58,6.15,6.15,0,0,0,71.51,26v2.82a6.72,6.72,0,0,0,1.22,4.15,6.63,6.63,0,0,0,3.21,2.34,16,16,0,0,0,9.35,0,6.44,6.44,0,0,0,4.43-6.44V25.93A6.14,6.14,0,0,0,87.19,20.58Z"/><path class="cls-7" d="M105.53,26.77l5.8-7.07a.52.52,0,0,0,.13-.36.53.53,0,0,0-.54-.52H105a1.16,1.16,0,0,0-.91.41l-3.87,4.85v-4.6a.65.65,0,0,0-.66-.66h-5a.62.62,0,0,0-.46.19.65.65,0,0,0-.2.47V35.29a.63.63,0,0,0,.2.46.59.59,0,0,0,.46.2h5a.67.67,0,0,0,.66-.66v-5l4.26,5.26a1.1,1.1,0,0,0,.89.39h6.31a.51.51,0,0,0,.38-.16.46.46,0,0,0,.16-.35.6.6,0,0,0-.1-.35Z"/><path class="cls-7" d="M146.22,25.2a16.35,16.35,0,0,1-2.55-.42c-.42-.13-.63-.32-.63-.55,0-.45.54-.67,1.64-.67a2.62,2.62,0,0,1,1.76.51,1.08,1.08,0,0,0,.76.28h5.26a.61.61,0,0,0,.43-.15.5.5,0,0,0,.16-.38c0-1.2-.77-2.34-2.3-3.41a10.3,10.3,0,0,0-6-1.62,10.52,10.52,0,0,0-6,1.5,4.57,4.57,0,0,0-2.23,3.94q0,4.32,6.93,5.13a16.3,16.3,0,0,1,2.91.48c.49.17.74.39.74.68,0,.45-.78.68-2.33.68a3.57,3.57,0,0,1-2.37-.62,1.16,1.16,0,0,0-.83-.3h-5c-.38,0-.56.17-.56.53a4.32,4.32,0,0,0,2.26,3.67A11.45,11.45,0,0,0,144.6,36a12.44,12.44,0,0,0,6.56-1.51,4.5,4.5,0,0,0,2.47-3.95,4.18,4.18,0,0,0-1.7-3.65A12.51,12.51,0,0,0,146.22,25.2Z"/><path class="cls-7" d="M164.45,29.64h8.18a.65.65,0,0,0,.47-.2.64.64,0,0,0,.19-.47V25.79a.62.62,0,0,0-.19-.46.65.65,0,0,0-.47-.2h-8.18V23.59H174a.68.68,0,0,0,.66-.66V19.48a.65.65,0,0,0-.2-.47.62.62,0,0,0-.46-.19H158.75a.67.67,0,0,0-.66.66V35.29a.68.68,0,0,0,.66.66h15.47a.67.67,0,0,0,.66-.66V31.84a.65.65,0,0,0-.66-.66h-9.77Z"/><path class="cls-7" d="M186.05,28.63l1.73-5.09,1.74,5.09Zm-1.86,6.49.61-1.72h6l.61,1.72a1.13,1.13,0,0,0,1.1.83h4.63a.51.51,0,0,0,.38-.16.43.43,0,0,0,.16-.3.67.67,0,0,0,0-.23l-5.33-15.64a1,1,0,0,0-1.1-.81h-6.81a1,1,0,0,0-1.1.81l-5.34,15.64a1.21,1.21,0,0,0,0,.23.43.43,0,0,0,.16.3.49.49,0,0,0,.38.16h4.62A1.14,1.14,0,0,0,184.19,35.12Z"/><path class="cls-7" d="M200.22,19a.65.65,0,0,0-.2.47v3.94a.68.68,0,0,0,.66.66H206V35.29a.67.67,0,0,0,.66.66h5a.67.67,0,0,0,.66-.66V24.08h5.26a.65.65,0,0,0,.47-.2.63.63,0,0,0,.2-.46V19.48A.65.65,0,0,0,218,19a.64.64,0,0,0-.47-.19H200.68A.62.62,0,0,0,200.22,19Z"/></g></g></svg>