<svg xmlns="http://www.w3.org/2000/svg" xmlns:xlink="http://www.w3.org/1999/xlink" viewBox="0 0 248.14 66.49"><defs><style>.cls-1,.cls-7{fill:none;}.cls-2{fill:#9fbf3c;}.cls-3{clip-path:url(#clip-path);}.cls-4{fill:url(#linear-gradient);}.cls-5{fill:#171515;}.cls-6{fill:#fefefe;}.cls-7{stroke:#171515;stroke-miterlimit:10;}</style><clipPath id="clip-path" transform="translate(0 0)"><rect class="cls-1" width="248.14" height="58.77" rx="12.23"/></clipPath><linearGradient id="linear-gradient" x1="-2595.38" y1="2922.51" x2="-2594.38" y2="2922.51" gradientTransform="matrix(248.14, 0, 0, -248.14, 644018.83, 725222.87)" gradientUnits="userSpaceOnUse"><stop offset="0" stop-color="#5f89c3"/><stop offset="1" stop-color="#7e3371"/></linearGradient></defs><g id="Layer_2" data-name="Layer 2"><g id="Layer_1-2" data-name="Layer 1"><path class="cls-2" d="M235.91,66.49H12.23A12.24,12.24,0,0,1,0,54.26V20A12.24,12.24,0,0,1,12.23,7.72H235.91A12.23,12.23,0,0,1,248.14,20V54.26a12.23,12.23,0,0,1-12.23,12.23" transform="translate(0 0)"/><g class="cls-3"><rect class="cls-4" width="248.14" height="58.77"/></g><path class="cls-5" d="M47.41,33.58q0,5.39-6.9,5.38H30.43a.64.64,0,0,1-.47-.19.65.65,0,0,1-.2-.47V22.49A.65.65,0,0,1,30,22a.64.64,0,0,1,.47-.19h9.84a8.44,8.44,0,0,1,5.12,1.26,4.47,4.47,0,0,1,1.66,3.81V27a3.2,3.2,0,0,1-.64,2A2.84,2.84,0,0,1,45.09,30a3.17,3.17,0,0,1,1.64,1.28A3.89,3.89,0,0,1,47.41,33.58Zm-7.25-5.67a1.3,1.3,0,0,0,.25-.79,1.16,1.16,0,0,0-.25-.76.92.92,0,0,0-.75-.32H36.13v2.23h3.28A.87.87,0,0,0,40.16,27.91Zm-4,4.45v2.39h3.55a1,1,0,0,0,.84-.38,1.35,1.35,0,0,0,.28-.84v0a1.2,1.2,0,0,0-.3-.81,1.05,1.05,0,0,0-.82-.34Z" transform="translate(0 0)"/><path class="cls-5" d="M68.61,28.94v2.91a6.44,6.44,0,0,1-4.43,6.45,16.18,16.18,0,0,1-9.35,0A6.63,6.63,0,0,1,51.62,36a6.81,6.81,0,0,1-1.22-4.15V29a6.21,6.21,0,0,1,2.53-5.4,11.18,11.18,0,0,1,6.58-1.79,11.16,11.16,0,0,1,6.57,1.79A6.13,6.13,0,0,1,68.61,28.94ZM57,28.54v3.71a1.72,1.72,0,0,0,.67,1.46,3,3,0,0,0,1.83.51,2.9,2.9,0,0,0,1.82-.53A1.72,1.72,0,0,0,62,32.23V28.57a1.75,1.75,0,0,0-.67-1.47,2.89,2.89,0,0,0-1.82-.52,3,3,0,0,0-1.83.51A1.7,1.7,0,0,0,57,28.54Z" transform="translate(0 0)"/><path class="cls-5" d="M90,28.94v2.91A6.75,6.75,0,0,1,88.81,36,6.63,6.63,0,0,1,85.6,38.3a16.18,16.18,0,0,1-9.35,0A6.63,6.63,0,0,1,73,36a6.81,6.81,0,0,1-1.22-4.15V29a6.18,6.18,0,0,1,2.53-5.4,11.18,11.18,0,0,1,6.58-1.79,11.16,11.16,0,0,1,6.57,1.79A6.13,6.13,0,0,1,90,28.94Zm-11.6-.4v3.71a1.72,1.72,0,0,0,.67,1.46,3,3,0,0,0,1.83.51,2.9,2.9,0,0,0,1.82-.53,1.72,1.72,0,0,0,.67-1.46V28.57a1.75,1.75,0,0,0-.67-1.47,2.89,2.89,0,0,0-1.82-.52,3,3,0,0,0-1.83.51A1.7,1.7,0,0,0,78.43,28.54Z" transform="translate(0 0)"/><path class="cls-5" d="M112.46,38.11a.64.64,0,0,1,.09.34.5.5,0,0,1-.16.36A.51.51,0,0,1,112,39H105.7a1.06,1.06,0,0,1-.88-.39l-4.26-5.26v5a.65.65,0,0,1-.2.47.62.62,0,0,1-.46.19h-5a.64.64,0,0,1-.47-.19.65.65,0,0,1-.2-.47V22.49a.65.65,0,0,1,.2-.47.64.64,0,0,1,.47-.19h5a.62.62,0,0,1,.46.19.65.65,0,0,1,.2.47v4.6l3.87-4.85a1.16,1.16,0,0,1,.9-.41h5.9a.49.49,0,0,1,.38.16.49.49,0,0,1,.16.37.55.55,0,0,1-.12.35l-5.8,7.07Z" transform="translate(0 0)"/><path class="cls-5" d="M152.25,29.88a4.19,4.19,0,0,1,1.7,3.65,4.53,4.53,0,0,1-2.47,3.95A12.56,12.56,0,0,1,144.92,39a11.55,11.55,0,0,1-6.36-1.49,4.34,4.34,0,0,1-2.26-3.68c0-.35.19-.53.56-.53h5a1.16,1.16,0,0,1,.83.3,3.52,3.52,0,0,0,2.38.63c1.55,0,2.32-.23,2.32-.69,0-.28-.24-.51-.73-.67a16.18,16.18,0,0,0-2.92-.49q-6.91-.79-6.92-5.13a4.56,4.56,0,0,1,2.22-3.93,10.56,10.56,0,0,1,6-1.51,10.26,10.26,0,0,1,6,1.62c1.53,1.07,2.3,2.21,2.3,3.41a.5.5,0,0,1-.16.39.59.59,0,0,1-.43.14h-5.26a1.14,1.14,0,0,1-.76-.27,2.62,2.62,0,0,0-1.76-.51c-1.1,0-1.64.22-1.64.66,0,.24.21.42.63.56a17,17,0,0,0,2.55.41A12.54,12.54,0,0,1,152.25,29.88Z" transform="translate(0 0)"/><path class="cls-5" d="M164.77,34.19h9.77a.68.68,0,0,1,.66.66V38.3a.65.65,0,0,1-.2.47.62.62,0,0,1-.46.19H159.06a.63.63,0,0,1-.46-.19.65.65,0,0,1-.2-.47V22.49a.65.65,0,0,1,.2-.47.63.63,0,0,1,.46-.19h15.23a.65.65,0,0,1,.66.66v3.45a.65.65,0,0,1-.66.66h-9.52v1.54h8.17a.68.68,0,0,1,.67.67V32a.63.63,0,0,1-.2.46.65.65,0,0,1-.47.2h-8.17Z" transform="translate(0 0)"/><path class="cls-5" d="M183.4,39h-4.63a.54.54,0,0,1-.38-.15.49.49,0,0,1-.16-.31.61.61,0,0,1,0-.22l5.33-15.64a1,1,0,0,1,1.1-.81h6.81a1,1,0,0,1,1.1.81l5.34,15.64a1.09,1.09,0,0,1,0,.22.45.45,0,0,1-.16.31.52.52,0,0,1-.38.15H192.8a1.12,1.12,0,0,1-1.1-.83l-.62-1.71h-6l-.61,1.71A1.12,1.12,0,0,1,183.4,39Zm6.44-7.31-1.74-5.1-1.74,5.1Z" transform="translate(0 0)"/><path class="cls-5" d="M201,21.83h16.89a.62.62,0,0,1,.46.19.65.65,0,0,1,.2.47v3.94a.65.65,0,0,1-.2.47.62.62,0,0,1-.46.19h-5.26V38.3a.65.65,0,0,1-.2.47A.64.64,0,0,1,212,39h-5a.62.62,0,0,1-.46-.19.65.65,0,0,1-.2-.47V27.09H201a.65.65,0,0,1-.66-.66V22.49a.65.65,0,0,1,.66-.66Z" transform="translate(0 0)"/><path class="cls-6" d="M47.41,30.05q0,5.4-6.9,5.39H30.43a.65.65,0,0,1-.47-.2.63.63,0,0,1-.2-.46V19a.68.68,0,0,1,.67-.67h9.84a8.37,8.37,0,0,1,5.12,1.27,4.45,4.45,0,0,1,1.66,3.8v.07a3.16,3.16,0,0,1-.64,2,2.72,2.72,0,0,1-1.32,1.05,3.19,3.19,0,0,1,1.64,1.29A3.86,3.86,0,0,1,47.41,30.05Zm-7.25-5.66a1.33,1.33,0,0,0,.25-.8,1.2,1.2,0,0,0-.25-.76.92.92,0,0,0-.75-.31H36.13v2.22h3.28A.89.89,0,0,0,40.16,24.39Zm-4,4.44v2.4h3.55a1,1,0,0,0,.84-.38A1.35,1.35,0,0,0,40.8,30v0a1.2,1.2,0,0,0-.3-.81,1.05,1.05,0,0,0-.82-.34Z" transform="translate(0 0)"/><path class="cls-6" d="M68.61,25.42v2.91a6.44,6.44,0,0,1-4.43,6.44,16.18,16.18,0,0,1-9.35,0,6.63,6.63,0,0,1-3.21-2.34,6.79,6.79,0,0,1-1.22-4.15V25.46a6.18,6.18,0,0,1,2.53-5.39,11.18,11.18,0,0,1,6.58-1.79,11.16,11.16,0,0,1,6.57,1.79A6.12,6.12,0,0,1,68.61,25.42ZM57,25v3.7a1.71,1.71,0,0,0,.67,1.46,3,3,0,0,0,1.83.51,2.89,2.89,0,0,0,1.82-.52A1.75,1.75,0,0,0,62,28.7V25a1.75,1.75,0,0,0-.67-1.47,3.49,3.49,0,0,0-3.65,0A1.72,1.72,0,0,0,57,25Z" transform="translate(0 0)"/><path class="cls-6" d="M90,25.42v2.91a6.44,6.44,0,0,1-4.43,6.44,16.18,16.18,0,0,1-9.35,0A6.63,6.63,0,0,1,73,32.43a6.79,6.79,0,0,1-1.22-4.15V25.46a6.15,6.15,0,0,1,2.53-5.39,11.18,11.18,0,0,1,6.58-1.79,11.16,11.16,0,0,1,6.57,1.79A6.12,6.12,0,0,1,90,25.42ZM78.43,25v3.7a1.71,1.71,0,0,0,.67,1.46,3,3,0,0,0,1.83.51,2.89,2.89,0,0,0,1.82-.52,1.75,1.75,0,0,0,.67-1.47V25a1.75,1.75,0,0,0-.67-1.47,3.49,3.49,0,0,0-3.65,0A1.72,1.72,0,0,0,78.43,25Z" transform="translate(0 0)"/><path class="cls-6" d="M112.46,34.58a.68.68,0,0,1,.09.35.46.46,0,0,1-.16.35.49.49,0,0,1-.37.16H105.7a1.06,1.06,0,0,1-.88-.39l-4.26-5.27v5a.68.68,0,0,1-.66.66h-5a.65.65,0,0,1-.47-.2.63.63,0,0,1-.2-.46V19a.68.68,0,0,1,.67-.67h5a.63.63,0,0,1,.46.2.65.65,0,0,1,.2.47v4.6l3.87-4.85a1.14,1.14,0,0,1,.9-.42h5.9a.53.53,0,0,1,.38.16.5.5,0,0,1,.16.37.56.56,0,0,1-.12.36l-5.8,7.07Z" transform="translate(0 0)"/><path class="cls-6" d="M152.25,26.35A4.2,4.2,0,0,1,154,30a4.52,4.52,0,0,1-2.47,4,12.47,12.47,0,0,1-6.56,1.51A11.46,11.46,0,0,1,138.56,34a4.32,4.32,0,0,1-2.26-3.67c0-.36.19-.53.56-.53h5a1.16,1.16,0,0,1,.83.3,3.58,3.58,0,0,0,2.38.62c1.55,0,2.32-.23,2.32-.68,0-.29-.24-.51-.73-.68a16.47,16.47,0,0,0-2.92-.48q-6.91-.81-6.92-5.13a4.56,4.56,0,0,1,2.22-3.94,10.56,10.56,0,0,1,6-1.5,10.34,10.34,0,0,1,6,1.61c1.53,1.08,2.3,2.22,2.3,3.42a.46.46,0,0,1-.16.38.59.59,0,0,1-.43.15h-5.26a1.1,1.1,0,0,1-.76-.28,2.62,2.62,0,0,0-1.76-.51c-1.1,0-1.64.22-1.64.67,0,.23.21.42.63.55a17,17,0,0,0,2.55.41A12.67,12.67,0,0,1,152.25,26.35Z" transform="translate(0 0)"/><path class="cls-6" d="M164.77,30.67h9.77a.62.62,0,0,1,.46.19.65.65,0,0,1,.2.47v3.45a.68.68,0,0,1-.66.66H159.06a.65.65,0,0,1-.46-.2.63.63,0,0,1-.2-.46V19a.68.68,0,0,1,.66-.67h15.23a.65.65,0,0,1,.47.2A.64.64,0,0,1,175,19v3.45a.62.62,0,0,1-.19.46.65.65,0,0,1-.47.2h-9.52v1.54h8.17a.65.65,0,0,1,.47.2.63.63,0,0,1,.2.46v3.18a.65.65,0,0,1-.2.47.64.64,0,0,1-.47.19h-8.17Z" transform="translate(0 0)"/><path class="cls-6" d="M183.4,35.44h-4.63a.51.51,0,0,1-.38-.16.47.47,0,0,1-.16-.3.67.67,0,0,1,0-.23l5.33-15.64a1,1,0,0,1,1.1-.81h6.81a1,1,0,0,1,1.1.81l5.34,15.64a1.21,1.21,0,0,1,0,.23.43.43,0,0,1-.16.3.49.49,0,0,1-.38.16H192.8a1.13,1.13,0,0,1-1.1-.83l-.62-1.72h-6l-.61,1.72A1.13,1.13,0,0,1,183.4,35.44Zm6.44-7.32L188.1,23l-1.74,5.09Z" transform="translate(0 0)"/><path class="cls-6" d="M201,18.3h16.89a.63.63,0,0,1,.46.2.65.65,0,0,1,.2.47v3.94a.68.68,0,0,1-.66.66h-5.26V34.78a.63.63,0,0,1-.2.46.65.65,0,0,1-.47.2h-5a.68.68,0,0,1-.66-.66V23.57H201a.65.65,0,0,1-.47-.2.62.62,0,0,1-.19-.46V19a.64.64,0,0,1,.19-.47A.65.65,0,0,1,201,18.3Z" transform="translate(0 0)"/><path class="cls-7" d="M39.41,24.74H36.13V22.52h3.28a.92.92,0,0,1,.75.31,1.2,1.2,0,0,1,.25.76,1.33,1.33,0,0,1-.25.8A.86.86,0,0,1,39.41,24.74Zm.27,4.09a1.08,1.08,0,0,1,.82.34,1.2,1.2,0,0,1,.3.81v0a1.35,1.35,0,0,1-.28.84,1,1,0,0,1-.84.38H36.13v-2.4Zm7-1a3.12,3.12,0,0,0-1.64-1.28,2.86,2.86,0,0,0,1.32-1.06,3.21,3.21,0,0,0,.64-2v-.08a4.46,4.46,0,0,0-1.66-3.8,8.44,8.44,0,0,0-5.12-1.26H30.42a.63.63,0,0,0-.46.19.65.65,0,0,0-.2.47V34.78a.63.63,0,0,0,.2.46.61.61,0,0,0,.46.2H40.51q6.9,0,6.9-5.38A3.87,3.87,0,0,0,46.73,27.79Z" transform="translate(0 0)"/><path class="cls-7" d="M57.68,23.56a3.49,3.49,0,0,1,3.65,0A1.75,1.75,0,0,1,62,25V28.7a1.75,1.75,0,0,1-.67,1.47,2.89,2.89,0,0,1-1.82.52,3,3,0,0,1-1.83-.51A1.71,1.71,0,0,1,57,28.72V25A1.72,1.72,0,0,1,57.68,23.56Zm8.4-3.49a11.16,11.16,0,0,0-6.57-1.79,11.18,11.18,0,0,0-6.58,1.79,6.18,6.18,0,0,0-2.53,5.39v2.82a6.79,6.79,0,0,0,1.22,4.15,6.63,6.63,0,0,0,3.21,2.34,16,16,0,0,0,9.35,0,6.44,6.44,0,0,0,4.43-6.44V25.42A6.12,6.12,0,0,0,66.08,20.07Z" transform="translate(0 0)"/><path class="cls-7" d="M79.1,23.56a3.49,3.49,0,0,1,3.65,0A1.75,1.75,0,0,1,83.42,25V28.7a1.75,1.75,0,0,1-.67,1.47,2.89,2.89,0,0,1-1.82.52,3,3,0,0,1-1.83-.51,1.71,1.71,0,0,1-.67-1.46V25A1.72,1.72,0,0,1,79.1,23.56Zm8.4-3.49a11.16,11.16,0,0,0-6.57-1.79,11.18,11.18,0,0,0-6.58,1.79,6.18,6.18,0,0,0-2.53,5.39v2.82A6.79,6.79,0,0,0,73,32.43a6.63,6.63,0,0,0,3.21,2.34,16,16,0,0,0,9.35,0A6.44,6.44,0,0,0,90,28.33V25.42A6.12,6.12,0,0,0,87.5,20.07Z" transform="translate(0 0)"/><path class="cls-7" d="M105.85,26.26l5.8-7.07a.56.56,0,0,0,.12-.36.5.5,0,0,0-.16-.37.53.53,0,0,0-.38-.16h-5.9a1.14,1.14,0,0,0-.9.42l-3.87,4.85V19a.65.65,0,0,0-.2-.47.63.63,0,0,0-.46-.2h-5a.68.68,0,0,0-.67.67V34.78a.63.63,0,0,0,.2.46.65.65,0,0,0,.47.2h5a.68.68,0,0,0,.66-.66v-5l4.26,5.27a1.06,1.06,0,0,0,.88.39H112a.49.49,0,0,0,.37-.16.46.46,0,0,0,.16-.35.68.68,0,0,0-.09-.35Z" transform="translate(0 0)"/><path class="cls-7" d="M146.53,24.69a16.15,16.15,0,0,1-2.54-.42c-.43-.13-.64-.32-.64-.55,0-.45.54-.67,1.64-.67a2.62,2.62,0,0,1,1.76.51,1.1,1.1,0,0,0,.76.28h5.26a.61.61,0,0,0,.43-.15.46.46,0,0,0,.16-.38c0-1.2-.77-2.34-2.3-3.42a10.34,10.34,0,0,0-6-1.61,10.56,10.56,0,0,0-6,1.5,4.56,4.56,0,0,0-2.22,3.94q0,4.32,6.92,5.13a16.47,16.47,0,0,1,2.92.48c.49.17.73.39.73.68,0,.45-.77.68-2.32.68a3.58,3.58,0,0,1-2.38-.62,1.16,1.16,0,0,0-.83-.3h-5c-.37,0-.56.17-.56.53A4.32,4.32,0,0,0,138.56,34a11.46,11.46,0,0,0,6.36,1.49A12.47,12.47,0,0,0,151.48,34,4.52,4.52,0,0,0,154,30a4.2,4.2,0,0,0-1.7-3.65A12.56,12.56,0,0,0,146.53,24.69Z" transform="translate(0 0)"/><path class="cls-7" d="M164.77,29.12h8.17a.64.64,0,0,0,.47-.19.65.65,0,0,0,.2-.47V25.28a.63.63,0,0,0-.2-.46.65.65,0,0,0-.47-.2h-8.17V23.08h9.52a.65.65,0,0,0,.47-.2.62.62,0,0,0,.19-.46V19a.65.65,0,0,0-.66-.66H159.06a.63.63,0,0,0-.46.19.65.65,0,0,0-.2.47V34.78a.63.63,0,0,0,.2.46.61.61,0,0,0,.46.2h15.48a.59.59,0,0,0,.46-.2.63.63,0,0,0,.2-.46V31.33a.65.65,0,0,0-.2-.47.62.62,0,0,0-.46-.19h-9.77Z" transform="translate(0 0)"/><path class="cls-7" d="M186.36,28.12,188.1,23l1.73,5.09Zm-1.86,6.49.61-1.72h6l.62,1.72a1.12,1.12,0,0,0,1.1.83h4.62a.49.49,0,0,0,.38-.16A.43.43,0,0,0,198,35a1.21,1.21,0,0,0,0-.23L192.6,19.11a1,1,0,0,0-1.1-.81h-6.81a1,1,0,0,0-1.1.81l-5.33,15.64a.67.67,0,0,0,0,.23.43.43,0,0,0,.16.3.51.51,0,0,0,.38.16h4.63A1.13,1.13,0,0,0,184.5,34.61Z" transform="translate(0 0)"/><path class="cls-7" d="M200.53,18.5a.64.64,0,0,0-.19.47v3.94a.62.62,0,0,0,.19.46.65.65,0,0,0,.47.2h5.26V34.78a.63.63,0,0,0,.2.46.59.59,0,0,0,.46.2h5a.61.61,0,0,0,.47-.2.63.63,0,0,0,.2-.46V23.57h5.26a.68.68,0,0,0,.66-.66V19a.65.65,0,0,0-.2-.47.62.62,0,0,0-.46-.19H201A.64.64,0,0,0,200.53,18.5Z" transform="translate(0 0)"/></g></g></svg>