<svg xmlns="http://www.w3.org/2000/svg" xmlns:xlink="http://www.w3.org/1999/xlink" viewBox="0 0 675.46 109.92"><defs><style>.cls-1{fill:none;}.cls-2{fill:#5b1d54;}.cls-3{clip-path:url(#clip-path);}.cls-4{fill:url(#linear-gradient);}.cls-5{fill:#fff;}.cls-6{fill:#a2cc39;}</style><clipPath id="clip-path" transform="translate(1.33 12.46)"><rect class="cls-1" width="660.9" height="70.76"/></clipPath><linearGradient id="linear-gradient" x1="-383.97" y1="8079.47" x2="-382.97" y2="8079.47" gradientTransform="matrix(0, -87.35, -87.35, 0, 706106.8, -33458.31)" gradientUnits="userSpaceOnUse"><stop offset="0" stop-color="#5277b4"/><stop offset="1" stop-color="#7e3371"/></linearGradient></defs><g id="Layer_2" data-name="Layer 2"><g id="Layer_1-2" data-name="Layer 1"><polygon class="cls-2" points="675.46 94.45 17.23 94.45 1.33 81.8 17.23 28.71 663.88 12.46 675.46 28.71 675.46 94.45"/><g class="cls-3"><rect class="cls-4" x="-0.61" y="-6.23" width="662.11" height="83.21" transform="translate(0.73 18.7) rotate(-1.08)"/></g><path class="cls-5" d="M23.06,62s12.27.19,16.47-17.89c0,0-.24,15.94,13.67,20.57,0,0-15.7-.24-15,17.67,0,0-.72-16.69-15.14-20.35" transform="translate(1.33 12.46)"/><path class="cls-5" d="M46.59,82.45s9,.14,12.14-13.21c0,0-.18,11.76,10.08,15.18,0,0-11.58-.18-11.06,13,0,0-.53-12.32-11.16-15" transform="translate(1.33 12.46)"/><path class="cls-6" d="M77.55,45.37l10.48-8c2.6-2,3.6-3.36,3.6-5s-1.24-2.84-3.12-2.84-3.36,1.08-5.56,3.6l-5.24-4.36c3-3.88,6-6,11.4-6,6.12,0,10.32,3.64,10.32,8.92v.08c0,4.48-2.32,6.8-6.48,9.8l-4.8,3.36H99.71V51.2H77.55Z" transform="translate(1.33 12.46)"/><path class="cls-6" d="M116.75,29.73h-13V23.21h21.56v5.84L113,51.2h-8.56Z" transform="translate(1.33 12.46)"/><path class="cls-6" d="M158.63,48.85a13.38,13.38,0,0,1-8.32,2.83c-5.72,0-10-3-10-8.07v-.08c0-3.48,1.88-6.12,5.68-7.84a9.13,9.13,0,0,1-1.84-5.36v-.08c0-4.08,3.32-7.6,8.8-7.6,5.08,0,8.32,3.12,8.32,7.2v.08c0,3.44-2.2,5.76-5.48,7.28l3.12,3a42,42,0,0,0,2.64-4.44l5.11,2.56A51.69,51.69,0,0,1,163,44.29L166.75,48l-5.24,3.75Zm-4-4.08-4.6-4.68a3.55,3.55,0,0,0-2,3v.08c0,1.64,1.36,2.76,3.28,2.76A6.13,6.13,0,0,0,154.67,44.77Zm.44-14.48v-.08A2.08,2.08,0,0,0,153,28a2.25,2.25,0,0,0-2.24,2.48v.08a5.07,5.07,0,0,0,1.44,3.2C154.15,32.85,155.11,31.77,155.11,30.29Z" transform="translate(1.33 12.46)"/><path class="cls-6" d="M181.67,45.37l10.48-8c2.6-2,3.6-3.36,3.6-5s-1.24-2.84-3.12-2.84-3.36,1.08-5.56,3.6l-5.24-4.36c3-3.88,6-6,11.4-6,6.12,0,10.32,3.64,10.32,8.92v.08c0,4.48-2.32,6.8-6.48,9.8l-4.8,3.36h11.56V51.2H181.67Z" transform="translate(1.33 12.46)"/><path class="cls-6" d="M207.31,43.49v-.08c0-3.4,1.8-5.44,4.8-6.72a6.65,6.65,0,0,1-3.84-6.08v-.08c0-4.48,4.28-7.8,10.56-7.8s10.56,3.32,10.56,7.8v.08a6.65,6.65,0,0,1-3.84,6.08c2.84,1.32,4.79,3.2,4.79,6.68v.08c0,5-4.79,8.23-11.51,8.23S207.31,48.37,207.31,43.49Zm15.56-.76v-.08c0-1.8-1.68-3-4-3s-4,1.24-4,3v.08c0,1.68,1.44,3.16,4,3.16S222.87,44.41,222.87,42.73Zm-.6-11.2v-.08a3.14,3.14,0,0,0-3.44-3c-2.12,0-3.44,1.36-3.44,2.92v.08a3.13,3.13,0,0,0,3.44,3.08C220.91,34.57,222.27,33.29,222.27,31.53Z" transform="translate(1.33 12.46)"/><path class="cls-6" d="M246.91,23.21h7.24L265.66,38V23.21h7.68v28h-6.8l-12-15.35V51.2h-7.68Z" transform="translate(1.33 12.46)"/><path class="cls-6" d="M278.31,37.29v-.08c0-8,6.48-14.56,15.12-14.56s15,6.44,15,14.48v.08c0,8-6.48,14.55-15.11,14.55S278.31,45.33,278.31,37.29Zm22.23,0v-.08a7.27,7.27,0,0,0-7.19-7.56c-4.24,0-7.08,3.44-7.08,7.48v.08a7.27,7.27,0,0,0,7.16,7.56C297.7,44.77,300.54,41.33,300.54,37.29Z" transform="translate(1.33 12.46)"/><path class="cls-6" d="M309.43,23.21h8.68l6.36,17.72,6.35-17.72h8.52L328,51.4h-7.19Z" transform="translate(1.33 12.46)"/><path class="cls-6" d="M343,23.21h22.51v6.6H350.71v4.24h13.43v6.12H350.71v4.44h15V51.2H343Z" transform="translate(1.33 12.46)"/><path class="cls-6" d="M370.67,23.21h8.2l6.67,10.84,6.68-10.84h8.2v28H392.7V35.13l-7.16,11h-.16l-7.11-10.88v16h-7.6Z" transform="translate(1.33 12.46)"/><path class="cls-6" d="M406.35,23.21H420.7c3.52,0,6,.88,7.64,2.52a6.14,6.14,0,0,1,1.8,4.52v.08a6.48,6.48,0,0,1-4.32,6.24c3.4,1.12,5.56,3,5.56,6.84v.08c0,4.8-3.92,7.71-10.6,7.71H406.35Zm12.44,11.16c2.35,0,3.67-.8,3.67-2.44v-.08c0-1.52-1.2-2.4-3.52-2.4h-5v4.92ZM419.9,45c2.36,0,3.72-.92,3.72-2.56v-.08c0-1.52-1.2-2.52-3.8-2.52h-5.91V45Z" transform="translate(1.33 12.46)"/><path class="cls-6" d="M435.91,23.21h22.51v6.6H443.58v4.24H457v6.12H443.58v4.44h15V51.2H435.91Z" transform="translate(1.33 12.46)"/><path class="cls-6" d="M463.55,23.21h13.23c4.28,0,7.24,1.12,9.12,3a8.68,8.68,0,0,1,2.48,6.52v.08a8.86,8.86,0,0,1-5.76,8.6l6.68,9.75h-9l-5.64-8.47h-3.4V51.2h-7.75Zm12.87,13.44c2.64,0,4.16-1.28,4.16-3.32v-.08c0-2.2-1.6-3.32-4.2-3.32H471.3v6.72Z" transform="translate(1.33 12.46)"/><path class="cls-6" d="M504.15,45.37l10.47-8c2.6-2,3.6-3.36,3.6-5s-1.24-2.84-3.12-2.84-3.35,1.08-5.56,3.6l-5.23-4.36c3-3.88,5.95-6,11.39-6,6.12,0,10.32,3.64,10.32,8.92v.08c0,4.48-2.32,6.8-6.48,9.8l-4.8,3.36H526.3V51.2H504.15Z" transform="translate(1.33 12.46)"/><path class="cls-6" d="M530.35,37.29v-.08c0-7.92,5-14.56,13-14.56s12.92,6.56,12.92,14.48v.08c0,7.92-5,14.55-13,14.55S530.35,45.21,530.35,37.29Zm18.11,0v-.08c0-4.44-2.12-7.68-5.2-7.68s-5.12,3.12-5.12,7.6v.08c0,4.48,2.08,7.68,5.2,7.68S548.46,41.73,548.46,37.29Z" transform="translate(1.33 12.46)"/><path class="cls-6" d="M559.79,45.37l10.47-8c2.6-2,3.6-3.36,3.6-5s-1.24-2.84-3.12-2.84-3.36,1.08-5.56,3.6L560,28.73c3-3.88,5.95-6,11.39-6,6.12,0,10.32,3.64,10.32,8.92v.08c0,4.48-2.32,6.8-6.48,9.8l-4.8,3.36h11.56V51.2H559.79Z" transform="translate(1.33 12.46)"/><path class="cls-6" d="M590.86,30.25l-4.71,1.08-1.48-6L592.86,23h5.64V51.2h-7.64Z" transform="translate(1.33 12.46)"/></g></g></svg>