<svg xmlns="http://www.w3.org/2000/svg" viewBox="0 0 367.93 100.01"><defs><style>.cls-1{fill:#aa2023;}.cls-2{fill:#faec1e;}.cls-3{fill:#f7f6f6;}</style></defs><g id="Layer_2" data-name="Layer 2"><g id="Layer_1-2" data-name="Layer 1"><path class="cls-1" d="M47.52,76.25A23.76,23.76,0,1,1,23.76,52.49,23.76,23.76,0,0,1,47.52,76.25"/><path class="cls-2" d="M116.81,47.06q3.18.18,4.74.12a38.28,38.28,0,0,0,4.7-.65c.67.19,1.06.45,1.18.77a2.31,2.31,0,0,1,.16,1,3,3,0,0,0,.09,1q.13.49,1.08.78c.33.09.44.41.34.94a4.81,4.81,0,0,1-.82,1.76,9.69,9.69,0,0,1-4.12,3.46A39.57,39.57,0,0,1,118,57.67a40.84,40.84,0,0,1-8.09.08q-4.85-.66-4.81-3.78a57.44,57.44,0,0,1,4-23.26q1.47-3.84,3.36-8.08a5.09,5.09,0,0,0,.43-2c0-.73,0-1.44,0-2.13a6.73,6.73,0,0,1,.24-1.87,1.8,1.8,0,0,1,1.1-1.2q11.16-5,17.81-4.28a3.11,3.11,0,0,1,3.09,1.42,4.39,4.39,0,0,1,.31,3.35,8.3,8.3,0,0,1-2.08,3.59,7.37,7.37,0,0,1-4.09,2.21c-2.12.71-3.41,1.19-3.87,1.42A4.26,4.26,0,0,0,123.61,25c-.48.82-.91,1.61-1.32,2.35a8.08,8.08,0,0,0-.83,2.39l-.16,1.21a4.51,4.51,0,0,0,2.55.19c1-.17,1.92-.34,2.77-.5a5.9,5.9,0,0,1,2.07-.12c.53.08.67.62.4,1.59a13,13,0,0,1-1.55,3.33,7,7,0,0,1-3.35,2.77c-.94.22-1.58.39-1.92.49s-.6.19-.78.23-1,.13-2.18.26a27.09,27.09,0,0,0-2.82,6.91C116.38,46.75,116.48,47.07,116.81,47.06Z"/><path class="cls-2" d="M166.36,29.57a31,31,0,0,1-.63,4.84,24.61,24.61,0,0,1-1.59,4.88,31.32,31.32,0,0,1-2.59,4.65,29.31,29.31,0,0,1-3.4,4.2,21.36,21.36,0,0,1-4.06,3.3,13.28,13.28,0,0,1-9.2,2.42,4.62,4.62,0,0,1-2.8,2.83,6.48,6.48,0,0,1-3.82.17,7.33,7.33,0,0,1-3.4-2,6.28,6.28,0,0,1-1.61-4.28,43.26,43.26,0,0,1,.14-5.66,51.73,51.73,0,0,1,.79-5.62,60.38,60.38,0,0,1,2.2-8.41q3.23-8.94,3.56-12.52c.33-3.18,1.12-5.19,2.36-6a9.93,9.93,0,0,1,5.93-1.84,15.05,15.05,0,0,1,5.19,1.14,31.66,31.66,0,0,1,8.4,5.7Q166.84,21.78,166.36,29.57ZM145.63,46.88A21.94,21.94,0,0,0,150,43.77q1.67-1.58,3.13-2.9a14.31,14.31,0,0,0,3.2-5.72q2.08-7.2-3.53-10.62c-.57-.38-1.41-.89-2.53-1.53a16.5,16.5,0,0,0-1,3.7,28.81,28.81,0,0,1-.79,3.76l-1.27,4.87-1,5.24a17.67,17.67,0,0,1-.24,2.11c-.11.68-.21,1.39-.29,2.12Z"/><path class="cls-2" d="M187.28,13.88q-1.65,6-3.05,10.91c-.93,3.25-1.79,6.24-2.56,9s-1.49,5.25-2.16,7.56-1.27,4.52-1.84,6.62a6.35,6.35,0,0,1-3.32,5.23,9.7,9.7,0,0,1-4.12,1,9.53,9.53,0,0,1-3.62-.36A2.62,2.62,0,0,1,165,52.38a4,4,0,0,1-.11-2.37c.2-.94.55-2.23,1.06-3.88s1.15-3.87,1.92-6.68,1.59-5.64,2.45-8.53a122.34,122.34,0,0,1,5.14-15A5.43,5.43,0,0,1,177,13.81a6.73,6.73,0,0,1,1.55-.83,10,10,0,0,0,1.4-.64,3,3,0,0,0,1.1-1.69,3,3,0,0,1,1.83-1.88,3.93,3.93,0,0,1,2.62-.2,3.12,3.12,0,0,1,1.93,1.67A4.59,4.59,0,0,1,187.28,13.88Z"/><path class="cls-2" d="M204.25,36.08q-1.31,4.35-2.67,8.35t-2.27,6.09a12,12,0,0,1-1.65,2.89,4.13,4.13,0,0,1-1.51,1.1,4,4,0,0,1-1.58.29l-1.61,0q-4.62-.51-3.13-6.48c.63-3.16,1.13-5.75,1.52-7.75s.7-3.66,1-5,.47-2.39.65-3.25.38-1.72.59-2.57.5-1.81.83-2.88.78-2.5,1.32-4.27a7,7,0,0,1-3.73-.27c-1.63-.63-2.35-2.09-2.16-4.4a5,5,0,0,1,1.56-3c.49-.49,1.07-1,1.74-1.61q2.05-1.77,8.3-4A37.38,37.38,0,0,1,212.57,7a4.81,4.81,0,0,1,2.61.19,5.74,5.74,0,0,1,2.22,1.29,2.89,2.89,0,0,1,.93,1.88c0,.69-.37,1.33-1.26,1.91a2.42,2.42,0,0,0-.86,1.49c-.16.68-.32,1.4-.51,2.16a7.1,7.1,0,0,1-.87,2.08,2.61,2.61,0,0,1-1.94,1.18,5.82,5.82,0,0,1-2,.64c-.85.14-1.41.25-1.68.32s-.42.17-.45.32q-.85,2.94-2,7.12C206,30.33,205.13,33.18,204.25,36.08Zm-8-14.12c-.07,0-.11,0-.11,0s0,0,.11,0Z"/><path class="cls-2" d="M234.72,11.8q-1.65,6-3.05,10.91c-.93,3.25-1.79,6.24-2.56,9s-1.49,5.25-2.16,7.56-1.28,4.51-1.84,6.62a6.36,6.36,0,0,1-3.32,5.23,9.73,9.73,0,0,1-4.12,1,9.53,9.53,0,0,1-3.62-.36,2.67,2.67,0,0,1-1.63-1.43,4.07,4.07,0,0,1-.1-2.38c.2-.94.55-2.23,1.06-3.87s1.15-3.87,1.92-6.68,1.59-5.65,2.45-8.53a124.58,124.58,0,0,1,5.13-15,5.46,5.46,0,0,1,1.55-2.12,7.21,7.21,0,0,1,1.55-.84,9.43,9.43,0,0,0,1.4-.63,3,3,0,0,0,1.1-1.69,3.06,3.06,0,0,1,1.83-1.89,4,4,0,0,1,2.62-.19,3.11,3.11,0,0,1,1.93,1.66A4.62,4.62,0,0,1,234.72,11.8Z"/><path class="cls-2" d="M242.78,12.21A14.59,14.59,0,0,1,250.2,7a9.19,9.19,0,0,1,5.47,0,5.41,5.41,0,0,1,5.18-1.76A8,8,0,0,1,266,8.29a8.1,8.1,0,0,0,.51,1.13c.26.49.51,1.05.76,1.66q2.64,5.46,1,14.61a45,45,0,0,1-8.06,19.44A18.9,18.9,0,0,1,256,49.31a13.58,13.58,0,0,1-9.27,3.09A11,11,0,0,1,241,51q-9.31-4.14-6.78-18.63A44.3,44.3,0,0,1,242.78,12.21Zm1.92,29,0,.33.13.59A5.62,5.62,0,0,0,246,44.64a4.1,4.1,0,0,0,1.3,1.06c.35-.3.7-.59,1.06-.86a4.88,4.88,0,0,0,.94-1,33.06,33.06,0,0,0,5.26-12.26,38.91,38.91,0,0,0,.92-13.82q-2,2.82-4.2,6.47t-3.44,6.22A29.6,29.6,0,0,0,244.7,41.17Z"/><path class="cls-2" d="M271,26q.93-3.71,1.52-5.73c.4-1.35.79-2.56,1.18-3.63A26.47,26.47,0,0,1,275,13.47a19.81,19.81,0,0,1,1.74-2.78,8.8,8.8,0,0,1,2.07-2,4.16,4.16,0,0,1,5,.05,77.63,77.63,0,0,1,3,7.2,65.3,65.3,0,0,1,1.54,7.64c.29-.85.63-1.75,1-2.7s.75-1.9,1.11-2.86a31.64,31.64,0,0,0,1.89-5.55,9.37,9.37,0,0,1,4.71-5.95,9.24,9.24,0,0,1,6.07-1.31,2.33,2.33,0,0,1,1.65.86,1.29,1.29,0,0,1,.07,1.47A2,2,0,0,0,304.63,9c.11.45.22,1,.32,1.6a8.12,8.12,0,0,1-.68,4.49,43.44,43.44,0,0,0-1.92,4.9q-1,2.91-1.94,6.18l-2,6.65q-1,3.39-2,6.16c-1.42,4.26-2.63,6.62-3.63,7.11a11.91,11.91,0,0,1-3,1.6,13.71,13.71,0,0,1-3.55.16q-1.43,0-2.62-3.55A37.21,37.21,0,0,1,282.35,39a41.6,41.6,0,0,0-1.49-6.44,81.81,81.81,0,0,1-2.69,9.09,16,16,0,0,1-1.25,2.51c-.3.42-.65,1-1.05,1.64a5,5,0,0,1-3.26,3,6.13,6.13,0,0,1-4.14.45c-1.36-.37-1.8-1.19-1.31-2.46Q267.48,40.28,271,26Z"/><path class="cls-2" d="M329.34,29.19a2.3,2.3,0,0,1-2-2.65,7.25,7.25,0,0,1,2.39-4.2,30.75,30.75,0,0,1,2.43-2.57q1.54-1.48,3.07-3.09c2.61-2.7,4.09-4.79,4.42-6.26-1.61.5-3,1-4.09,1.41a25.28,25.28,0,0,1-2.86.94,5.17,5.17,0,0,1-2,.17,2.48,2.48,0,0,1-1.45-.7,3.68,3.68,0,0,1-.92-1.44A6.32,6.32,0,0,1,328,9a2.5,2.5,0,0,1,1.9-2.82,1.42,1.42,0,0,0,.83-.53,8.78,8.78,0,0,0,.53-.85,3.08,3.08,0,0,1,1.9-1.56c.9-.36,1.91-.79,3-1.28s2.3-.92,3.52-1.3q6-1.91,9.81,1.54,2.67,2.44,2.33,7a18.17,18.17,0,0,1-1.36,5.26A13.77,13.77,0,0,1,348,17.65c-.87.84-1.67,1.55-2.39,2.13s-1.53,1.23-2.41,2a6.23,6.23,0,0,1,4.47,2,8.35,8.35,0,0,1,1.94,4.37q.72,5.34-2.71,11.83-3.9,7.17-17.71,9a13.62,13.62,0,0,1-6.42-.54,4.54,4.54,0,0,1-3.14-2.92,4.22,4.22,0,0,1-.2-2.7,6.43,6.43,0,0,1,1.21-2.49,5.37,5.37,0,0,1,2-1.59,2.76,2.76,0,0,1,2.35,0,18.87,18.87,0,0,0,4.22,0,18.12,18.12,0,0,0,5.16-2A10.34,10.34,0,0,0,336.65,35a9.91,9.91,0,0,0,1.78-2.38,3,3,0,0,0,.43-2.07c-.13-.57-.64-.86-1.51-.86s-2,0-3.34.09A16.55,16.55,0,0,1,329.34,29.19Z"/><path class="cls-3" d="M367,43.58a3.75,3.75,0,0,0-3.39.08c-.38.18-.72.42-1.09.6,0,0-.05,0-.14,0l-.5.16c-1.11.37-2.22.71-3.34,1-2.34.64-4.69,1.22-7,1.8-4.71,1.15-9.43,2.25-14.14,3.4-9.18,2.25-18.25,4.88-27.5,6.89q-15,3.24-29.9,6.75c-2.45.58-4.9,1.16-7.34,1.79-3.43.87-6.9,1.65-10.28,2.65-2.47.73-1.5,4.61,1,3.88,3.22-.95,6.51-1.67,9.76-2.52,2-.52,4-1,6-1.48,5.54-1.32,11.09-2.59,16.64-3.85,4.21-1,8.43-1.9,12.65-2.81,4.46-1,8.91-1.93,13.32-3,4.67-1.17,9.29-2.54,14-3.71,2.28-.57,4.58-1.13,6.87-1.68-3,1.51-6.13,3.1-9,4.2a90.9,90.9,0,0,0-12.14,5.84c-4.16,2.36-8.49,4.41-12.65,6.78-2.27,1.29-4.51,2.65-6.81,3.88-.56.3-1.13.59-1.7.88l-.56.27c.07,0-.09.06-.2.1l-.09,0,.08,0a9.22,9.22,0,0,0-2.14.92c-2,1.25-2,4.22.46,4.92,1.61.45,3.47-.16,5-.49,2.64-.56,5.29-1.07,7.9-1.72s5-1.46,7.44-2.22a166.66,166.66,0,0,1,17.59-4.63c2.89-.57,5.8-1,8.73-1.28l2.71-.26a10.84,10.84,0,0,0-2.79,5.87,2,2,0,0,0,4,.09,7,7,0,0,1,2-3.57,19.43,19.43,0,0,1,1.81-2c.55-.5,1-1.25,1.65-1.58a2,2,0,0,0,.75-2.73,2,2,0,0,0-2.45-.86l-.1,0c-.2-.05-.44,0-.65-.07s-.6-.09-.9-.15a16.8,16.8,0,0,1-3-1.06,12.59,12.59,0,0,1-4.48-3c-1.76-1.89-4.61.91-2.86,2.8a18.55,18.55,0,0,0,3,2.47l.31.2c-.3,0-.59,0-.88.09a102.47,102.47,0,0,0-11.8,2c-3.82.88-7.59,2-11.33,3.08s-7.52,2.43-11.37,3.31l-.73.16c1.52-.88,3-1.77,4.55-2.61,2.52-1.4,5.13-2.61,7.66-4,2.16-1.18,4.28-2.43,6.44-3.6a73.58,73.58,0,0,1,6.62-3.23c2.11-.89,4.25-1.67,6.34-2.64,4.28-2,8.45-4.21,12.67-6.34,2.1-1,4.2-2.1,6.36-3,1.36-.58,2.7-1.19,4.08-1.72.61-.24,1.25-.41,1.85-.65,1-.3,2.07-.57,3.08-1a2,2,0,0,0,0-3.46M299.25,79.89a.77.77,0,0,0,.21-.1.41.41,0,0,1-.21.1"/></g></g></svg>