<svg xmlns="http://www.w3.org/2000/svg" viewBox="0 0 262.85 81.49"><defs><style>.cls-1{fill:#faec1e;}.cls-2{fill:#f7f6f6;}</style></defs><g id="Layer_2" data-name="Layer 2"><g id="Layer_1-2" data-name="Layer 1"><path class="cls-1" d="M11.73,47.06c2.12.12,3.69.16,4.73.12a38.13,38.13,0,0,0,4.71-.65c.66.19,1,.45,1.18.77a2.46,2.46,0,0,1,.15,1,3,3,0,0,0,.1,1c.09.33.44.59,1.07.78.34.09.45.41.35.94a4.85,4.85,0,0,1-.83,1.76,9.61,9.61,0,0,1-4.11,3.46A40.1,40.1,0,0,1,13,57.67a40.86,40.86,0,0,1-8.09.08Q0,57.09.05,54a57.44,57.44,0,0,1,4-23.26q1.47-3.84,3.37-8.08a5.27,5.27,0,0,0,.43-2c0-.73,0-1.44,0-2.13a7.11,7.11,0,0,1,.25-1.87,1.79,1.79,0,0,1,1.09-1.2q11.16-5,17.81-4.28a3.13,3.13,0,0,1,3.1,1.42,4.44,4.44,0,0,1,.31,3.35,8.41,8.41,0,0,1-2.08,3.59,7.44,7.44,0,0,1-4.09,2.21c-2.12.71-3.42,1.19-3.88,1.42A4.26,4.26,0,0,0,18.52,25c-.47.82-.91,1.61-1.32,2.35a8.06,8.06,0,0,0-.82,2.39l-.17,1.21a4.55,4.55,0,0,0,2.56.19l2.76-.5a6,6,0,0,1,2.08-.12c.53.08.66.62.39,1.59a12.71,12.71,0,0,1-1.55,3.33A6.94,6.94,0,0,1,19.1,38.2c-.94.22-1.57.39-1.92.49s-.6.19-.78.23-1,.13-2.18.26a26.61,26.61,0,0,0-2.81,6.91C11.29,46.75,11.4,47.07,11.73,47.06Z"/><path class="cls-1" d="M61.28,29.57a31.09,31.09,0,0,1-.64,4.84,23.37,23.37,0,0,1-1.59,4.88,30.38,30.38,0,0,1-2.58,4.65,29.31,29.31,0,0,1-3.4,4.2A21.41,21.41,0,0,1,49,51.44a13.26,13.26,0,0,1-9.19,2.42A4.64,4.64,0,0,1,37,56.69a6.48,6.48,0,0,1-3.82.17,7.23,7.23,0,0,1-3.4-2,6.28,6.28,0,0,1-1.61-4.28,43.22,43.22,0,0,1,.13-5.66,51.71,51.71,0,0,1,.8-5.62,59,59,0,0,1,2.2-8.41q3.21-8.94,3.55-12.52c.33-3.18,1.12-5.19,2.36-6a10,10,0,0,1,5.94-1.84,15.05,15.05,0,0,1,5.19,1.14,32,32,0,0,1,8.4,5.7Q61.76,21.78,61.28,29.57ZM40.54,46.88a21.74,21.74,0,0,0,4.38-3.11q1.65-1.58,3.12-2.9a14.19,14.19,0,0,0,3.2-5.72q2.09-7.2-3.53-10.62c-.56-.38-1.41-.89-2.53-1.53a16.5,16.5,0,0,0-1,3.7,27.25,27.25,0,0,1-.79,3.76l-1.26,4.87-1,5.24A20,20,0,0,1,41,42.68c-.12.68-.21,1.39-.29,2.12Z"/><path class="cls-1" d="M82.19,13.88q-1.65,6-3,10.91t-2.56,9l-2.16,7.56q-1,3.47-1.84,6.62a6.34,6.34,0,0,1-3.33,5.23,9.65,9.65,0,0,1-4.11,1,9.61,9.61,0,0,1-3.63-.36,2.68,2.68,0,0,1-1.62-1.43A4,4,0,0,1,59.8,50c.19-.94.55-2.23,1.06-3.88s1.15-3.87,1.92-6.68,1.58-5.64,2.44-8.53a124.12,124.12,0,0,1,5.14-15,5.44,5.44,0,0,1,1.55-2.12A6.54,6.54,0,0,1,73.46,13a9.9,9.9,0,0,0,1.39-.64A2.93,2.93,0,0,0,76,10.65a3,3,0,0,1,1.84-1.88,3.9,3.9,0,0,1,2.61-.2,3.14,3.14,0,0,1,1.94,1.67A4.6,4.6,0,0,1,82.19,13.88Z"/><path class="cls-1" d="M99.17,36.08q-1.32,4.35-2.67,8.35c-.91,2.66-1.66,4.69-2.28,6.09a11.32,11.32,0,0,1-1.65,2.89,4.13,4.13,0,0,1-1.51,1.1,3.93,3.93,0,0,1-1.57.29l-1.62,0q-4.62-.51-3.13-6.48c.63-3.16,1.14-5.75,1.52-7.75s.71-3.66,1-5,.47-2.39.65-3.25.38-1.72.6-2.57.49-1.81.83-2.88.77-2.5,1.32-4.27a7,7,0,0,1-3.73-.27c-1.64-.63-2.36-2.09-2.17-4.4a5,5,0,0,1,1.57-3c.48-.49,1.06-1,1.73-1.61q2.06-1.77,8.31-4A37.32,37.32,0,0,1,107.49,7a4.77,4.77,0,0,1,2.6.19,5.74,5.74,0,0,1,2.22,1.29,2.89,2.89,0,0,1,.93,1.88A2.2,2.2,0,0,1,112,12.24a2.38,2.38,0,0,0-.87,1.49c-.15.68-.32,1.4-.5,2.16a7.38,7.38,0,0,1-.87,2.08,2.61,2.61,0,0,1-2,1.18,5.76,5.76,0,0,1-2,.64c-.85.14-1.41.25-1.69.32s-.42.17-.45.32q-.86,2.94-2,7.12C100.87,30.33,100,33.18,99.17,36.08ZM91.14,22c-.08,0-.11,0-.11,0s0,0,.11,0Z"/><path class="cls-1" d="M129.63,11.8q-1.65,6-3,10.91t-2.55,9l-2.16,7.56c-.67,2.31-1.28,4.51-1.84,6.62a6.35,6.35,0,0,1-3.33,5.23,11.73,11.73,0,0,1-7.74.64,2.68,2.68,0,0,1-1.62-1.43,4,4,0,0,1-.1-2.38,39.45,39.45,0,0,1,1.06-3.87c.51-1.65,1.15-3.87,1.92-6.68s1.58-5.65,2.44-8.53a124.12,124.12,0,0,1,5.14-15,5.36,5.36,0,0,1,1.55-2.12,7,7,0,0,1,1.55-.84,9.3,9.3,0,0,0,1.39-.63,3,3,0,0,0,1.1-1.69,3,3,0,0,1,1.84-1.89,4,4,0,0,1,2.61-.19,3.08,3.08,0,0,1,1.93,1.66A4.62,4.62,0,0,1,129.63,11.8Z"/><path class="cls-1" d="M137.69,12.21A14.66,14.66,0,0,1,145.12,7a9.19,9.19,0,0,1,5.47,0,5.39,5.39,0,0,1,5.17-1.76,8,8,0,0,1,5.17,3.11,8.46,8.46,0,0,0,.52,1.13c.25.49.51,1.05.75,1.66q2.66,5.46,1,14.61a45.17,45.17,0,0,1-8.07,19.44,18.86,18.86,0,0,1-4.24,4.18,13.63,13.63,0,0,1-9.28,3.09A11,11,0,0,1,135.89,51q-9.31-4.14-6.78-18.63A44.3,44.3,0,0,1,137.69,12.21Zm1.93,29,0,.33.13.59a5.62,5.62,0,0,0,1.21,2.55,4.11,4.11,0,0,0,1.31,1.06c.35-.3.7-.59,1.05-.86a4.62,4.62,0,0,0,.94-1,32.89,32.89,0,0,0,5.26-12.26,38.7,38.7,0,0,0,.93-13.82q-2,2.82-4.2,6.47c-1.47,2.44-2.61,4.51-3.45,6.22A29.56,29.56,0,0,0,139.62,41.17Z"/><path class="cls-1" d="M165.86,26q.93-3.71,1.53-5.73c.39-1.35.79-2.56,1.18-3.63a24.92,24.92,0,0,1,1.37-3.13,20.73,20.73,0,0,1,1.73-2.78,8.8,8.8,0,0,1,2.07-2,4.55,4.55,0,0,1,2.38-.82,4.48,4.48,0,0,1,2.66.87q2.41,5.35,3,7.2a67.86,67.86,0,0,1,1.53,7.64c.29-.85.63-1.75,1-2.7s.74-1.9,1.1-2.86a30.81,30.81,0,0,0,1.89-5.55A9.39,9.39,0,0,1,192,6.49a9.22,9.22,0,0,1,6.07-1.31,2.33,2.33,0,0,1,1.65.86,1.28,1.28,0,0,1,.06,1.47A2,2,0,0,0,199.55,9c.11.45.21,1,.31,1.6a8.11,8.11,0,0,1-.67,4.49,39.93,39.93,0,0,0-1.92,4.9c-.65,1.94-1.29,4-1.94,6.18s-1.32,4.4-2,6.65-1.33,4.31-2,6.16c-1.41,4.26-2.62,6.62-3.62,7.11a12.26,12.26,0,0,1-3,1.6,13.77,13.77,0,0,1-3.55.16q-1.43,0-2.62-3.55A34.63,34.63,0,0,1,177.27,39a43,43,0,0,0-1.49-6.44,86.71,86.71,0,0,1-2.69,9.09,16.71,16.71,0,0,1-1.26,2.51c-.29.42-.64,1-1.05,1.64a5,5,0,0,1-3.26,3,6.11,6.11,0,0,1-4.13.45c-1.37-.37-1.81-1.19-1.31-2.46Q162.38,40.28,165.86,26Z"/><path class="cls-1" d="M224.26,29.19a2.3,2.3,0,0,1-2-2.65,7.2,7.2,0,0,1,2.39-4.2,27.73,27.73,0,0,1,2.43-2.57q1.54-1.48,3.06-3.09c2.62-2.7,4.09-4.79,4.43-6.26-1.62.5-3,1-4.1,1.41a25.2,25.2,0,0,1-2.85.94,5.23,5.23,0,0,1-2,.17,2.51,2.51,0,0,1-1.45-.7,3.66,3.66,0,0,1-.91-1.44A5.69,5.69,0,0,1,222.88,9a2.49,2.49,0,0,1,1.9-2.82,1.39,1.39,0,0,0,.82-.53,8.82,8.82,0,0,0,.54-.85A3.06,3.06,0,0,1,228,3.26c.89-.36,1.91-.79,3-1.28s2.31-.92,3.53-1.3q6-1.91,9.8,1.54c1.79,1.63,2.56,4,2.33,7a18.12,18.12,0,0,1-1.35,5.26A14.34,14.34,0,0,1,243,17.65q-1.32,1.26-2.4,2.13c-.72.58-1.52,1.23-2.4,2a6.19,6.19,0,0,1,4.46,2,8.27,8.27,0,0,1,1.94,4.37c.49,3.56-.42,7.5-2.7,11.83q-3.9,7.17-17.71,9a13.62,13.62,0,0,1-6.42-.54,4.52,4.52,0,0,1-3.14-2.92,4.16,4.16,0,0,1-.2-2.7,6.41,6.41,0,0,1,1.2-2.49,5.4,5.4,0,0,1,2-1.59,2.76,2.76,0,0,1,2.35,0,18.77,18.77,0,0,0,4.21,0,18.26,18.26,0,0,0,5.17-2A10.07,10.07,0,0,0,231.56,35a10,10,0,0,0,1.79-2.38,3.07,3.07,0,0,0,.43-2.07c-.14-.57-.64-.86-1.52-.86s-2,0-3.33.09A16.51,16.51,0,0,1,224.26,29.19Z"/><path class="cls-2" d="M261.88,43.58a3.75,3.75,0,0,0-3.39.08c-.37.18-.71.42-1.09.6l-.13,0-.51.16c-1.1.37-2.22.71-3.34,1-2.33.64-4.69,1.22-7,1.8-4.7,1.15-9.43,2.25-14.13,3.4-9.19,2.25-18.25,4.88-27.5,6.89q-15,3.24-29.91,6.75c-2.45.58-4.9,1.16-7.34,1.79-3.42.87-6.89,1.65-10.28,2.65-2.46.73-1.5,4.61,1,3.88,3.21-.95,6.51-1.67,9.75-2.52,2-.52,4-1,6-1.48,5.53-1.32,11.08-2.59,16.63-3.85,4.22-1,8.43-1.9,12.66-2.81,4.45-1,8.9-1.93,13.32-3,4.67-1.17,9.28-2.54,14-3.71l6.87-1.68c-3,1.51-6.13,3.1-9,4.2a90.78,90.78,0,0,0-12.13,5.84c-4.17,2.36-8.5,4.41-12.65,6.78-2.28,1.29-4.51,2.65-6.82,3.88l-1.69.88-.57.27c.07,0-.08.06-.2.1l-.09,0a.2.2,0,0,0,.08,0,9,9,0,0,0-2.13.92c-2,1.25-2,4.22.46,4.92,1.6.45,3.47-.16,5-.49,2.63-.56,5.28-1.07,7.9-1.72s5-1.46,7.44-2.22a166.66,166.66,0,0,1,17.59-4.63c2.89-.57,5.8-1,8.73-1.28l2.71-.26a10.77,10.77,0,0,0-2.79,5.87,2,2,0,1,0,4,.09,7.11,7.11,0,0,1,2-3.57,19.52,19.52,0,0,1,1.82-2c.54-.5,1-1.25,1.64-1.58a2,2,0,0,0,.76-2.73,2,2,0,0,0-2.45-.86l-.11,0a6.47,6.47,0,0,0-.65-.07q-.45-.06-.9-.15a17.08,17.08,0,0,1-3-1.06,12.46,12.46,0,0,1-4.47-3c-1.76-1.89-4.62.91-2.86,2.8a18.55,18.55,0,0,0,3,2.47l.3.2-.87.09a102.63,102.63,0,0,0-11.81,2c-3.81.88-7.58,2-11.33,3.08s-7.51,2.43-11.37,3.31l-.72.16c1.51-.88,3-1.77,4.55-2.61,2.51-1.4,5.13-2.61,7.65-4,2.16-1.18,4.29-2.43,6.45-3.6a73.4,73.4,0,0,1,6.61-3.23c2.11-.89,4.26-1.67,6.34-2.64,4.29-2,8.46-4.21,12.68-6.34,2.09-1,4.2-2.1,6.36-3,1.35-.58,2.7-1.19,4.07-1.72.61-.24,1.25-.41,1.86-.65,1-.3,2.07-.57,3.07-1a2,2,0,0,0,0-3.46M194.16,79.89a1,1,0,0,0,.22-.1.49.49,0,0,1-.22.1"/></g></g></svg>