<svg xmlns="http://www.w3.org/2000/svg" xmlns:xlink="http://www.w3.org/1999/xlink" viewBox="0 0 870.36 49.54"><defs><style>.cls-1{fill:none;}.cls-2{isolation:isolate;}.cls-3{fill:#9e131a;}.cls-4{mix-blend-mode:overlay;}.cls-5{clip-path:url(#clip-path);}.cls-6{fill:#fff;}.cls-7{clip-path:url(#clip-path-2);}</style><clipPath id="clip-path" transform="translate(0 0)"><rect class="cls-1" x="729.27" width="141.1" height="47.73"/></clipPath><clipPath id="clip-path-2" transform="translate(0 0)"><rect class="cls-1" width="141.1" height="47.73"/></clipPath></defs><g class="cls-2"><g id="Layer_2" data-name="Layer 2"><g id="Layer_1-2" data-name="Layer 1"><path class="cls-3" d="M161.1,17.73h7.18V37.34h12.54v6.29H161.1Z" transform="translate(0 0)"/><path class="cls-3" d="M183.19,33.71v-.07c0-5.85,4.18-10.47,10.1-10.47,6.92,0,10.1,5.07,10.1,10.95,0,.44,0,1,0,1.44H190a4.13,4.13,0,0,0,4.33,3.3,6,6,0,0,0,4.44-2L202.61,40a10.48,10.48,0,0,1-8.69,4.07C187.63,44.11,183.19,39.93,183.19,33.71ZM196.8,32c-.25-2.22-1.55-3.62-3.47-3.62s-3.11,1.44-3.48,3.62Z" transform="translate(0 0)"/><path class="cls-3" d="M206.31,37.89v-.07c0-4.14,3.15-6.29,7.85-6.29a15.27,15.27,0,0,1,4.81.78V32c0-2.07-1.3-3.25-4-3.25a13.93,13.93,0,0,0-5.51,1.11l-1.45-5a20.07,20.07,0,0,1,8.11-1.56c3.59,0,6,.86,7.62,2.45s2.15,3.55,2.15,6.36V43.63h-7V41.56a7.57,7.57,0,0,1-5.88,2.51C209.24,44.07,206.31,41.89,206.31,37.89ZM219,36.38v-.93a7.47,7.47,0,0,0-2.74-.52c-2,0-3.22,1-3.22,2.48v.08a2.21,2.21,0,0,0,2.48,2.18A3.22,3.22,0,0,0,219,36.38Z" transform="translate(0 0)"/><path class="cls-3" d="M230.36,23.61h7v4c1.15-2.73,3-4.51,6.33-4.36v7.4h-.59c-3.66,0-5.74,2.11-5.74,6.73v6.22h-7Z" transform="translate(0 0)"/><path class="cls-3" d="M247.12,23.61h7v2.81a7.45,7.45,0,0,1,6-3.25c4.25,0,6.81,2.81,6.81,7.36v13.1h-7V32.79c0-2.19-1.15-3.37-2.82-3.37s-3,1.18-3,3.37V43.63h-7Z" transform="translate(0 0)"/><path class="cls-3" d="M283.09,17.73h7.17v9.69h9.22V17.73h7.18v25.9h-7.18V33.79h-9.22v9.84h-7.17Z" transform="translate(0 0)"/><path class="cls-3" d="M311.76,16.62h7.33V21.8h-7.33Zm.15,7h7v20h-7Z" transform="translate(0 0)"/><path class="cls-3" d="M323.79,23.61h7v2.66a7.34,7.34,0,0,1,6.06-3.1c4.78,0,8.88,4,8.88,10.36v.07c0,6.51-4.1,10.47-8.84,10.47a7.52,7.52,0,0,1-6.1-2.88v8.36h-7Zm15.06,10v-.08a4.11,4.11,0,1,0-8.18,0v.08c0,2.66,1.81,4.55,4.07,4.55S338.85,36.34,338.85,33.64Z" transform="translate(0 0)"/><path class="cls-3" d="M349.28,29h12.13v6.18H349.28Z" transform="translate(0 0)"/><path class="cls-3" d="M366.11,17.73h7.18v9.69h9.22V17.73h7.17v25.9h-7.17V33.79h-9.22v9.84h-7.18Z" transform="translate(0 0)"/><path class="cls-3" d="M394,33.71v-.07c0-5.7,4.67-10.47,11.1-10.47s11,4.7,11,10.39v.08c0,5.7-4.66,10.47-11.1,10.47S394,39.41,394,33.71Zm15.29,0v-.07A4.35,4.35,0,0,0,405,29.12a4.2,4.2,0,0,0-4.18,4.44v.08a4.33,4.33,0,0,0,4.25,4.51A4.19,4.19,0,0,0,409.26,33.71Z" transform="translate(0 0)"/><path class="cls-3" d="M420,23.61h7v2.66a7.37,7.37,0,0,1,6.07-3.1c4.78,0,8.88,4,8.88,10.36v.07c0,6.51-4.1,10.47-8.84,10.47A7.56,7.56,0,0,1,427,41.19v8.36h-7Zm15.06,10v-.08a4.11,4.11,0,1,0-8.17,0v.08c0,2.66,1.81,4.55,4.07,4.55S435,36.34,435,33.64Z" transform="translate(0 0)"/><path class="cls-3" d="M455.58,23.61h6.88l2.63,10.07,3.07-10.14H474l3.11,10.21,2.7-10.14h6.77l-6.18,20.17H474.3L471,33.38l-3.33,10.4h-6Z" transform="translate(0 0)"/><path class="cls-3" d="M489.8,16.62h7.33V21.8H489.8Zm.15,7h7v20h-7Z" transform="translate(0 0)"/><path class="cls-3" d="M503.05,37.41V29.27h-2.37V23.61h2.37V18.54h7v5.07h4.66v5.66h-4.66V36c0,1.41.63,2,1.92,2a6.26,6.26,0,0,0,2.67-.66v5.51A10.09,10.09,0,0,1,509.78,44C505.56,44,503.05,42.19,503.05,37.41Z" transform="translate(0 0)"/><path class="cls-3" d="M518.7,16.62h7v9.73a7.34,7.34,0,0,1,6-3.18c4.26,0,6.81,2.81,6.81,7.36v13.1h-7V32.79c0-2.19-1.15-3.37-2.81-3.37s-3,1.18-3,3.37V43.63h-7Z" transform="translate(0 0)"/><path class="cls-3" d="M555.44,37.41V29.27h-2.37V23.61h2.37V18.54h7v5.07h4.66v5.66h-4.66V36c0,1.41.63,2,1.92,2a6.26,6.26,0,0,0,2.67-.66v5.51A10.09,10.09,0,0,1,562.17,44C558,44,555.44,42.19,555.44,37.41Z" transform="translate(0 0)"/><path class="cls-3" d="M571.05,16.62h7v9.73a7.37,7.37,0,0,1,6-3.18c4.25,0,6.81,2.81,6.81,7.36v13.1h-7V32.79c0-2.19-1.15-3.37-2.82-3.37s-3,1.18-3,3.37V43.63h-7Z" transform="translate(0 0)"/><path class="cls-3" d="M594.62,33.71v-.07c0-5.85,4.18-10.47,10.1-10.47,6.92,0,10.1,5.07,10.1,10.95,0,.44,0,1,0,1.44h-13.4a4.14,4.14,0,0,0,4.33,3.3,6,6,0,0,0,4.44-2L614.05,40a10.5,10.5,0,0,1-8.7,4.07C599.06,44.11,594.62,39.93,594.62,33.71ZM608.24,32c-.26-2.22-1.56-3.62-3.48-3.62s-3.11,1.44-3.48,3.62Z" transform="translate(0 0)"/><path class="cls-3" d="M629.88,23.61h7v2.66a7.36,7.36,0,0,1,6.07-3.1c4.77,0,8.88,4,8.88,10.36v.07c0,6.51-4.11,10.47-8.84,10.47a7.54,7.54,0,0,1-6.11-2.88v8.36h-7Zm15.06,10v-.08a4.11,4.11,0,1,0-8.18,0v.08a4.24,4.24,0,0,0,4.07,4.55C643.13,38.19,644.94,36.34,644.94,33.64Z" transform="translate(0 0)"/><path class="cls-3" d="M655.78,23.61h7v4c1.15-2.73,3-4.51,6.33-4.36v7.4h-.59c-3.67,0-5.74,2.11-5.74,6.73v6.22h-7Z" transform="translate(0 0)"/><path class="cls-3" d="M671.32,33.71v-.07c0-5.7,4.66-10.47,11.1-10.47s11,4.7,11,10.39v.08c0,5.7-4.66,10.47-11.1,10.47S671.32,39.41,671.32,33.71Zm15.28,0v-.07a4.34,4.34,0,0,0-4.25-4.52,4.2,4.2,0,0,0-4.18,4.44v.08a4.33,4.33,0,0,0,4.25,4.51A4.18,4.18,0,0,0,686.6,33.71Z" transform="translate(0 0)"/><path class="cls-3" d="M695.74,41.11l2.63-4.25a13,13,0,0,0,6.88,2.29c1.22,0,1.78-.37,1.78-1.07V38c0-.77-1.11-1.11-3.22-1.7-4-1-7.11-2.37-7.11-6.4v-.07c0-4.26,3.41-6.63,8-6.63A15.62,15.62,0,0,1,713,25.53L710.58,30a13.52,13.52,0,0,0-5.92-1.86c-1.07,0-1.63.41-1.63,1v.07c0,.78,1.15,1.15,3.26,1.78,4,1.11,7.1,2.48,7.1,6.36v.08c0,4.4-3.29,6.69-8.18,6.69A16.15,16.15,0,0,1,695.74,41.11Z" transform="translate(0 0)"/><g class="cls-4"><g class="cls-5"><path class="cls-6" d="M729.26,47.73S775.83,3.1,777.12,22.51s14.23,5.17,44-16.17,28.46,18.11,28.46,18.11S869.45,4.55,870.34,26a33.67,33.67,0,0,1-.5,7.23L867,47.73Z" transform="translate(0 0)"/></g></g><g class="cls-4"><g class="cls-7"><path class="cls-6" d="M141.1,47.73S94.54,3.1,93.24,22.51,79,27.68,49.27,6.34,20.81,24.45,20.81,24.45.92,4.55,0,26a34.31,34.31,0,0,0,.49,7.23L3.35,47.73Z" transform="translate(0 0)"/></g></g></g></g></g></svg>