<svg xmlns="http://www.w3.org/2000/svg" viewBox="0 0 104.34 223.55"><defs><style>.cls-1{fill:#febb12;}.cls-2{fill:#ed3045;}.cls-3{fill:#fff;}.cls-4{fill:#050505;}</style></defs><g id="Layer_2" data-name="Layer 2"><g id="Layer_1-2" data-name="Layer 1"><path class="cls-1" d="M51.15,159.73c4.68,3.61,10.88,1,14.88-2.41a75.83,75.83,0,0,0,14.84-18.09,59.56,59.56,0,0,0,5.76-12.41,16.77,16.77,0,0,1,10.12,6.83c6.17,8.81,4.39,22,1.25,31.55a43.8,43.8,0,0,1-5.62,11.21c-5.53-5.13-14.27-6.18-22-3.1-4.88,1.94-9.61,5.79-11.49,10.82-1.72,4.58-.55,10.5,4.42,12.4,5.35,2.05,11.94-.73,16.49-3.48a53.65,53.65,0,0,0,12.69-11,16.44,16.44,0,0,1,1.65,4.62C96.39,198,92,211.63,85.32,220.75c-1.33,1.82,1.48,3.92,2.81,2.1,7.35-10,12.21-25.24,9.26-37.66a17.93,17.93,0,0,0-2.59-6c7.85-10.54,11.52-26.29,8.47-39.13a22.24,22.24,0,0,0-15.69-16.65,41.68,41.68,0,0,0,.86-4.72c1.78-14.35-5-31.25-19.86-35.44-2.15-.6-3.48,2.65-1.31,3.26,11.1,3.13,17,14,17.87,25a35.73,35.73,0,0,1-1,11.2,23,23,0,0,0-5.85.1c-6.94,1-13.12,5-18.17,9.65C56,136.4,51.53,141,49,146.15c-2.22,4.54-2.2,10.25,2.13,13.58M79,189.42c-3.66,2.42-10.62,6.05-15,3.54-5.73-3.3-.56-10.93,2.91-13.65a20.82,20.82,0,0,1,14.86-4.07,13.47,13.47,0,0,1,8.54,3.92A49.43,49.43,0,0,1,79,189.42m-22.4-48.08a56.12,56.12,0,0,1,11.25-10.52,25.81,25.81,0,0,1,15.24-4.48,58.79,58.79,0,0,1-7.81,15,144,144,0,0,1-9.52,11.25c-3.41,3.91-12.89,9.23-14.66.8-.94-4.48,2.82-8.92,5.5-12.07"/><path class="cls-2" d="M60.09,30A30,30,0,1,1,30,0,30,30,0,0,1,60.09,30"/><path class="cls-3" d="M49.91,18c1.36,4.87-4.46,8.1-9,6.8-4.52-1.93-8.4-7.1-5.82-12.27,2.59-4.53,9-3.88,12-.32A9.79,9.79,0,0,1,49.91,18"/><path class="cls-4" d="M11.65,27.23a2.62,2.62,0,0,1,.3.49l.3.56.58,1.12c.39.74.75,1.47,1.15,2.17.76,1.4,1.51,2.72,2.32,3.93a31.77,31.77,0,0,0,5.32,6.4A34.49,34.49,0,0,0,25,44.58,45,45,0,0,0,29,47c1.45.83,3,1.55,4.68,2.37.83.39,1.69.77,2.57,1.22S38.06,51.46,39,52a22,22,0,0,1-11.86,2.85,22.74,22.74,0,0,1-12.37-4.06,22.22,22.22,0,0,1-9.55-17,19.35,19.35,0,0,1,.1-3.23c.06-.54.15-1.07.26-1.61.06-.27.12-.54.2-.81L6,27.18a2.58,2.58,0,0,1,3.22-1.75,2.54,2.54,0,0,1,1,.54Z"/></g></g></svg>