<svg xmlns="http://www.w3.org/2000/svg" viewBox="0 0 228.7 65.33"><defs><style>.cls-1{fill:#8a2c74;}.cls-2{isolation:isolate;}.cls-3{fill:#000718;}.cls-4{fill:#fefefe;}</style></defs><title>button_submit_1</title><g id="Layer_2" data-name="Layer 2"><g id="Layer_1-2" data-name="Layer 1"><path class="cls-1" d="M12.43,0H216.26A12.44,12.44,0,0,1,228.7,12.43V52.89a12.44,12.44,0,0,1-12.44,12.44H12.43A12.44,12.44,0,0,1,0,52.89V12.43A12.45,12.45,0,0,1,12.43,0"/><g class="cls-2"><path class="cls-3" d="M66.6,33.44a4.44,4.44,0,0,1,1.81,3.88,4.79,4.79,0,0,1-2.63,4.19,13.24,13.24,0,0,1-7,1.61,12.15,12.15,0,0,1-6.74-1.59,4.59,4.59,0,0,1-2.41-3.9q0-.57.6-.57h5.33a1.24,1.24,0,0,1,.88.32,3.72,3.72,0,0,0,2.53.67c1.64,0,2.47-.25,2.47-.73q0-.45-.78-.72a18.76,18.76,0,0,0-3.1-.51q-7.35-.86-7.36-5.45a4.84,4.84,0,0,1,2.37-4.18,11.2,11.2,0,0,1,6.33-1.6,11,11,0,0,1,6.41,1.72q2.44,1.71,2.44,3.62a.5.5,0,0,1-.17.41.61.61,0,0,1-.45.16H61.57a1.2,1.2,0,0,1-.81-.3,2.78,2.78,0,0,0-1.87-.54c-1.16,0-1.74.24-1.74.71,0,.25.23.45.68.59a17.42,17.42,0,0,0,2.7.44C63.37,32,65.4,32.57,66.6,33.44Z"/><path class="cls-3" d="M88.13,41.24a11.51,11.51,0,0,1-6.93,1.88,11.51,11.51,0,0,1-6.93-1.88q-2.56-1.87-2.56-5.85V25.58a.63.63,0,0,1,.21-.48.67.67,0,0,1,.49-.21h5.44a.7.7,0,0,1,.49.2.67.67,0,0,1,.21.49V35.75a1.93,1.93,0,0,0,.71,1.6,3.59,3.59,0,0,0,3.88,0,1.93,1.93,0,0,0,.71-1.6V25.58a.67.67,0,0,1,.21-.49.7.7,0,0,1,.49-.2H90a.67.67,0,0,1,.49.21.63.63,0,0,1,.21.48v9.81Q90.69,39.36,88.13,41.24Z"/><path class="cls-3" d="M113.21,37.37q0,5.72-7.34,5.72H95.16a.72.72,0,0,1-.7-.7V25.59a.72.72,0,0,1,.7-.7h10.45q3.69,0,5.45,1.34a4.76,4.76,0,0,1,1.76,4v.08a3.41,3.41,0,0,1-.68,2.13,3.06,3.06,0,0,1-1.4,1.12A3.36,3.36,0,0,1,112.48,35,4.2,4.2,0,0,1,113.21,37.37Zm-7.71-6a1.4,1.4,0,0,0,.27-.84,1.26,1.26,0,0,0-.27-.81,1,1,0,0,0-.8-.34h-3.48v2.37h3.48A.94.94,0,0,0,105.5,31.35Zm-4.28,4.72v2.55H105a1.05,1.05,0,0,0,.9-.41,1.43,1.43,0,0,0,.3-.89v0a1.25,1.25,0,0,0-.33-.86,1.12,1.12,0,0,0-.87-.36Z"/><path class="cls-3" d="M129.92,24.89h4.76a.69.69,0,0,1,.5.21.7.7,0,0,1,.2.49v16.8a.7.7,0,0,1-.2.49.69.69,0,0,1-.5.21H130a.72.72,0,0,1-.71-.7V34.33l-1.89,3.74a1.09,1.09,0,0,1-.47.48,1.25,1.25,0,0,1-.63.17h-1.76a1.14,1.14,0,0,1-.73-.23,1.45,1.45,0,0,1-.37-.42l-1.89-3.74v8.06a.67.67,0,0,1-.21.49.69.69,0,0,1-.5.21h-4.7a.69.69,0,0,1-.5-.21.66.66,0,0,1-.2-.49V25.59a.66.66,0,0,1,.2-.49.69.69,0,0,1,.5-.21h4.76a1.21,1.21,0,0,1,1.11.7l3.41,6.24,3.41-6.24A1.21,1.21,0,0,1,129.92,24.89Z"/><path class="cls-3" d="M155.74,30.22H151v7.54h4.7a.69.69,0,0,1,.5.21.7.7,0,0,1,.2.49v3.93a.7.7,0,0,1-.2.49.69.69,0,0,1-.5.21H139.26a.69.69,0,0,1-.5-.21.67.67,0,0,1-.21-.49V38.46a.67.67,0,0,1,.21-.49.69.69,0,0,1,.5-.21H144V30.22h-4.75a.69.69,0,0,1-.5-.21.67.67,0,0,1-.21-.49V25.59a.67.67,0,0,1,.21-.49.69.69,0,0,1,.5-.21h16.48a.69.69,0,0,1,.5.21.7.7,0,0,1,.2.49v3.93a.7.7,0,0,1-.2.49A.69.69,0,0,1,155.74,30.22Z"/><path class="cls-3" d="M160.63,24.89h17.94a.72.72,0,0,1,.7.7v4.19a.72.72,0,0,1-.7.7H173V42.39a.72.72,0,0,1-.7.7h-5.36a.72.72,0,0,1-.7-.7V30.48h-5.59a.69.69,0,0,1-.5-.21.7.7,0,0,1-.2-.49V25.59a.7.7,0,0,1,.2-.49A.69.69,0,0,1,160.63,24.89Z"/></g><g class="cls-2"><path class="cls-4" d="M66.12,30.44a4.44,4.44,0,0,1,1.81,3.88,4.79,4.79,0,0,1-2.63,4.19,13.24,13.24,0,0,1-7,1.61,12.15,12.15,0,0,1-6.74-1.59,4.59,4.59,0,0,1-2.41-3.9q0-.57.6-.57h5.33a1.24,1.24,0,0,1,.88.32,3.72,3.72,0,0,0,2.53.67c1.64,0,2.47-.25,2.47-.73q0-.45-.78-.72a18.76,18.76,0,0,0-3.1-.51q-7.35-.86-7.36-5.45a4.84,4.84,0,0,1,2.37-4.18,11.2,11.2,0,0,1,6.33-1.6,11,11,0,0,1,6.41,1.72q2.44,1.71,2.44,3.62a.5.5,0,0,1-.17.41.61.61,0,0,1-.45.16H61.09a1.2,1.2,0,0,1-.81-.3,2.78,2.78,0,0,0-1.87-.54c-1.16,0-1.74.24-1.74.71,0,.25.23.45.68.59a17.42,17.42,0,0,0,2.7.44C62.89,29,64.92,29.57,66.12,30.44Z"/><path class="cls-4" d="M87.65,38.24a11.51,11.51,0,0,1-6.93,1.88,11.51,11.51,0,0,1-6.93-1.88q-2.57-1.87-2.56-5.85V22.58a.63.63,0,0,1,.21-.48.67.67,0,0,1,.49-.21h5.44a.7.7,0,0,1,.49.2.67.67,0,0,1,.21.49V32.75a1.93,1.93,0,0,0,.71,1.6,3.59,3.59,0,0,0,3.88,0,1.93,1.93,0,0,0,.71-1.6V22.58a.67.67,0,0,1,.21-.49.7.7,0,0,1,.49-.2h5.44a.67.67,0,0,1,.49.21.63.63,0,0,1,.21.48v9.81Q90.21,36.36,87.65,38.24Z"/><path class="cls-4" d="M112.73,34.37q0,5.72-7.34,5.72H94.68a.72.72,0,0,1-.7-.7V22.59a.72.72,0,0,1,.7-.7h10.45q3.69,0,5.45,1.34a4.76,4.76,0,0,1,1.76,4v.08a3.41,3.41,0,0,1-.68,2.13,3.06,3.06,0,0,1-1.4,1.12A3.36,3.36,0,0,1,112,32,4.2,4.2,0,0,1,112.73,34.37Zm-7.71-6a1.4,1.4,0,0,0,.27-.84,1.26,1.26,0,0,0-.27-.81,1,1,0,0,0-.8-.34h-3.48v2.37h3.48A.94.94,0,0,0,105,28.35Zm-4.28,4.72v2.55h3.77a1.05,1.05,0,0,0,.9-.41,1.43,1.43,0,0,0,.3-.89v0a1.25,1.25,0,0,0-.33-.86,1.12,1.12,0,0,0-.87-.36Z"/><path class="cls-4" d="M129.44,21.89h4.76a.69.69,0,0,1,.5.21.7.7,0,0,1,.2.49v16.8a.7.7,0,0,1-.2.49.69.69,0,0,1-.5.21h-4.7a.72.72,0,0,1-.71-.7V31.33l-1.89,3.74a1.09,1.09,0,0,1-.47.48,1.25,1.25,0,0,1-.63.17H124a1.14,1.14,0,0,1-.73-.23,1.45,1.45,0,0,1-.37-.42L121,31.33v8.06a.66.66,0,0,1-.2.49.69.69,0,0,1-.5.21h-4.7a.69.69,0,0,1-.5-.21.66.66,0,0,1-.2-.49V22.59a.66.66,0,0,1,.2-.49.69.69,0,0,1,.5-.21h4.76a1.21,1.21,0,0,1,1.11.7l3.41,6.24,3.41-6.24A1.2,1.2,0,0,1,129.44,21.89Z"/><path class="cls-4" d="M155.26,27.22h-4.71v7.54h4.71a.65.65,0,0,1,.49.21.67.67,0,0,1,.21.49v3.93a.67.67,0,0,1-.21.49.65.65,0,0,1-.49.21H138.78a.69.69,0,0,1-.5-.21.66.66,0,0,1-.2-.49V35.46a.66.66,0,0,1,.2-.49.69.69,0,0,1,.5-.21h4.76V27.22h-4.76a.69.69,0,0,1-.5-.21.66.66,0,0,1-.2-.49V22.59a.66.66,0,0,1,.2-.49.69.69,0,0,1,.5-.21h16.48a.65.65,0,0,1,.49.21.67.67,0,0,1,.21.49v3.93a.67.67,0,0,1-.21.49A.65.65,0,0,1,155.26,27.22Z"/><path class="cls-4" d="M160.15,21.89h17.94a.72.72,0,0,1,.7.7v4.19a.72.72,0,0,1-.7.7H172.5V39.39a.72.72,0,0,1-.7.7h-5.36a.72.72,0,0,1-.7-.7V27.48h-5.59a.65.65,0,0,1-.49-.21.67.67,0,0,1-.21-.49V22.59a.67.67,0,0,1,.21-.49A.65.65,0,0,1,160.15,21.89Z"/></g></g></g></svg>