<svg width="73" height="72" viewBox="0 0 73 72" fill="none" xmlns="http://www.w3.org/2000/svg">
<g clip-path="url(#clip0_2_2)">
<g filter="url(#filter0_d_2_2)">
<circle cx="38" cy="37" r="35" fill="#BBBBBB" fill-opacity="0.1" shape-rendering="crispEdges"/>
<circle cx="38" cy="37" r="32" stroke="#262624" stroke-width="6" shape-rendering="crispEdges"/>
<circle cx="38" cy="37" r="32" stroke="#046902" stroke-width="6" shape-rendering="crispEdges"/>
</g>
<path d="M22.985 25.8924L28.9815 22.8099L30.8155 24.56L22.0407 28.7649L20.1597 26.9699L23.95 18.0082L25.7839 19.7584L22.985 25.8924ZM33.6285 30.6588C33.9875 30.2826 33.9789 29.915 33.6027 29.556L32.0039 28.0302C31.6277 27.6712 31.2601 27.6798 30.9011 28.056L28.0291 31.0655C27.6701 31.4417 27.6787 31.8093 28.0549 32.1683L29.6537 33.6941C30.0299 34.0531 30.3975 34.0445 30.7565 33.6683L33.6285 30.6588ZM32.4494 35.2838C31.8211 35.9421 31.2129 36.2782 30.6248 36.2919C30.0489 36.3054 29.4317 35.998 28.7734 35.3697L26.4222 33.126C25.7639 32.4977 25.4249 31.8926 25.4051 31.3108C25.3976 30.7286 25.708 30.1083 26.3363 29.45L29.2083 26.4405C29.8365 25.7822 30.4386 25.4463 31.0145 25.4328C31.6027 25.4191 32.2259 25.7263 32.8842 26.3546L35.2354 28.5983C35.8938 29.2266 36.2267 29.8318 36.2341 30.4139C36.2539 30.9958 35.9496 31.6159 35.3214 32.2743L32.4494 35.2838ZM34.8866 41.0239L33.1937 39.4084L38.2198 34.1417L36.2448 32.257L37.5013 30.9403L43.1441 36.3253L41.8876 37.642L39.9126 35.7572L34.8866 41.0239ZM42.7407 48.5191L37.521 43.538L43.8035 36.9546L49.0232 41.9358L47.7667 43.2524L44.2399 39.8868L43.0283 41.1564L45.8027 43.8041L44.5462 45.1207L41.7718 42.4731L40.4704 43.8368L43.9972 47.2024L42.7407 48.5191ZM53.4412 46.1519C54.1497 46.8281 54.5092 47.5246 54.5199 48.2415C54.5428 48.9582 54.2161 49.6708 53.54 50.3793L51.386 52.6364C50.7099 53.3449 50.0104 53.7076 49.2874 53.7245C48.5767 53.7411 47.8672 53.4114 47.1587 52.7352L43.4908 49.235L49.7733 42.6517L53.4412 46.1519ZM51.8472 48.7638C52.3857 48.1995 52.3728 47.6481 51.8085 47.1096L50.2097 45.5838L46.4402 49.5338L48.039 51.0596C48.6033 51.5981 49.1547 51.5852 49.6932 51.0209L51.8472 48.7638Z" fill="#006A17"/>
<path d="M22.985 25.8924L22.0752 25.4773L20.8787 28.0996L23.4422 26.7818L22.985 25.8924ZM28.9815 22.8099L29.6719 22.0864L29.1572 21.5952L28.5244 21.9205L28.9815 22.8099ZM30.8155 24.56L31.2476 25.4618L32.5533 24.8361L31.5058 23.8366L30.8155 24.56ZM22.0407 28.7649L21.3503 29.4884L21.85 29.9652L22.4728 29.6667L22.0407 28.7649ZM20.1597 26.9699L19.2387 26.5804L18.9697 27.2165L19.4694 27.6934L20.1597 26.9699ZM23.95 18.0082L24.6404 17.2848L23.593 16.2852L23.029 17.6187L23.95 18.0082ZM25.7839 19.7584L26.6937 20.1735L26.9891 19.5262L26.4743 19.0349L25.7839 19.7584ZM23.4422 26.7818L29.4387 23.6992L28.5244 21.9205L22.5278 25.0031L23.4422 26.7818ZM28.2912 23.5333L30.1251 25.2834L31.5058 23.8366L29.6719 22.0864L28.2912 23.5333ZM30.3833 23.6582L21.6085 27.8631L22.4728 29.6667L31.2476 25.4618L30.3833 23.6582ZM22.7311 28.0415L20.8501 26.2465L19.4694 27.6934L21.3503 29.4884L22.7311 28.0415ZM21.0808 27.3595L24.871 18.3978L23.029 17.6187L19.2387 26.5804L21.0808 27.3595ZM23.2596 18.7317L25.0935 20.4818L26.4743 19.0349L24.6404 17.2848L23.2596 18.7317ZM24.8742 19.3432L22.0752 25.4773L23.8947 26.3076L26.6937 20.1735L24.8742 19.3432ZM30.6248 36.2919L30.6014 35.2922L30.6014 35.2922L30.6248 36.2919ZM25.4051 31.3108L24.4052 31.3236L24.4053 31.3341L24.4057 31.3447L25.4051 31.3108ZM31.0145 25.4328L30.9911 24.4331L30.9911 24.4331L31.0145 25.4328ZM36.2341 30.4139L35.2342 30.4268L35.2344 30.4373L35.2347 30.4478L36.2341 30.4139ZM34.352 31.3491C34.6379 31.0495 34.9037 30.62 34.8911 30.0775C34.8784 29.5351 34.5927 29.1185 34.2931 28.8325L32.9123 30.2794C32.9889 30.3525 32.8957 30.2992 32.8916 30.1243C32.8875 29.9494 32.9782 29.8918 32.9051 29.9684L34.352 31.3491ZM34.2931 28.8325L32.6943 27.3068L31.3135 28.7537L32.9123 30.2794L34.2931 28.8325ZM32.6943 27.3068C32.3947 27.0209 31.9652 26.755 31.4227 26.7677C30.8803 26.7804 30.4636 27.066 30.1777 27.3656L31.6246 28.7464C31.6977 28.6698 31.6443 28.7631 31.4695 28.7671C31.2946 28.7712 31.237 28.6806 31.3135 28.7537L32.6943 27.3068ZM30.1777 27.3656L27.3057 30.3751L28.7526 31.7559L31.6246 28.7464L30.1777 27.3656ZM27.3057 30.3751C27.0198 30.6747 26.7539 31.1043 26.7666 31.6467C26.7793 32.1892 27.0649 32.6058 27.3645 32.8917L28.7453 31.4449C28.6687 31.3718 28.762 31.4251 28.7661 31.6C28.7701 31.7748 28.6795 31.8325 28.7526 31.7559L27.3057 30.3751ZM27.3645 32.8917L28.9633 34.4175L30.3441 32.9706L28.7453 31.4449L27.3645 32.8917ZM28.9633 34.4175C29.2629 34.7034 29.6925 34.9693 30.2349 34.9566C30.7774 34.9439 31.194 34.6583 31.48 34.3587L30.0331 32.9779C29.96 33.0545 30.0133 32.9612 30.1882 32.9571C30.3631 32.953 30.4207 33.0437 30.3441 32.9706L28.9633 34.4175ZM31.48 34.3587L34.352 31.3491L32.9051 29.9684L30.0331 32.9779L31.48 34.3587ZM31.7259 34.5934C31.1831 35.1622 30.8103 35.2873 30.6014 35.2922L30.6481 37.2916C31.6155 37.269 32.4592 36.722 33.1728 35.9742L31.7259 34.5934ZM30.6014 35.2922C30.4094 35.2967 30.0379 35.1941 29.4638 34.6463L28.083 36.0932C28.8256 36.8018 29.6884 37.3141 30.6481 37.2916L30.6014 35.2922ZM29.4638 34.6463L27.1126 32.4025L25.7318 33.8494L28.083 36.0932L29.4638 34.6463ZM27.1126 32.4025C26.5403 31.8564 26.4115 31.4829 26.4046 31.2769L24.4057 31.3447C24.4382 32.3024 24.9875 33.1391 25.7318 33.8494L27.1126 32.4025ZM26.405 31.2979C26.4024 31.0918 26.5136 30.7127 27.0597 30.1404L25.6128 28.7596C24.9025 29.504 24.3929 30.3654 24.4052 31.3236L26.405 31.2979ZM27.0597 30.1404L29.9317 27.1309L28.4849 25.7501L25.6128 28.7596L27.0597 30.1404ZM29.9317 27.1309C30.4796 26.5568 30.8459 26.437 31.0379 26.4325L30.9911 24.4331C30.0314 24.4555 29.1935 25.0075 28.4849 25.7501L29.9317 27.1309ZM31.0379 26.4325C31.2468 26.4276 31.625 26.5351 32.1939 27.078L33.5746 25.6311C32.8268 24.9175 31.9586 24.4105 30.9911 24.4331L31.0379 26.4325ZM32.1939 27.078L34.545 29.3218L35.9258 27.8749L33.5746 25.6311L32.1939 27.078ZM34.545 29.3218C35.1156 29.8663 35.2317 30.2319 35.2342 30.4268L37.2341 30.4011C37.2216 29.4317 36.6719 28.5869 35.9258 27.8749L34.545 29.3218ZM35.2347 30.4478C35.2413 30.6427 35.1424 31.0133 34.5979 31.5839L36.0448 32.9647C36.7568 32.2186 37.2664 31.349 37.2336 30.38L35.2347 30.4478ZM34.5979 31.5839L31.7259 34.5934L33.1728 35.9742L36.0448 32.9647L34.5979 31.5839ZM34.8866 41.0239L34.1962 41.7473L34.9197 42.4377L35.61 41.7143L34.8866 41.0239ZM33.1937 39.4084L32.4703 38.718L31.7799 39.4414L32.5034 40.1318L33.1937 39.4084ZM38.2198 34.1417L38.9432 34.8321L39.6336 34.1087L38.9101 33.4183L38.2198 34.1417ZM36.2448 32.257L35.5213 31.5666L34.8309 32.29L35.5544 32.9804L36.2448 32.257ZM37.5013 30.9403L38.1917 30.2169L37.4682 29.5265L36.7778 30.2499L37.5013 30.9403ZM43.1441 36.3253L43.8675 37.0157L44.5579 36.2923L43.8345 35.6019L43.1441 36.3253ZM41.8876 37.642L41.1972 38.3654L41.9207 39.0558L42.611 38.3324L41.8876 37.642ZM39.9126 35.7572L40.603 35.0338L39.8796 34.3434L39.1892 35.0669L39.9126 35.7572ZM35.577 40.3005L33.8841 38.6849L32.5034 40.1318L34.1962 41.7473L35.577 40.3005ZM33.9172 40.0988L38.9432 34.8321L37.4963 33.4514L32.4703 38.718L33.9172 40.0988ZM38.9101 33.4183L36.9352 31.5335L35.5544 32.9804L37.5294 34.8652L38.9101 33.4183ZM36.9682 32.9474L38.2247 31.6307L36.7778 30.2499L35.5213 31.5666L36.9682 32.9474ZM36.8109 31.6638L42.4537 37.0488L43.8345 35.6019L38.1917 30.2169L36.8109 31.6638ZM42.4207 35.6349L41.1642 36.9516L42.611 38.3324L43.8675 37.0157L42.4207 35.6349ZM42.578 36.9186L40.603 35.0338L39.2222 36.4807L41.1972 38.3654L42.578 36.9186ZM39.1892 35.0669L34.1632 40.3335L35.61 41.7143L40.6361 36.4476L39.1892 35.0669ZM42.7407 48.5191L42.0503 49.2425L42.7737 49.9329L43.4641 49.2095L42.7407 48.5191ZM37.521 43.538L36.7976 42.8476L36.1072 43.571L36.8306 44.2614L37.521 43.538ZM43.8035 36.9546L44.4939 36.2312L43.7705 35.5408L43.0801 36.2643L43.8035 36.9546ZM49.0232 41.9358L49.7466 42.6262L50.437 41.9027L49.7136 41.2123L49.0232 41.9358ZM47.7667 43.2524L47.0763 43.9759L47.7997 44.6663L48.4901 43.9428L47.7667 43.2524ZM44.2399 39.8868L44.9303 39.1634L44.2068 38.473L43.5164 39.1964L44.2399 39.8868ZM43.0283 41.1564L42.3048 40.4661L41.6144 41.1895L42.3379 41.8799L43.0283 41.1564ZM45.8027 43.8041L46.5261 44.4945L47.2165 43.771L46.493 43.0806L45.8027 43.8041ZM44.5462 45.1207L43.8558 45.8442L44.5792 46.5346L45.2696 45.8111L44.5462 45.1207ZM41.7718 42.4731L42.4621 41.7497L41.7387 41.0593L41.0483 41.7827L41.7718 42.4731ZM40.4704 43.8368L39.7469 43.1464L39.0566 43.8698L39.78 44.5602L40.4704 43.8368ZM43.9972 47.2024L44.7206 47.8928L45.411 47.1694L44.6875 46.479L43.9972 47.2024ZM43.431 47.7956L38.2114 42.8145L36.8306 44.2614L42.0503 49.2425L43.431 47.7956ZM38.2445 44.2283L44.527 37.645L43.0801 36.2643L36.7976 42.8476L38.2445 44.2283ZM43.1132 37.6781L48.3328 42.6592L49.7136 41.2123L44.4939 36.2312L43.1132 37.6781ZM48.2997 41.2454L47.0432 42.5621L48.4901 43.9428L49.7466 42.6262L48.2997 41.2454ZM48.4571 42.529L44.9303 39.1634L43.5495 40.6102L47.0763 43.9759L48.4571 42.529ZM43.5164 39.1964L42.3048 40.4661L43.7517 41.8468L44.9633 40.5772L43.5164 39.1964ZM42.3379 41.8799L45.1123 44.5275L46.493 43.0806L43.7186 40.433L42.3379 41.8799ZM45.0792 43.1137L43.8227 44.4304L45.2696 45.8111L46.5261 44.4945L45.0792 43.1137ZM45.2365 44.3973L42.4621 41.7497L41.0814 43.1965L43.8558 45.8442L45.2365 44.3973ZM41.0483 41.7827L39.7469 43.1464L41.1938 44.5272L42.4952 43.1635L41.0483 41.7827ZM39.78 44.5602L43.3068 47.9259L44.6875 46.479L41.1608 43.1134L39.78 44.5602ZM43.2737 46.512L42.0172 47.8287L43.4641 49.2095L44.7206 47.8928L43.2737 46.512ZM54.5199 48.2415L53.52 48.2564L53.5201 48.2649L53.5204 48.2735L54.5199 48.2415ZM49.2874 53.7245L49.3108 54.7242L49.3108 54.7242L49.2874 53.7245ZM43.4908 49.235L42.7674 48.5446L42.077 49.268L42.8004 49.9584L43.4908 49.235ZM49.7733 42.6517L50.4637 41.9282L49.7403 41.2378L49.0499 41.9613L49.7733 42.6517ZM50.2097 45.5838L50.9001 44.8604L50.1766 44.17L49.4862 44.8935L50.2097 45.5838ZM46.4402 49.5338L45.7167 48.8434L45.0264 49.5669L45.7498 50.2573L46.4402 49.5338ZM52.7508 46.8754C53.3382 47.4359 53.5146 47.8939 53.52 48.2564L55.5198 48.2267C55.5039 47.1553 54.9612 46.2202 54.1316 45.4285L52.7508 46.8754ZM53.5204 48.2735C53.532 48.6358 53.3771 49.1015 52.8166 49.6889L54.2635 51.0697C55.0552 50.24 55.5536 49.2806 55.5194 48.2096L53.5204 48.2735ZM52.8166 49.6889L50.6626 51.946L52.1095 53.3268L54.2635 51.0697L52.8166 49.6889ZM50.6626 51.946C50.1029 52.5325 49.6388 52.716 49.2641 52.7248L49.3108 54.7242C50.3819 54.6992 51.3169 54.1573 52.1095 53.3268L50.6626 51.946ZM49.2641 52.7248C48.9057 52.7332 48.4397 52.5754 47.8491 52.0118L46.4683 53.4587C47.2947 54.2473 48.2478 54.7491 49.3108 54.7242L49.2641 52.7248ZM47.8491 52.0118L44.1812 48.5115L42.8004 49.9584L46.4683 53.4587L47.8491 52.0118ZM44.2143 49.9254L50.4968 43.3421L49.0499 41.9613L42.7674 48.5446L44.2143 49.9254ZM49.083 43.3751L52.7508 46.8754L54.1316 45.4285L50.4637 41.9282L49.083 43.3751ZM52.5706 49.4542C52.9463 49.0605 53.2559 48.538 53.2411 47.9036C53.2263 47.2693 52.8925 46.7618 52.4989 46.3862L51.1181 47.833C51.2011 47.9122 51.234 47.964 51.2446 47.9839C51.2528 47.9993 51.2425 47.9853 51.2416 47.9504C51.2408 47.9155 51.2505 47.901 51.243 47.9168C51.2334 47.9372 51.2029 47.9904 51.1237 48.0734L52.5706 49.4542ZM52.4989 46.3862L50.9001 44.8604L49.5193 46.3073L51.1181 47.833L52.4989 46.3862ZM49.4862 44.8935L45.7167 48.8434L47.1636 50.2242L50.9331 46.2742L49.4862 44.8935ZM45.7498 50.2573L47.3486 51.783L48.7294 50.3361L47.1306 48.8104L45.7498 50.2573ZM47.3486 51.783C47.7423 52.1587 48.2648 52.4683 48.8991 52.4535C49.5335 52.4387 50.0409 52.105 50.4166 51.7113L48.9697 50.3305C48.8906 50.4135 48.8388 50.4465 48.8189 50.457C48.8035 50.4652 48.8175 50.4549 48.8524 50.4541C48.8872 50.4532 48.9017 50.4629 48.886 50.4554C48.8656 50.4458 48.8123 50.4153 48.7294 50.3361L47.3486 51.783ZM50.4166 51.7113L52.5706 49.4542L51.1237 48.0734L48.9697 50.3305L50.4166 51.7113Z" fill="#BFBFBF"/>
<g filter="url(#filter1_d_2_2)">
<line x1="15.7071" y1="16.2929" x2="19.7071" y2="20.2929" stroke="#046902" stroke-width="2"/>
</g>
<g filter="url(#filter2_d_2_2)">
<line x1="53.6912" y1="52.2773" x2="57.7794" y2="56.1871" stroke="#046902" stroke-width="2"/>
</g>
</g>
<defs>
<filter id="filter0_d_2_2" x="-1" y="-1" width="78" height="78" filterUnits="userSpaceOnUse" color-interpolation-filters="sRGB">
<feFlood flood-opacity="0" result="BackgroundImageFix"/>
<feColorMatrix in="SourceAlpha" type="matrix" values="0 0 0 0 0 0 0 0 0 0 0 0 0 0 0 0 0 0 127 0" result="hardAlpha"/>
<feOffset dy="1"/>
<feGaussianBlur stdDeviation="2"/>
<feComposite in2="hardAlpha" operator="out"/>
<feColorMatrix type="matrix" values="0 0 0 0 0 0 0 0 0 0 0 0 0 0 0 0 0 0 0.25 0"/>
<feBlend mode="normal" in2="BackgroundImageFix" result="effect1_dropShadow_2_2"/>
<feBlend mode="normal" in="SourceGraphic" in2="effect1_dropShadow_2_2" result="shape"/>
</filter>
<filter id="filter1_d_2_2" x="11" y="15.5858" width="13.4142" height="13.4142" filterUnits="userSpaceOnUse" color-interpolation-filters="sRGB">
<feFlood flood-opacity="0" result="BackgroundImageFix"/>
<feColorMatrix in="SourceAlpha" type="matrix" values="0 0 0 0 0 0 0 0 0 0 0 0 0 0 0 0 0 0 127 0" result="hardAlpha"/>
<feOffset dy="4"/>
<feGaussianBlur stdDeviation="2"/>
<feComposite in2="hardAlpha" operator="out"/>
<feColorMatrix type="matrix" values="0 0 0 0 0 0 0 0 0 0 0 0 0 0 0 0 0 0 0.25 0"/>
<feBlend mode="normal" in2="BackgroundImageFix" result="effect1_dropShadow_2_2"/>
<feBlend mode="normal" in="SourceGraphic" in2="effect1_dropShadow_2_2" result="shape"/>
</filter>
<filter id="filter2_d_2_2" x="49" y="51.5546" width="13.4705" height="13.3552" filterUnits="userSpaceOnUse" color-interpolation-filters="sRGB">
<feFlood flood-opacity="0" result="BackgroundImageFix"/>
<feColorMatrix in="SourceAlpha" type="matrix" values="0 0 0 0 0 0 0 0 0 0 0 0 0 0 0 0 0 0 127 0" result="hardAlpha"/>
<feOffset dy="4"/>
<feGaussianBlur stdDeviation="2"/>
<feComposite in2="hardAlpha" operator="out"/>
<feColorMatrix type="matrix" values="0 0 0 0 0 0 0 0 0 0 0 0 0 0 0 0 0 0 0.25 0"/>
<feBlend mode="normal" in2="BackgroundImageFix" result="effect1_dropShadow_2_2"/>
<feBlend mode="normal" in="SourceGraphic" in2="effect1_dropShadow_2_2" result="shape"/>
</filter>
<clipPath id="clip0_2_2">
<rect width="73" height="72" fill="white"/>
</clipPath>
</defs>
</svg>
