<svg xmlns="http://www.w3.org/2000/svg" xmlns:xlink="http://www.w3.org/1999/xlink" viewBox="0 0 593.25 85.57"><defs><style>.cls-1{fill:none;}.cls-2{fill:#5c1d54;}.cls-3{clip-path:url(#clip-path);}.cls-4{fill:url(#linear-gradient);}.cls-5{fill:#fff;}.cls-6{fill:#bad759;}</style><clipPath id="clip-path" transform="translate(1.16 1.86)"><rect class="cls-1" y="9.02" width="576.77" height="61.75"/></clipPath><linearGradient id="linear-gradient" x1="-427.17" y1="7647.91" x2="-426.17" y2="7647.91" gradientTransform="matrix(0, -76.24, -76.24, 0, 583328.55, -32483.4)" gradientUnits="userSpaceOnUse"><stop offset="0" stop-color="#5377b4"/><stop offset="0.26" stop-color="#5b6ba8"/><stop offset="0.72" stop-color="#704b88"/><stop offset="1" stop-color="#7f3472"/></linearGradient></defs><g id="Layer_2" data-name="Layer 2"><g id="Layer_1-2" data-name="Layer 1"><g id="date_head"><polygon class="cls-2" points="593.25 85.57 15.04 85.57 1.17 71.39 15.04 25.06 579.38 10.88 593.25 25.06 593.25 85.57"/><g class="cls-3"><rect class="cls-4" x="-0.53" y="3.58" width="577.84" height="72.62" transform="translate(0.46 7.31) rotate(-1.08)"/></g><path class="cls-5" d="M557.77,15.62S547.07,15.79,543.4,0c0,0,.22,13.91-11.92,18,0,0,13.69-.21,13.08,15.43,0,0,.63-14.57,13.21-17.76" transform="translate(1.16 1.86)"/><path class="cls-5" d="M537.25,33.49s-7.9.13-10.61-11.52c0,0,.16,10.26-8.79,13.25,0,0,10.1-.16,9.65,11.37,0,0,.47-10.74,9.75-13.1" transform="translate(1.16 1.86)"/><path class="cls-5" d="M40.09,15.62S50.79,15.79,54.46,0c0,0-.21,13.91,11.93,18,0,0-13.7-.21-13.09,15.43,0,0-.63-14.57-13.21-17.76" transform="translate(1.16 1.86)"/><path class="cls-5" d="M60.62,33.49s7.89.13,10.6-11.52c0,0-.16,10.26,8.79,13.25,0,0-10.1-.16-9.65,11.37,0,0-.46-10.74-9.74-13.1" transform="translate(1.16 1.86)"/><path class="cls-6" d="M117.09,47.26v-.07c0-2.89,1.53-4.62,4.08-5.71a5.66,5.66,0,0,1-3.27-5.17v-.07c0-3.81,3.64-6.63,9-6.63s9,2.82,9,6.63v.07a5.67,5.67,0,0,1-3.26,5.17c2.41,1.12,4.08,2.72,4.08,5.67v.07c0,4.25-4.08,7-9.79,7S117.09,51.4,117.09,47.26Zm13.22-.65v-.07c0-1.53-1.43-2.58-3.43-2.58s-3.44,1-3.44,2.58v.07c0,1.43,1.23,2.69,3.44,2.69S130.31,48,130.31,46.61Zm-.51-9.52V37A3,3,0,0,0,124,37v.07a2.67,2.67,0,0,0,2.93,2.62A2.64,2.64,0,0,0,129.8,37.09Z" transform="translate(1.16 1.86)"/><path class="cls-6" d="M139.08,57c2.28-.28,3.47-1.36,3.4-3.2h-2.61V47.12h6.73v5.41c0,5-2.76,6.76-7,6.9Z" transform="translate(1.16 1.86)"/><path class="cls-6" d="M150.68,51.47l3.09-4.55a7.82,7.82,0,0,0,5.1,1.9c2.72,0,4.18-1.9,4.49-5a7.23,7.23,0,0,1-5,1.94c-4.63,0-8-2.86-8-7.52v-.07c0-5.27,4-8.67,9.48-8.67a9.33,9.33,0,0,1,7.31,2.79c1.74,1.7,2.86,4.42,2.86,8.81v.07c0,7.78-3.88,13.08-11,13.08A12.82,12.82,0,0,1,150.68,51.47ZM163.46,38v-.07a3.17,3.17,0,0,0-3.4-3.23,3.09,3.09,0,0,0-3.33,3.19v.07a3.11,3.11,0,0,0,3.4,3.13A3.07,3.07,0,0,0,163.46,38Z" transform="translate(1.16 1.86)"/><path class="cls-6" d="M172.54,57c2.28-.28,3.47-1.36,3.4-3.2h-2.62V47.12h6.73v5.41c0,5-2.75,6.76-7,6.9Z" transform="translate(1.16 1.86)"/><path class="cls-6" d="M185.9,36l-4,.92-1.26-5.1,7-2h4.79v24H185.9Z" transform="translate(1.16 1.86)"/><path class="cls-6" d="M196.92,42v-.07c0-6.73,4.28-12.38,11.05-12.38s11,5.58,11,12.31v.07c0,6.73-4.25,12.37-11,12.37S196.92,48.72,196.92,42Zm15.4,0v-.07c0-3.77-1.8-6.53-4.42-6.53s-4.35,2.65-4.35,6.46v.07c0,3.81,1.76,6.53,4.42,6.53S212.32,45.76,212.32,42Z" transform="translate(1.16 1.86)"/><path class="cls-6" d="M232.65,42v-.07A12.47,12.47,0,0,1,245.5,29.54c7.34,0,12.78,5.48,12.78,12.31v.07c0,6.83-5.5,12.37-12.85,12.37S232.65,48.82,232.65,42Zm18.9,0v-.07a6.19,6.19,0,0,0-6.12-6.43,6.07,6.07,0,0,0-6,6.36v.07a6.17,6.17,0,0,0,6.08,6.42A6.06,6.06,0,0,0,251.55,42Z" transform="translate(1.16 1.86)"/><path class="cls-6" d="M261.38,44.71v-.07a9.56,9.56,0,0,1,9.86-9.59,8.68,8.68,0,0,1,7.85,4.12l-4.38,3.26a4,4,0,0,0-3.44-1.94,3.82,3.82,0,0,0-3.6,4.08v.07c0,2.38,1.49,4.18,3.67,4.18a4.41,4.41,0,0,0,3.54-1.9L279.19,50A9.11,9.11,0,0,1,271,54.26,9.49,9.49,0,0,1,261.38,44.71Z" transform="translate(1.16 1.86)"/><path class="cls-6" d="M283.41,48.11V40.63h-2.17v-5.2h2.17V30.77h6.46v4.66h4.28v5.2h-4.28v6.22c0,1.29.58,1.84,1.77,1.84a5.63,5.63,0,0,0,2.45-.62v5.07a9.31,9.31,0,0,1-4.49,1C285.72,54.19,283.41,52.49,283.41,48.11Z" transform="translate(1.16 1.86)"/><path class="cls-6" d="M296.47,44.71v-.07c0-5.24,4.28-9.62,10.2-9.62s10.13,4.32,10.13,9.55v.07c0,5.23-4.29,9.62-10.2,9.62S296.47,49.94,296.47,44.71Zm14,0v-.07a4,4,0,0,0-3.91-4.15,3.85,3.85,0,0,0-3.84,4.08v.07a4,4,0,0,0,3.91,4.15A3.85,3.85,0,0,0,310.51,44.71Z" transform="translate(1.16 1.86)"/><path class="cls-6" d="M326.79,51.57v2.25h-6.46V29h6.46v8.87A6.76,6.76,0,0,1,332.37,35c4.39,0,8.16,3.64,8.16,9.52v.07c0,6-3.77,9.62-8.13,9.62A6.91,6.91,0,0,1,326.79,51.57Zm7.38-6.93v-.07a3.77,3.77,0,1,0-7.51,0v.07a3.78,3.78,0,1,0,7.51,0Z" transform="translate(1.16 1.86)"/><path class="cls-6" d="M343.35,44.71v-.07c0-5.37,3.84-9.62,9.28-9.62,6.36,0,9.28,4.66,9.28,10.06,0,.41,0,.89,0,1.33H349.57a3.8,3.8,0,0,0,4,3,5.55,5.55,0,0,0,4.08-1.87l3.57,3a9.65,9.65,0,0,1-8,3.74C347.43,54.26,343.35,50.42,343.35,44.71Zm12.51-1.6c-.23-2-1.42-3.33-3.19-3.33s-2.86,1.32-3.2,3.33Z" transform="translate(1.16 1.86)"/><path class="cls-6" d="M365.49,35.43H372v3.7c1.05-2.51,2.75-4.15,5.81-4v6.8h-.54c-3.37,0-5.27,1.94-5.27,6.19v5.71h-6.46Z" transform="translate(1.16 1.86)"/><path class="cls-6" d="M390.48,48.85l8.9-6.79c2.21-1.74,3.06-2.86,3.06-4.29a2.37,2.37,0,0,0-2.65-2.41c-1.6,0-2.85.92-4.72,3.06l-4.46-3.71c2.55-3.3,5.07-5.1,9.69-5.1,5.2,0,8.77,3.1,8.77,7.58v.07c0,3.81-2,5.78-5.5,8.33l-4.08,2.86h9.82v5.37H390.48Z" transform="translate(1.16 1.86)"/><path class="cls-6" d="M412.75,42v-.07c0-6.73,4.28-12.38,11-12.38s11,5.58,11,12.31v.07c0,6.73-4.25,12.37-11,12.37S412.75,48.72,412.75,42Zm15.4,0v-.07c0-3.77-1.81-6.53-4.42-6.53s-4.35,2.65-4.35,6.46v.07c0,3.81,1.76,6.53,4.41,6.53S428.15,45.76,428.15,42Z" transform="translate(1.16 1.86)"/><path class="cls-6" d="M437.77,48.85l8.91-6.79c2.21-1.74,3.06-2.86,3.06-4.29a2.38,2.38,0,0,0-2.66-2.41c-1.59,0-2.85.92-4.72,3.06l-4.45-3.71c2.55-3.3,5.06-5.1,9.69-5.1,5.2,0,8.77,3.1,8.77,7.58v.07c0,3.81-2,5.78-5.51,8.33l-4.08,2.86h9.82v5.37H437.77Z" transform="translate(1.16 1.86)"/><path class="cls-6" d="M464.19,36l-4,.92-1.26-5.1,7-2h4.79v24h-6.49Z" transform="translate(1.16 1.86)"/></g></g></g></svg>