<svg xmlns="http://www.w3.org/2000/svg" viewBox="0 0 392.1 114.36"><defs><style>.cls-1{fill:#fff;}.cls-2{fill:#f1d31c;}.cls-3{fill:#b71c1c;}</style></defs><title>faq_title</title><g id="Layer_2" data-name="Layer 2"><g id="Layer_1-2" data-name="Layer 1"><path class="cls-1" d="M101.67,13.26h38.16a1.64,1.64,0,0,1,1.62,1.62V24a1.64,1.64,0,0,1-1.62,1.62H116.25v3.84h19.68a1.64,1.64,0,0,1,1.62,1.62v9.06a1.64,1.64,0,0,1-1.62,1.62H116.25V53.64a1.64,1.64,0,0,1-1.62,1.62h-13a1.64,1.64,0,0,1-1.62-1.62V14.88a1.64,1.64,0,0,1,1.62-1.62Z"/><path class="cls-1" d="M159.21,55.26H147.87a1.27,1.27,0,0,1-.93-.39,1.1,1.1,0,0,1-.39-.75,1.82,1.82,0,0,1,.06-.54l13.08-38.34a2.51,2.51,0,0,1,2.7-2h16.68a2.51,2.51,0,0,1,2.7,2l13.08,38.34a1.82,1.82,0,0,1,.06.54,1.1,1.1,0,0,1-.39.75,1.27,1.27,0,0,1-.93.39H182.25a2.76,2.76,0,0,1-2.7-2l-1.5-4.2H163.41l-1.5,4.2A2.76,2.76,0,0,1,159.21,55.26ZM175,37.32l-4.26-12.48-4.26,12.48Z"/><path class="cls-1" d="M243.81,30.64v7.11q0,8.58-5.82,13l4.44,6a1.14,1.14,0,0,1,0,1.35,1.33,1.33,0,0,1-1,.5H230a3.34,3.34,0,0,1-2.94-1.5l-1.56-2q-1.92.18-4,.18A34.84,34.84,0,0,1,210,53.62a16.21,16.21,0,0,1-7.86-5.73,16.61,16.61,0,0,1-3-10.18V30.8a16.58,16.58,0,0,1,3-10.17A16.23,16.23,0,0,1,210,14.89a39.7,39.7,0,0,1,22.92,0,15.76,15.76,0,0,1,10.86,15.75Zm-28.44-.92v9.07A4.22,4.22,0,0,0,217,42.37a7.25,7.25,0,0,0,4.47,1.25A7.13,7.13,0,0,0,226,42.34a4.29,4.29,0,0,0,1.65-3.6v-9a4.29,4.29,0,0,0-1.65-3.6,7.13,7.13,0,0,0-4.47-1.27A7.25,7.25,0,0,0,217,26.14,4.23,4.23,0,0,0,215.37,29.72Z"/><path class="cls-1" d="M289.86,33q4.17,3,4.17,9T288,51.61q-6.06,3.7-16.08,3.71t-15.57-3.66q-5.55-3.66-5.55-9c0-.87.46-1.3,1.38-1.3h12.3a2.85,2.85,0,0,1,2,.73q1.68,1.55,5.82,1.54,5.7,0,5.7-1.68c0-.7-.6-1.25-1.8-1.66a40.73,40.73,0,0,0-7.14-1.18q-17-2-17-12.58,0-6,5.46-9.64t14.61-3.68q9.15,0,14.79,3.95t5.64,8.36a1.24,1.24,0,0,1-.39,1,1.53,1.53,0,0,1-1.05.35h-12.9a2.7,2.7,0,0,1-1.86-.68,6.46,6.46,0,0,0-4.32-1.24q-4,0-4,1.62c0,.58.52,1,1.56,1.36a38.92,38.92,0,0,0,6.24,1Q285.69,30,289.86,33Z"/><polygon class="cls-2" points="348.91 47.31 345.09 70.52 358.6 49.07 370.06 70.52 368.3 48.48 386.81 61.12 372.71 39.37 392.1 38.49 374.47 32.03 388.28 16.45 368.59 25.56 369.77 1.18 360.37 22.04 348.02 0 349.79 24.09 328.93 15.57 345.67 32.91 323.05 35.85 343.62 39.67 325.69 54.07 348.91 47.31"/><polygon class="cls-2" points="25.86 47.31 22.04 70.52 35.55 49.07 47.01 70.52 45.25 48.48 63.76 61.12 49.66 39.37 69.05 38.49 51.42 32.03 65.23 16.45 45.54 25.56 46.72 1.18 37.32 22.04 24.98 0 26.74 24.09 5.88 15.57 22.63 32.91 0 35.85 20.57 39.67 2.64 54.07 25.86 47.31"/><path class="cls-3" d="M257.29,77.62a4.76,4.76,0,0,0-4.19-.94c-.51.09-1,.28-1.52.38h-.17c-.23,0-.45,0-.67,0-1.47.11-2.94.18-4.42.22-3.06.07-6.13.05-9.2,0-6.13,0-12.26-.15-18.39-.19-12-.08-23.91.35-35.89-.06q-19.38-.64-38.79-.95c-3.19-.05-6.37-.09-9.56-.08-4.47,0-9-.11-13.44.07-3.25.13-3.26,5.2,0,5.07,4.24-.17,8.51,0,12.75-.07,2.61,0,5.22,0,7.83,0,7.2.09,14.4.25,21.61.42,5.46.13,10.93.26,16.4.45,5.76.21,11.52.4,17.28.4,6.1,0,12.19-.25,18.28-.24,3,0,6,0,9,.06a124.09,124.09,0,0,1-12.34,2.37,115.55,115.55,0,0,0-16.7,3.42c-5.85,1.61-11.79,2.79-17.63,4.41-3.19.88-6.35,1.85-9.56,2.65-.78.2-1.56.38-2.35.55l-.78.17a.88.88,0,0,1-.28,0l-.12,0,.11,0a11.77,11.77,0,0,0-2.9.45c-2.8.93-3.79,4.57-1,6.19,1.83,1,4.31.88,6.34.95,3.41.13,6.82.33,10.23.33s6.54-.24,9.81-.42a215.6,215.6,0,0,1,23-.24c3.73.2,7.43.6,11.12,1.13l3.4.52a13.75,13.75,0,0,0-5.24,6.34,2.56,2.56,0,0,0,1.77,3.12,2.6,2.6,0,0,0,3.12-1.77c.59-1.65,2.18-2.78,3.55-3.77a25,25,0,0,1,2.85-1.93,11,11,0,0,1,2.51-1.43,2.52,2.52,0,0,0-1-4.93l-.12-.06a6.55,6.55,0,0,0-.78-.28,11,11,0,0,1-1.06-.47,21.56,21.56,0,0,1-3.37-2.22,16,16,0,0,1-4.57-5c-1.57-2.85-5.95-.3-4.37,2.56a22.69,22.69,0,0,0,2.88,3.95c.1.12.2.22.31.33l-1.1-.16a131.93,131.93,0,0,0-15.12-1.14c-5-.09-9.91,0-14.86.28s-10,.65-15,.54l-.94,0c2.13-.6,4.26-1.23,6.4-1.8,3.51-.93,7.09-1.6,10.62-2.51,3-.78,6-1.65,9-2.43a91.73,91.73,0,0,1,9.12-1.91c2.87-.44,5.74-.74,8.6-1.28,5.87-1.11,11.68-2.56,17.51-3.86,2.9-.64,5.81-1.28,8.75-1.74,1.84-.29,3.68-.63,5.53-.85.82-.1,1.66-.12,2.48-.23a39.67,39.67,0,0,0,4.07-.24c1.8-.25,2.54-3.13,1.12-4.23m-94.35,23.62a.79.79,0,0,0,.3-.06.52.52,0,0,1-.3.06"/></g></g></svg>