<svg xmlns="http://www.w3.org/2000/svg" xmlns:xlink="http://www.w3.org/1999/xlink" viewBox="0 0 226.76 60.76"><defs><style>.cls-1{fill:none;}.cls-2{fill:#123b6d;}.cls-3{clip-path:url(#clip-path);}.cls-4{fill:url(#linear-gradient);}.cls-5{fill:#171515;}.cls-6{fill:#fefefe;}</style><clipPath id="clip-path" transform="translate(0 0)"><rect class="cls-1" width="226.76" height="53.7" rx="12.23"/></clipPath><linearGradient id="linear-gradient" x1="-5498.87" y1="4685.98" x2="-5497.87" y2="4685.98" gradientTransform="matrix(226.75, 0, 0, -226.75, 1246894.4, 1062594.18)" gradientUnits="userSpaceOnUse"><stop offset="0" stop-color="#f6cb46"/><stop offset="1" stop-color="#df733d"/><stop offset="1" stop-color="#df733d"/></linearGradient></defs><g id="Layer_2" data-name="Layer 2"><g id="Layer_1-2" data-name="Layer 1"><path class="cls-2" d="M214.53,60.76H12.23A12.24,12.24,0,0,1,0,48.53V19.29A12.23,12.23,0,0,1,12.23,7.06h202.3a12.23,12.23,0,0,1,12.23,12.23V48.53a12.24,12.24,0,0,1-12.23,12.23" transform="translate(0 0)"/><g class="cls-3"><rect class="cls-4" width="226.76" height="53.7"/></g><path class="cls-5" d="M43.33,30.69q0,4.92-6.31,4.92H27.8a.58.58,0,0,1-.42-.18A.58.58,0,0,1,27.2,35V20.55a.62.62,0,0,1,.6-.6h9a7.69,7.69,0,0,1,4.68,1.15A4.1,4.1,0,0,1,43,24.58v.07a2.92,2.92,0,0,1-.58,1.83,2.55,2.55,0,0,1-1.21,1,2.85,2.85,0,0,1,1.5,1.18A3.52,3.52,0,0,1,43.33,30.69ZM36.7,25.51a1.26,1.26,0,0,0,.23-.73,1.08,1.08,0,0,0-.23-.69A.83.83,0,0,0,36,23.8H33v2h3A.82.82,0,0,0,36.7,25.51ZM33,29.57v2.19h3.24a.88.88,0,0,0,.77-.35,1.26,1.26,0,0,0,.26-.77v0a1.12,1.12,0,0,0-.28-.74,1,1,0,0,0-.75-.31Z" transform="translate(0 0)"/><path class="cls-5" d="M62.7,26.45v2.66A5.91,5.91,0,0,1,58.65,35a14.79,14.79,0,0,1-8.54,0,6.1,6.1,0,0,1-2.94-2.14,6.21,6.21,0,0,1-1.11-3.79V26.49a5.65,5.65,0,0,1,2.31-4.93,10.19,10.19,0,0,1,6-1.63,10.16,10.16,0,0,1,6,1.63A5.58,5.58,0,0,1,62.7,26.45Zm-10.6-.36v3.38a1.56,1.56,0,0,0,.61,1.33,2.71,2.71,0,0,0,1.67.47A2.62,2.62,0,0,0,56,30.79a1.59,1.59,0,0,0,.62-1.34V26.11A1.62,1.62,0,0,0,56,24.76a2.68,2.68,0,0,0-1.66-.47,2.71,2.71,0,0,0-1.67.46A1.58,1.58,0,0,0,52.1,26.09Z" transform="translate(0 0)"/><path class="cls-5" d="M82.27,26.45v2.66a5.88,5.88,0,0,1-4,5.89,14.79,14.79,0,0,1-8.54,0,6,6,0,0,1-2.93-2.14,6.15,6.15,0,0,1-1.12-3.79V26.49A5.63,5.63,0,0,1,68,21.56a10.16,10.16,0,0,1,6-1.63,10.21,10.21,0,0,1,6,1.63A5.6,5.6,0,0,1,82.27,26.45Zm-10.6-.36v3.38a1.54,1.54,0,0,0,.62,1.33,2.68,2.68,0,0,0,1.66.47,2.65,2.65,0,0,0,1.67-.48,1.58,1.58,0,0,0,.61-1.34V26.11a1.61,1.61,0,0,0-.61-1.35A2.71,2.71,0,0,0,74,24.29a2.68,2.68,0,0,0-1.66.46A1.56,1.56,0,0,0,71.67,26.09Z" transform="translate(0 0)"/><path class="cls-5" d="M102.76,34.83a.52.52,0,0,1,.09.31.41.41,0,0,1-.14.32.49.49,0,0,1-.35.15H96.59a1,1,0,0,1-.81-.36l-3.89-4.81V35a.58.58,0,0,1-.18.43.58.58,0,0,1-.42.18H86.68a.6.6,0,0,1-.43-.18.61.61,0,0,1-.17-.43V20.55a.61.61,0,0,1,.17-.42.6.6,0,0,1,.43-.18h4.61a.62.62,0,0,1,.6.6v4.21l3.54-4.43a1.06,1.06,0,0,1,.82-.38h5.4a.48.48,0,0,1,.34.14.46.46,0,0,1,.15.34.48.48,0,0,1-.11.32l-5.31,6.47Z" transform="translate(0 0)"/><path class="cls-5" d="M139.13,27.3a3.85,3.85,0,0,1,1.55,3.34,4.12,4.12,0,0,1-2.26,3.61,11.4,11.4,0,0,1-6,1.38,10.51,10.51,0,0,1-5.81-1.36,4,4,0,0,1-2.07-3.36c0-.33.17-.49.52-.49h4.58a1,1,0,0,1,.76.28,3.23,3.23,0,0,0,2.17.57q2.13,0,2.13-.63c0-.26-.22-.46-.67-.61a15.8,15.8,0,0,0-2.66-.45c-4.22-.49-6.34-2-6.34-4.68a4.16,4.16,0,0,1,2-3.6,9.57,9.57,0,0,1,5.45-1.37A9.42,9.42,0,0,1,138,21.4c1.4,1,2.1,2,2.1,3.12a.45.45,0,0,1-.14.35.56.56,0,0,1-.39.14H134.8a1,1,0,0,1-.7-.26,2.38,2.38,0,0,0-1.61-.46q-1.5,0-1.5.6c0,.22.2.39.59.51a14.92,14.92,0,0,0,2.32.38A11.54,11.54,0,0,1,139.13,27.3Z" transform="translate(0 0)"/><path class="cls-5" d="M150.57,31.25h8.92a.61.61,0,0,1,.43.17.6.6,0,0,1,.18.43V35a.61.61,0,0,1-.61.61H145.36a.61.61,0,0,1-.61-.61V20.55a.58.58,0,0,1,.18-.42.58.58,0,0,1,.43-.18h13.91a.56.56,0,0,1,.42.18.58.58,0,0,1,.18.42v3.16a.58.58,0,0,1-.18.42.56.56,0,0,1-.42.18h-8.7v1.41H158a.62.62,0,0,1,.6.6v2.91a.58.58,0,0,1-.18.43.58.58,0,0,1-.42.18h-7.47Z" transform="translate(0 0)"/><path class="cls-5" d="M167.59,35.61h-4.23a.45.45,0,0,1-.34-.15.39.39,0,0,1-.15-.28,1,1,0,0,1,0-.2l4.88-14.29a.94.94,0,0,1,1-.74H175a.93.93,0,0,1,1,.74L180.88,35a1,1,0,0,1,0,.2.42.42,0,0,1-.14.28.49.49,0,0,1-.35.15h-4.23a1,1,0,0,1-1-.76l-.55-1.57h-5.46l-.56,1.57A1,1,0,0,1,167.59,35.61Zm5.88-6.69-1.58-4.65-1.59,4.65Z" transform="translate(0 0)"/><path class="cls-5" d="M183.67,20h15.44a.62.62,0,0,1,.6.6v3.6a.58.58,0,0,1-.18.43.58.58,0,0,1-.42.18H194.3V35a.58.58,0,0,1-.18.43.58.58,0,0,1-.42.18h-4.61a.61.61,0,0,1-.61-.61V24.76h-4.81a.58.58,0,0,1-.42-.18.58.58,0,0,1-.18-.43v-3.6a.62.62,0,0,1,.6-.6Z" transform="translate(0 0)"/><path class="cls-6" d="M43.33,27.47q0,4.92-6.31,4.92H27.8a.58.58,0,0,1-.42-.18.58.58,0,0,1-.18-.43V17.33a.62.62,0,0,1,.6-.6h9a7.69,7.69,0,0,1,4.68,1.15A4.1,4.1,0,0,1,43,21.36v.07a2.92,2.92,0,0,1-.58,1.83,2.55,2.55,0,0,1-1.21,1,2.85,2.85,0,0,1,1.5,1.18A3.52,3.52,0,0,1,43.33,27.47ZM36.7,22.29a1.26,1.26,0,0,0,.23-.73,1.08,1.08,0,0,0-.23-.69.83.83,0,0,0-.69-.29H33v2h3A.82.82,0,0,0,36.7,22.29ZM33,26.35v2.19h3.24a.9.9,0,0,0,.77-.35,1.28,1.28,0,0,0,.26-.77v0a1.12,1.12,0,0,0-.28-.74,1,1,0,0,0-.75-.31Z" transform="translate(0 0)"/><path class="cls-6" d="M62.7,23.23v2.66a5.91,5.91,0,0,1-4.05,5.89,14.79,14.79,0,0,1-8.54,0,6.1,6.1,0,0,1-2.94-2.14,6.22,6.22,0,0,1-1.11-3.8V23.27a5.65,5.65,0,0,1,2.31-4.93,10.19,10.19,0,0,1,6-1.63,10.16,10.16,0,0,1,6,1.63A5.58,5.58,0,0,1,62.7,23.23Zm-10.6-.36v3.38a1.56,1.56,0,0,0,.61,1.33,2.71,2.71,0,0,0,1.67.47A2.62,2.62,0,0,0,56,27.57a1.6,1.6,0,0,0,.62-1.34V22.89A1.62,1.62,0,0,0,56,21.54a2.68,2.68,0,0,0-1.66-.47,2.71,2.71,0,0,0-1.67.46A1.58,1.58,0,0,0,52.1,22.87Z" transform="translate(0 0)"/><path class="cls-6" d="M82.27,23.23v2.66a5.88,5.88,0,0,1-4,5.89,14.79,14.79,0,0,1-8.54,0,6,6,0,0,1-2.93-2.14,6.16,6.16,0,0,1-1.12-3.8V23.27A5.63,5.63,0,0,1,68,18.34a10.16,10.16,0,0,1,6-1.63,10.21,10.21,0,0,1,6,1.63A5.6,5.6,0,0,1,82.27,23.23Zm-10.6-.36v3.38a1.54,1.54,0,0,0,.62,1.33,2.68,2.68,0,0,0,1.66.47,2.65,2.65,0,0,0,1.67-.48,1.59,1.59,0,0,0,.61-1.34V22.89a1.61,1.61,0,0,0-.61-1.35A2.71,2.71,0,0,0,74,21.07a2.68,2.68,0,0,0-1.66.46A1.56,1.56,0,0,0,71.67,22.87Z" transform="translate(0 0)"/><path class="cls-6" d="M102.76,31.6a.57.57,0,0,1,.09.32.41.41,0,0,1-.14.32.49.49,0,0,1-.35.15H96.59a1,1,0,0,1-.81-.36l-3.89-4.81v4.56a.58.58,0,0,1-.18.43.58.58,0,0,1-.42.18H86.68a.6.6,0,0,1-.43-.18.61.61,0,0,1-.17-.43V17.33a.61.61,0,0,1,.17-.42.6.6,0,0,1,.43-.18h4.61a.62.62,0,0,1,.6.6v4.21l3.54-4.43a1.06,1.06,0,0,1,.82-.38h5.4a.48.48,0,0,1,.34.14.46.46,0,0,1,.15.34.5.5,0,0,1-.11.32L96.72,24Z" transform="translate(0 0)"/><path class="cls-6" d="M139.13,24.08a3.85,3.85,0,0,1,1.55,3.34A4.12,4.12,0,0,1,138.42,31a11.4,11.4,0,0,1-6,1.38,10.51,10.51,0,0,1-5.81-1.36,4,4,0,0,1-2.07-3.36c0-.33.17-.49.52-.49h4.58a1,1,0,0,1,.76.28,3.23,3.23,0,0,0,2.17.57q2.13,0,2.13-.63c0-.26-.22-.46-.67-.61a14.8,14.8,0,0,0-2.66-.45c-4.22-.49-6.34-2.05-6.34-4.69a4.15,4.15,0,0,1,2-3.59,9.57,9.57,0,0,1,5.45-1.37A9.42,9.42,0,0,1,138,18.18c1.4,1,2.1,2,2.1,3.12a.45.45,0,0,1-.14.35.56.56,0,0,1-.39.14H134.8a1,1,0,0,1-.7-.26,2.38,2.38,0,0,0-1.61-.46q-1.5,0-1.5.6c0,.22.2.39.59.51a14.92,14.92,0,0,0,2.32.38A11.54,11.54,0,0,1,139.13,24.08Z" transform="translate(0 0)"/><path class="cls-6" d="M150.57,28h8.92a.61.61,0,0,1,.43.17.6.6,0,0,1,.18.43v3.15a.61.61,0,0,1-.61.61H145.36a.61.61,0,0,1-.61-.61V17.33a.58.58,0,0,1,.18-.42.58.58,0,0,1,.43-.18h13.91a.56.56,0,0,1,.42.18.58.58,0,0,1,.18.42v3.16a.58.58,0,0,1-.18.42.56.56,0,0,1-.42.18h-8.7V22.5H158a.62.62,0,0,1,.6.6V26a.58.58,0,0,1-.18.43.58.58,0,0,1-.42.18h-7.47Z" transform="translate(0 0)"/><path class="cls-6" d="M167.59,32.39h-4.23a.45.45,0,0,1-.34-.15.39.39,0,0,1-.15-.28,1,1,0,0,1,0-.2l4.88-14.29a.94.94,0,0,1,1-.74H175a.93.93,0,0,1,1,.74l4.88,14.29a1,1,0,0,1,0,.2.42.42,0,0,1-.14.28.49.49,0,0,1-.35.15h-4.23a1,1,0,0,1-1-.76l-.55-1.57h-5.46l-.56,1.57A1,1,0,0,1,167.59,32.39Zm5.88-6.69-1.58-4.65L170.3,25.7Z" transform="translate(0 0)"/><path class="cls-6" d="M183.67,16.73h15.44a.62.62,0,0,1,.6.6v3.6a.58.58,0,0,1-.18.43.58.58,0,0,1-.42.18H194.3V31.78a.58.58,0,0,1-.18.43.58.58,0,0,1-.42.18h-4.61a.61.61,0,0,1-.61-.61V21.54h-4.81a.58.58,0,0,1-.42-.18.58.58,0,0,1-.18-.43v-3.6a.62.62,0,0,1,.6-.6Z" transform="translate(0 0)"/></g></g></svg>