<svg xmlns="http://www.w3.org/2000/svg" xmlns:xlink="http://www.w3.org/1999/xlink" viewBox="0 0 226.75 60.76"><defs><style>.cls-1,.cls-7{fill:none;}.cls-2{fill:#601f58;}.cls-3{clip-path:url(#clip-path);}.cls-4{fill:url(#linear-gradient);}.cls-5{fill:#171515;}.cls-6{fill:#fefefe;}.cls-7{stroke:#171515;stroke-miterlimit:10;}</style><clipPath id="clip-path" transform="translate(0)"><rect class="cls-1" width="226.75" height="53.7" rx="12.23"/></clipPath><linearGradient id="linear-gradient" x1="-5871.56" y1="5537.73" x2="-5870.56" y2="5537.73" gradientTransform="matrix(226.75, 0, 0, -226.75, 1331402.83, 1255732.18)" gradientUnits="userSpaceOnUse"><stop offset="0" stop-color="#cfd958"/><stop offset="1" stop-color="#63b257"/></linearGradient></defs><g id="Layer_2" data-name="Layer 2"><g id="Layer_1-2" data-name="Layer 1"><path class="cls-2" d="M214.53,60.76H12.23A12.24,12.24,0,0,1,0,48.53V19.29A12.23,12.23,0,0,1,12.23,7.06h202.3a12.22,12.22,0,0,1,12.22,12.23V48.53a12.23,12.23,0,0,1-12.22,12.23" transform="translate(0)"/><g class="cls-3"><rect class="cls-4" width="226.75" height="53.7"/></g><path class="cls-5" d="M43.33,30.69c0,3.28-2.11,4.92-6.31,4.92H27.8a.62.62,0,0,1-.6-.6V20.55a.62.62,0,0,1,.6-.6h9a7.71,7.71,0,0,1,4.68,1.15A4.1,4.1,0,0,1,43,24.58v.07a2.9,2.9,0,0,1-.58,1.83,2.55,2.55,0,0,1-1.21,1,2.85,2.85,0,0,1,1.5,1.18A3.52,3.52,0,0,1,43.33,30.69Zm-6.64-5.18a1.21,1.21,0,0,0,.24-.73,1,1,0,0,0-.24-.69A.82.82,0,0,0,36,23.8H33v2h3A.76.76,0,0,0,36.69,25.51ZM33,29.57v2.19h3.25a.9.9,0,0,0,.77-.34,1.31,1.31,0,0,0,.26-.78v0a1.12,1.12,0,0,0-.28-.74,1,1,0,0,0-.75-.31Z" transform="translate(0)"/><path class="cls-5" d="M62.7,26.45v2.66a6.07,6.07,0,0,1-1.12,3.75A6,6,0,0,1,58.65,35a14.82,14.82,0,0,1-8.55,0,6.05,6.05,0,0,1-2.93-2.14,6.22,6.22,0,0,1-1.12-3.79V26.49a5.65,5.65,0,0,1,2.32-4.93,10.19,10.19,0,0,1,6-1.63,10.16,10.16,0,0,1,6,1.63A5.58,5.58,0,0,1,62.7,26.45Zm-10.6-.36v3.38a1.56,1.56,0,0,0,.61,1.33,2.71,2.71,0,0,0,1.67.47A2.62,2.62,0,0,0,56,30.79a1.59,1.59,0,0,0,.62-1.34V26.11A1.59,1.59,0,0,0,56,24.77a2.62,2.62,0,0,0-1.66-.48,2.71,2.71,0,0,0-1.67.47A1.56,1.56,0,0,0,52.1,26.09Z" transform="translate(0)"/><path class="cls-5" d="M82.27,26.45v2.66a6.07,6.07,0,0,1-1.12,3.75A6,6,0,0,1,78.22,35a14.79,14.79,0,0,1-8.54,0,6,6,0,0,1-2.93-2.14,6.15,6.15,0,0,1-1.12-3.79V26.49a5.65,5.65,0,0,1,2.31-4.93,10.21,10.21,0,0,1,6-1.63,10.21,10.21,0,0,1,6,1.63A5.6,5.6,0,0,1,82.27,26.45Zm-10.6-.36v3.38a1.56,1.56,0,0,0,.61,1.33,2.71,2.71,0,0,0,1.67.47,2.65,2.65,0,0,0,1.67-.48,1.58,1.58,0,0,0,.61-1.34V26.11a1.58,1.58,0,0,0-.61-1.34A2.65,2.65,0,0,0,74,24.29a2.71,2.71,0,0,0-1.67.47A1.56,1.56,0,0,0,71.67,26.09Z" transform="translate(0)"/><path class="cls-5" d="M102.76,34.83a.54.54,0,0,1,.09.31.45.45,0,0,1-.14.32.49.49,0,0,1-.35.15H96.59a1,1,0,0,1-.81-.36l-3.89-4.81V35a.62.62,0,0,1-.6.6H86.68a.58.58,0,0,1-.43-.18.58.58,0,0,1-.18-.42V20.55a.58.58,0,0,1,.18-.42.58.58,0,0,1,.43-.18h4.61a.62.62,0,0,1,.6.6v4.21l3.53-4.43a1.08,1.08,0,0,1,.83-.38h5.39a.47.47,0,0,1,.35.15.42.42,0,0,1,.14.33.47.47,0,0,1-.11.33l-5.3,6.46Z" transform="translate(0)"/><path class="cls-5" d="M139.13,27.3a3.87,3.87,0,0,1,1.55,3.34,4.11,4.11,0,0,1-2.26,3.61,11.41,11.41,0,0,1-6,1.38,10.48,10.48,0,0,1-5.8-1.36,4,4,0,0,1-2.07-3.36.44.44,0,0,1,.51-.49h4.59a1.06,1.06,0,0,1,.76.28,3.23,3.23,0,0,0,2.17.57q2.13,0,2.13-.63c0-.26-.23-.46-.67-.61a15.77,15.77,0,0,0-2.67-.45c-4.22-.48-6.33-2-6.33-4.68a4.16,4.16,0,0,1,2-3.6,9.65,9.65,0,0,1,5.45-1.37A9.42,9.42,0,0,1,138,21.4q2.1,1.49,2.1,3.12a.49.49,0,0,1-.14.36.61.61,0,0,1-.39.13H134.8a1.09,1.09,0,0,1-.7-.25,2.4,2.4,0,0,0-1.61-.47c-1,0-1.5.2-1.5.61,0,.21.2.38.58.5a14.14,14.14,0,0,0,2.33.38A11.54,11.54,0,0,1,139.13,27.3Z" transform="translate(0)"/><path class="cls-5" d="M150.57,31.25h8.92a.58.58,0,0,1,.43.18.58.58,0,0,1,.18.42V35a.58.58,0,0,1-.18.42.58.58,0,0,1-.43.18H145.35a.62.62,0,0,1-.6-.6V20.55a.62.62,0,0,1,.6-.6h13.92a.62.62,0,0,1,.6.6v3.16a.62.62,0,0,1-.6.6h-8.7v1.41H158a.58.58,0,0,1,.42.18.58.58,0,0,1,.18.43v2.9a.58.58,0,0,1-.18.43.58.58,0,0,1-.42.18h-7.47Z" transform="translate(0)"/><path class="cls-5" d="M167.59,35.61h-4.23a.45.45,0,0,1-.34-.15.39.39,0,0,1-.15-.28,1,1,0,0,1,0-.2l4.88-14.29a.94.94,0,0,1,1-.74H175a.94.94,0,0,1,1,.74L180.88,35a1,1,0,0,1,0,.2.42.42,0,0,1-.14.28.49.49,0,0,1-.35.15h-4.23a1,1,0,0,1-1-.76l-.55-1.57h-5.46l-.56,1.57A1,1,0,0,1,167.59,35.61Zm5.88-6.69-1.59-4.65-1.58,4.65Z" transform="translate(0)"/><path class="cls-5" d="M183.67,20h15.44a.62.62,0,0,1,.6.6v3.61a.62.62,0,0,1-.6.6H194.3V35a.62.62,0,0,1-.6.6h-4.61a.58.58,0,0,1-.43-.18.58.58,0,0,1-.18-.42V24.76h-4.81a.62.62,0,0,1-.6-.6V20.55a.62.62,0,0,1,.6-.6Z" transform="translate(0)"/><path class="cls-6" d="M43.33,27.47c0,3.28-2.11,4.92-6.31,4.92H27.8a.58.58,0,0,1-.42-.18.58.58,0,0,1-.18-.43V17.33a.62.62,0,0,1,.6-.6h9a7.71,7.71,0,0,1,4.68,1.15A4.1,4.1,0,0,1,43,21.36v.07a2.9,2.9,0,0,1-.58,1.83,2.55,2.55,0,0,1-1.21,1,2.85,2.85,0,0,1,1.5,1.18A3.52,3.52,0,0,1,43.33,27.47Zm-6.64-5.18a1.21,1.21,0,0,0,.24-.73,1,1,0,0,0-.24-.69.79.79,0,0,0-.68-.29H33v2h3A.76.76,0,0,0,36.69,22.29ZM33,26.35v2.19h3.25a.88.88,0,0,0,.77-.35,1.26,1.26,0,0,0,.26-.77v0a1.12,1.12,0,0,0-.28-.74,1,1,0,0,0-.75-.31Z" transform="translate(0)"/><path class="cls-6" d="M62.7,23.23v2.66a5.91,5.91,0,0,1-4.05,5.89,14.82,14.82,0,0,1-8.55,0,6.12,6.12,0,0,1-2.93-2.14,6.22,6.22,0,0,1-1.12-3.79V23.27a5.65,5.65,0,0,1,2.32-4.93,10.19,10.19,0,0,1,6-1.63,10.16,10.16,0,0,1,6,1.63A5.58,5.58,0,0,1,62.7,23.23Zm-10.6-.36v3.38a1.56,1.56,0,0,0,.61,1.33,2.71,2.71,0,0,0,1.67.47A2.62,2.62,0,0,0,56,27.57a1.59,1.59,0,0,0,.62-1.34V22.89A1.59,1.59,0,0,0,56,21.55a2.62,2.62,0,0,0-1.66-.48,2.71,2.71,0,0,0-1.67.46A1.59,1.59,0,0,0,52.1,22.87Z" transform="translate(0)"/><path class="cls-6" d="M82.27,23.23v2.66a5.91,5.91,0,0,1-4,5.89,14.79,14.79,0,0,1-8.54,0,6,6,0,0,1-2.93-2.14,6.15,6.15,0,0,1-1.12-3.79V23.27a5.65,5.65,0,0,1,2.31-4.93,10.21,10.21,0,0,1,6-1.63,10.21,10.21,0,0,1,6,1.63A5.6,5.6,0,0,1,82.27,23.23Zm-10.6-.36v3.38a1.56,1.56,0,0,0,.61,1.33,2.71,2.71,0,0,0,1.67.47,2.65,2.65,0,0,0,1.67-.48,1.58,1.58,0,0,0,.61-1.34V22.89a1.58,1.58,0,0,0-.61-1.34A2.65,2.65,0,0,0,74,21.07a2.71,2.71,0,0,0-1.67.46A1.59,1.59,0,0,0,71.67,22.87Z" transform="translate(0)"/><path class="cls-6" d="M102.76,31.61a.54.54,0,0,1,.09.31.45.45,0,0,1-.14.32.49.49,0,0,1-.35.15H96.59a1,1,0,0,1-.81-.36l-3.89-4.81v4.56a.58.58,0,0,1-.18.43.58.58,0,0,1-.42.18H86.68a.61.61,0,0,1-.61-.61V17.33a.58.58,0,0,1,.18-.42.58.58,0,0,1,.43-.18h4.61a.62.62,0,0,1,.6.6v4.21l3.53-4.43a1.08,1.08,0,0,1,.83-.38h5.39a.47.47,0,0,1,.35.15.42.42,0,0,1,.14.33.47.47,0,0,1-.11.33L96.72,24Z" transform="translate(0)"/><path class="cls-6" d="M139.13,24.08a3.85,3.85,0,0,1,1.55,3.34A4.12,4.12,0,0,1,138.42,31a11.41,11.41,0,0,1-6,1.38,10.48,10.48,0,0,1-5.8-1.36,4,4,0,0,1-2.07-3.36.44.44,0,0,1,.51-.49h4.59a1,1,0,0,1,.76.28,3.23,3.23,0,0,0,2.17.57q2.13,0,2.13-.63c0-.26-.23-.46-.67-.61a15.77,15.77,0,0,0-2.67-.45Q125,25.63,125,21.68a4.16,4.16,0,0,1,2-3.6,9.65,9.65,0,0,1,5.45-1.37A9.42,9.42,0,0,1,138,18.18q2.1,1.49,2.1,3.12a.45.45,0,0,1-.14.35.56.56,0,0,1-.39.14H134.8a1,1,0,0,1-.7-.26,2.4,2.4,0,0,0-1.61-.46q-1.5,0-1.5.6c0,.22.2.39.58.51a15.36,15.36,0,0,0,2.33.38A11.54,11.54,0,0,1,139.13,24.08Z" transform="translate(0)"/><path class="cls-6" d="M150.57,28h8.92a.58.58,0,0,1,.43.18.58.58,0,0,1,.18.42v3.15a.61.61,0,0,1-.61.61H145.35a.58.58,0,0,1-.42-.18.58.58,0,0,1-.18-.43V17.33a.62.62,0,0,1,.6-.6h13.92a.62.62,0,0,1,.6.6v3.16a.62.62,0,0,1-.6.6h-8.7V22.5H158a.58.58,0,0,1,.42.18.58.58,0,0,1,.18.43V26a.58.58,0,0,1-.18.43.58.58,0,0,1-.42.18h-7.47Z" transform="translate(0)"/><path class="cls-6" d="M167.59,32.39h-4.23a.45.45,0,0,1-.34-.15.39.39,0,0,1-.15-.28,1,1,0,0,1,0-.2l4.88-14.29a.94.94,0,0,1,1-.74H175a.94.94,0,0,1,1,.74l4.88,14.29a1,1,0,0,1,0,.2.42.42,0,0,1-.14.28.49.49,0,0,1-.35.15h-4.23a1,1,0,0,1-1-.76l-.55-1.57h-5.46l-.56,1.57A1,1,0,0,1,167.59,32.39Zm5.88-6.69-1.59-4.65L170.3,25.7Z" transform="translate(0)"/><path class="cls-6" d="M183.67,16.73h15.44a.62.62,0,0,1,.6.6v3.61a.62.62,0,0,1-.6.6H194.3V31.78a.58.58,0,0,1-.18.43.58.58,0,0,1-.42.18h-4.61a.61.61,0,0,1-.61-.61V21.54h-4.81a.62.62,0,0,1-.6-.6V17.33a.62.62,0,0,1,.6-.6Z" transform="translate(0)"/><path class="cls-7" d="M36,22.61H33v-2h3a.79.79,0,0,1,.68.29,1,1,0,0,1,.24.69,1.21,1.21,0,0,1-.24.73A.79.79,0,0,1,36,22.61Zm.25,3.74a1,1,0,0,1,.75.31,1.12,1.12,0,0,1,.28.74v0a1.26,1.26,0,0,1-.26.77.88.88,0,0,1-.77.35H33V26.35Zm6.44-1a2.85,2.85,0,0,0-1.5-1.18,2.55,2.55,0,0,0,1.21-1A2.92,2.92,0,0,0,43,21.43v-.07a4.1,4.1,0,0,0-1.51-3.48,7.73,7.73,0,0,0-4.69-1.15h-9a.62.62,0,0,0-.6.6V31.79a.62.62,0,0,0,.6.6H37c4.2,0,6.31-1.64,6.31-4.92A3.52,3.52,0,0,0,42.7,25.4Z" transform="translate(0)"/><path class="cls-7" d="M52.71,21.54a2.71,2.71,0,0,1,1.67-.47,2.62,2.62,0,0,1,1.66.48,1.59,1.59,0,0,1,.62,1.34v3.34A1.59,1.59,0,0,1,56,27.57a2.62,2.62,0,0,1-1.66.48,2.65,2.65,0,0,1-1.67-.47,1.56,1.56,0,0,1-.61-1.33V22.87A1.56,1.56,0,0,1,52.71,21.54Zm7.67-3.2a10.16,10.16,0,0,0-6-1.63,10.19,10.19,0,0,0-6,1.63,5.65,5.65,0,0,0-2.31,4.93v2.58a6.21,6.21,0,0,0,1.11,3.79,6.05,6.05,0,0,0,2.93,2.14,14.82,14.82,0,0,0,8.55,0,6,6,0,0,0,2.93-2.14,6.07,6.07,0,0,0,1.12-3.75V23.23A5.58,5.58,0,0,0,60.38,18.34Z" transform="translate(0)"/><path class="cls-7" d="M72.28,21.54A2.71,2.71,0,0,1,74,21.07a2.65,2.65,0,0,1,1.67.48,1.58,1.58,0,0,1,.61,1.34v3.34a1.58,1.58,0,0,1-.61,1.34,3.17,3.17,0,0,1-3.34,0,1.56,1.56,0,0,1-.61-1.33V22.87A1.56,1.56,0,0,1,72.28,21.54ZM80,18.34a10.21,10.21,0,0,0-6-1.63,10.21,10.21,0,0,0-6,1.63,5.65,5.65,0,0,0-2.31,4.93v2.58a6.15,6.15,0,0,0,1.12,3.79,6,6,0,0,0,2.93,2.14,14.79,14.79,0,0,0,8.54,0,6,6,0,0,0,2.93-2.14,6.07,6.07,0,0,0,1.12-3.75V23.23A5.6,5.6,0,0,0,80,18.34Z" transform="translate(0)"/><path class="cls-7" d="M96.72,24l5.3-6.46a.48.48,0,0,0,.12-.33.43.43,0,0,0-.15-.33.47.47,0,0,0-.35-.15H96.25a1,1,0,0,0-.82.38l-3.54,4.43V17.33a.62.62,0,0,0-.6-.6H86.68a.58.58,0,0,0-.43.18.58.58,0,0,0-.18.42V31.79a.58.58,0,0,0,.18.42.58.58,0,0,0,.43.18h4.61a.62.62,0,0,0,.6-.6V27.22L95.78,32a1,1,0,0,0,.81.36h5.77a.49.49,0,0,0,.35-.15.45.45,0,0,0,.14-.32.54.54,0,0,0-.09-.31Z" transform="translate(0)"/><path class="cls-7" d="M133.9,22.56a14.92,14.92,0,0,1-2.32-.38c-.39-.12-.59-.29-.59-.51q0-.6,1.5-.6a2.38,2.38,0,0,1,1.61.46,1,1,0,0,0,.7.26h4.81a.61.61,0,0,0,.39-.13.49.49,0,0,0,.14-.36q0-1.64-2.1-3.12a9.42,9.42,0,0,0-5.51-1.47,9.57,9.57,0,0,0-5.45,1.37,4.16,4.16,0,0,0-2,3.6q0,3.95,6.33,4.68a15.77,15.77,0,0,1,2.67.45c.44.15.67.35.67.61q0,.63-2.13.63a3.23,3.23,0,0,1-2.17-.57,1,1,0,0,0-.76-.28h-4.58c-.35,0-.52.17-.52.49a4,4,0,0,0,2.07,3.36,10.49,10.49,0,0,0,5.81,1.36,11.4,11.4,0,0,0,6-1.38,4.12,4.12,0,0,0,2.26-3.61,3.87,3.87,0,0,0-1.55-3.34A11.54,11.54,0,0,0,133.9,22.56Z" transform="translate(0)"/><path class="cls-7" d="M150.57,26.62H158a.58.58,0,0,0,.42-.18.58.58,0,0,0,.18-.43v-2.9a.58.58,0,0,0-.18-.43.58.58,0,0,0-.42-.18h-7.47V21.09h8.7a.62.62,0,0,0,.6-.6V17.33a.62.62,0,0,0-.6-.6H145.35a.62.62,0,0,0-.6.6V31.79a.62.62,0,0,0,.6.6h14.14a.58.58,0,0,0,.43-.18.58.58,0,0,0,.18-.42V28.63a.58.58,0,0,0-.18-.42.58.58,0,0,0-.43-.18h-8.92Z" transform="translate(0)"/><path class="cls-7" d="M170.3,25.7l1.58-4.65,1.59,4.65Zm-1.7,5.93.56-1.57h5.45l.56,1.57a1,1,0,0,0,1,.76h4.23a.45.45,0,0,0,.34-.15.39.39,0,0,0,.15-.28,1,1,0,0,0,0-.2L176,17.47a.94.94,0,0,0-1-.74h-6.21a.94.94,0,0,0-1,.74l-4.88,14.29a1,1,0,0,0,0,.2.42.42,0,0,0,.14.28.49.49,0,0,0,.35.15h4.23A1,1,0,0,0,168.6,31.63Z" transform="translate(0)"/><path class="cls-7" d="M183.25,16.91a.58.58,0,0,0-.18.42v3.61a.62.62,0,0,0,.6.6h4.81V31.79a.58.58,0,0,0,.18.42.58.58,0,0,0,.43.18h4.61a.62.62,0,0,0,.6-.6V21.54h4.81a.62.62,0,0,0,.6-.6V17.33a.62.62,0,0,0-.6-.6H183.67A.58.58,0,0,0,183.25,16.91Z" transform="translate(0)"/></g></g></svg>