<svg xmlns="http://www.w3.org/2000/svg" xmlns:xlink="http://www.w3.org/1999/xlink" viewBox="0 0 1476.51 333.56"><defs><style>.cls-1{fill:none;}.cls-2{clip-path:url(#clip-path);}.cls-3{fill:url(#linear-gradient);}.cls-4{clip-path:url(#clip-path-2);}.cls-5{fill:url(#linear-gradient-2);}</style><clipPath id="clip-path" transform="translate(7.51 0)"><rect class="cls-1" y="248.94" width="1469" height="84.62"/></clipPath><linearGradient id="linear-gradient" x1="-3418.91" y1="-353.62" x2="-3417.91" y2="-353.62" gradientTransform="matrix(0, -213.02, -213.02, 0, -74586.68, -727980.07)" gradientUnits="userSpaceOnUse"><stop offset="0" stop-color="#d9424b"/><stop offset="1" stop-color="#ead24b"/><stop offset="1" stop-color="#ead24b"/></linearGradient><clipPath id="clip-path-2" transform="translate(7.51 0)"><path class="cls-1" d="M533.34,20c-1.9,18.06,8,16.2,18.82,36.55C567.21,84.9,539.8,71.24,529.35,85c-12.12,16-2.66,30,20.15,44.25s4.75,52.28,4.75,52.28,1-3.8-7.6-22.81-26.62-20.91-38-31.37-5.89-30.46-5.89-30.46c-14.26,22.81-10.45,51.32,19.2,76.09,30.05,25.09-38,50.37-63.68,32.31s-4.76-26.61,1.9-48.47-20.91-24.72-20.91-24.72a24.36,24.36,0,0,1,8.55,14.26c1.9,9.51-21.86,7.61-17.11-5.7s-4.75-10.46-9.5-20,5.7-18.06,5.7-18.06S406,113.11,411.67,131.17s-24.71,19-20,2.85S382.2,110.26,378.4,97,396.46,84.6,396.46,84.6,387,71.29,374.6,75.09s-8.55,26.62-9.51,42.78-26.61,1.9-21.86-12.36,2.86-23.76-11.4-36.12-34.22,9.5-34.22,9.5,13.31-8.55,24.71,2.86-30.42,33.27-1.9,58.93-4.75,76-20,60.83,8.55-23.76-4.75-43.72-18.06-19-29.47-29.47,1.9-30.42,1.9-30.42c-22.81,14.26-26.61,35.17-4.75,65.59s-18.06,54.18-26.62,44.68,16.16-20.92,7.61-41.83-30.42-9.5-30.42-9.5,20,3.8,9.51,20.91-28.52-7.6-27.57-21.86,14.26-7.61,20-21.87-6.65-17.1-9.5-31.36,14.26-13.31,14.26-13.31-6.66-11.41-20-1.9,11.41,39.92-20.91,33.27,9.51-20,6.66-43.73-32.32-10.45-32.32-10.45c16.16,4.75,11.4,15.21-9.51,21.86s6.66,41.82,18.06,75.09-8.55,39-45.62,26.62,17.11-29.47,15.21-52.28S99.9,83.65,96.1,73.19s17.11-6.65,17.11-6.65-12.36-14.26-24.72-5.71S73.28,80.8,93.24,115s-37.07,27.56-37.07,27.56,19-16.16,16.16-33.27-20.91-29.47-39-39.92-2.85-36.12-2.85-36.12c-23.76,15.21-20.91,37.07,5.7,58s-7.6,36.12-19,33.27S10.55,97,10.55,97s-18.06,15.21-1.9,59.89c5.39,14.92,0,26-8.65,32.61v60.49l1469-.83V122.54a41,41,0,0,0-11.11-14.18c-7.61-6.34,2.53-17.74,2.53-17.74s-12.67,0-12.67,13.94,10.14,29.15,6.34,46.89-14.09-1-12.68-13.94c1.9-17.43-2.53-32.95-10.14-39.29s-1.26-12.67,0-29.15-17.74-12.67-17.74-12.67,17.74,3.8,7.61,17.74-5.07,24.08,1.26,46.9-10.14,17.74-19,3.8.76-25.72,3.3-34.59-5.83-23.71-18.51-25,6.34-16.48,6.34-16.48c-19,5.07-29.15,24.08-16.47,27.89s17.23,16.42,5.82,43c-12.14,28.34,37.75,56.05,25.22,58.35-46.57,8.55-12.35-25.67-35.16-32.32-17.42-5.08-18.7,12-18.7,12s21.55-2.54,15.21,16.47S1340,175.53,1340,160.32s16.48-17.74,19-31.68-6.33-21.55-12.67-25.35,7.6-16.47,7.6-16.47-24.08-1.27-15.2,24.07-15.21,26.62-30.42,10.15,21.35-20.33,6.14-40.29c-15.51-20.36-44.16-11.68-44.16-11.68s34.22,7.61,19,27.88-10.14,31.69,5.07,48.16,16.6,28.16,3.93,53.5-44.49,2.27-36.88-18,12.16-22.86,12.16-34.27-18.5-25.29-21-26.56,0,0,7.61,15.21-6.34,29.15-6.34,29.15,5.07-16.48-2.53-33-24.08-21.54-24.08-21.54l11.4,22.81c11.41,22.81-15.21,34.22-10.14,25.35s2.54-30.42-15.2-36.75-2.86-32.32-2.86-32.32-32.31,23.76-11.09,53.86c22,31.16-31.68,62.1-49.42,43.09s22.81-26.61,27.88-48.16-10.14-49.43-38-54.5-24.08,19-24.08,19,12.67-8.87,22.81,14-26.61,24.07-30.42,1.26-24-30.18-25.53-43.14C1079.7,50.33,1103,57.66,1103,57.66S1098,45,1081.48,52.6s-16.48,26.61-1.27,46.89-3.8,48.16-3.8,48.16,0-15.21-6.34-35.49-33-19-33-19c26.61,19,22.81,72.24,7.6,71s-8.87-52-8.87-52-16.47,15.21-6.33,58.3-43.1,29.15-35.49,12.67,2.53-45.62-15.21-65.9-34.22-13.94-46.89-24.08,19-31.68,19-31.68-39.29,3.8-40.56,33,62.1,21.55,46.9,77.31-64.64,45-77.95,30.73,20-28.51,20-43.72-10.45-18.06-10.45-18.06-1,27.56-14.26,19-12.36-28.52-4.75-35.17,14.26,1,14.26,1-9.51-24.71-27.57-10.45,1.9,41.82,4.75,60.83-20,20.91-20,20.91,11.41-11.41,5.71-38-23.77-21.86-39-36.12,1-37.07,1-37.07-38,35.17-16.16,56.08-3.8,36.12-3.8,36.12,7.42-15.26-4-27.61-29.28,4.8-29.28,4.8a48.59,48.59,0,0,1,18.06,1.9c16.59,5.5-12.35,39.92-38,27.56s2.85-37.07,1-59.88S718.69,94.1,718.69,94.1c1.89,10-9.56,20.46-17.56,26.4a2.58,2.58,0,0,1-4-2.88,111.79,111.79,0,0,0,4.43-19.72c2.86-20-6.65-29.46-6.65-29.46,4.75,18.06-20.91,39-16.16,23.76s2.85-30.41-10.46-41.82-27.56,5.7-27.56,5.7,5.7-1.9,14.26,1,14.26,15.21,5.7,27.57-12.36,39,3.8,54.18S675,188.2,675,188.2s.95-8.55-9.51-23.76-17.11-20-27.56-33.27c-6.36-8.08,6.65-28.51,6.65-28.51s-12.35,4.75-19,20S643.6,151.13,656,182.5c12,30.51-30.8,37.64-33.17,38,1-1.2,3.77-4.44,10.36-12.34,14.25-17.11-8.56-53.23-38-61.79-22.22-6.45-14.25-19-7.6-24.71s17-9.28,18.34-27.3C606.9,80.14,595.73,76,600.8,64c0,0-19,1.27-11.38,21.6,2.6,6.93-.49,11.23-3.88,13.25-8.4,5-19.63-6.24-13.09-13.51,9.65-10.72,9.94-27-.8-37.33C559.76,36.55,559,38.33,550.26,24.67,541.71,11.36,552.35,0,552.35,0s-17.11,1.9-19,20"/></clipPath><linearGradient id="linear-gradient-2" x1="-3418.91" y1="-353.47" x2="-3417.91" y2="-353.47" gradientTransform="matrix(0, -213.02, -213.02, 0, -74558.94, -727977.04)" xlink:href="#linear-gradient"/></defs><g id="Layer_2" data-name="Layer 2"><g id="Layer_1-2" data-name="Layer 1"><g class="cls-2"><rect class="cls-3" x="7.51" y="248.94" width="1469" height="84.62"/></g><g class="cls-4"><rect class="cls-5" width="1476.51" height="249.94"/></g></g></g></svg>