<svg xmlns="http://www.w3.org/2000/svg" xmlns:xlink="http://www.w3.org/1999/xlink" viewBox="0 0 593.25 85.57"><defs><style>.cls-1{fill:none;}.cls-2{fill:#5b1d54;}.cls-3{clip-path:url(#clip-path);}.cls-4{fill:url(#linear-gradient);}.cls-5{fill:#fff;}.cls-6{fill:#badb56;}</style><clipPath id="clip-path" transform="translate(1.16 1.86)"><rect class="cls-1" y="9.02" width="576.77" height="61.75"/></clipPath><linearGradient id="linear-gradient" x1="-3646.15" y1="7724.7" x2="-3645.15" y2="7724.7" gradientTransform="matrix(0, -76.24, -76.24, 0, 589183.14, -277882.69)" gradientUnits="userSpaceOnUse"><stop offset="0" stop-color="#5277b4"/><stop offset="1" stop-color="#7e3371"/></linearGradient></defs><g id="Layer_2" data-name="Layer 2"><g id="Layer_1-2" data-name="Layer 1"><polygon class="cls-2" points="593.25 85.57 15.04 85.57 1.16 71.39 15.04 25.06 579.38 10.88 593.25 25.06 593.25 85.57"/><g class="cls-3"><rect class="cls-4" x="-0.53" y="3.58" width="577.83" height="72.62" transform="translate(0.46 7.31) rotate(-1.08)"/></g><path class="cls-5" d="M557.77,15.62S547.07,15.79,543.4,0c0,0,.22,13.91-11.93,18,0,0,13.7-.21,13.09,15.43,0,0,.63-14.57,13.21-17.76" transform="translate(1.16 1.86)"/><path class="cls-5" d="M537.25,33.49s-7.9.13-10.61-11.52c0,0,.16,10.26-8.79,13.25,0,0,10.1-.16,9.65,11.37,0,0,.46-10.74,9.75-13.1" transform="translate(1.16 1.86)"/><path class="cls-5" d="M40.09,15.62S50.79,15.79,54.46,0c0,0-.21,13.91,11.93,18,0,0-13.7-.21-13.09,15.43,0,0-.63-14.57-13.21-17.76" transform="translate(1.16 1.86)"/><path class="cls-5" d="M60.62,33.49s7.89.13,10.6-11.52c0,0-.16,10.26,8.79,13.25,0,0-10.1-.16-9.65,11.37,0,0-.46-10.74-9.74-13.1" transform="translate(1.16 1.86)"/><path class="cls-6" d="M99.69,36.79l-3.39.78-1.06-4.3,5.88-1.66h4V51.82H99.69Z" transform="translate(1.16 1.86)"/><path class="cls-6" d="M118.38,36.42h-9.29V31.75h15.45v4.18l-8.86,15.89h-6.13Z" transform="translate(1.16 1.86)"/><path class="cls-6" d="M123.79,54.46c1.92-.23,2.93-1.15,2.87-2.7h-2.21V46.17h5.68v4.56c0,4.24-2.32,5.7-5.91,5.82Z" transform="translate(1.16 1.86)"/><path class="cls-6" d="M145.32,36.79l-3.38.78-1.06-4.3,5.88-1.66h4V51.82h-5.48Z" transform="translate(1.16 1.86)"/><path class="cls-6" d="M154.21,46.28v-.05c0-2.44,1.29-3.9,3.44-4.82a4.77,4.77,0,0,1-2.75-4.36v0c0-3.22,3.06-5.6,7.56-5.6S170,33.78,170,37v0a4.77,4.77,0,0,1-2.75,4.36c2,1,3.44,2.29,3.44,4.79v.06c0,3.58-3.44,5.9-8.26,5.9S154.21,49.78,154.21,46.28Zm11.15-.54v-.06c0-1.29-1.2-2.18-2.9-2.18s-2.89.89-2.89,2.18v.06c0,1.2,1,2.27,2.89,2.27S165.36,46.94,165.36,45.74Zm-.43-8v-.06a2.26,2.26,0,0,0-2.47-2.12,2.23,2.23,0,0,0-2.46,2.1v0a2.48,2.48,0,0,0,4.93,0Z" transform="translate(1.16 1.86)"/><path class="cls-6" d="M172.75,54.46c1.93-.23,2.93-1.15,2.87-2.7h-2.21V46.17h5.68v4.56c0,4.24-2.32,5.7-5.91,5.82Z" transform="translate(1.16 1.86)"/><path class="cls-6" d="M194.28,36.79l-3.38.78-1.06-4.3,5.88-1.66h4V51.82h-5.48Z" transform="translate(1.16 1.86)"/><path class="cls-6" d="M203.88,49.84,206.49,46a6.59,6.59,0,0,0,4.3,1.6c2.3,0,3.53-1.6,3.79-4.18a6.08,6.08,0,0,1-4.24,1.63c-3.9,0-6.74-2.41-6.74-6.33v-.06c0-4.45,3.41-7.31,8-7.31a7.86,7.86,0,0,1,6.16,2.35c1.46,1.43,2.41,3.73,2.41,7.42v.06c0,6.57-3.27,11-9.29,11A10.87,10.87,0,0,1,203.88,49.84Zm10.78-11.38V38.4a2.66,2.66,0,0,0-2.86-2.72A2.6,2.6,0,0,0,209,38.37v.06a2.63,2.63,0,0,0,2.87,2.64A2.58,2.58,0,0,0,214.66,38.46Z" transform="translate(1.16 1.86)"/><path class="cls-6" d="M230.92,48.84l3.09-3.7a10.33,10.33,0,0,0,6.51,2.41c1.49,0,2.29-.52,2.29-1.38v-.06c0-.83-.66-1.29-3.38-1.92-4.27-1-7.57-2.18-7.57-6.31v-.05c0-3.73,2.95-6.43,7.77-6.43a12.64,12.64,0,0,1,8.26,2.67L245.11,38a10.08,10.08,0,0,0-5.62-2c-1.35,0-2,.57-2,1.29v.06c0,.92.69,1.32,3.47,2,4.62,1,7.48,2.49,7.48,6.25v.06c0,4.1-3.24,6.53-8.11,6.53A14,14,0,0,1,230.92,48.84Z" transform="translate(1.16 1.86)"/><path class="cls-6" d="M251.81,31.75H268v4.73H257.32v3H267v4.39h-9.63v3.18H268.1v4.73H251.81Z" transform="translate(1.16 1.86)"/><path class="cls-6" d="M271.62,31.75h8.6c5.08,0,8.35,2.61,8.35,7v.06c0,4.73-3.65,7.22-8.63,7.22h-2.76v5.74h-5.56Zm8.2,10c2,0,3.18-1,3.18-2.61v-.06c0-1.72-1.2-2.64-3.21-2.64h-2.61v5.31Z" transform="translate(1.16 1.86)"/><path class="cls-6" d="M296.5,36.62h-6V31.75h17.61v4.87h-6v15.2H296.5Z" transform="translate(1.16 1.86)"/><path class="cls-6" d="M311.21,31.75h16.14v4.73H316.71v3h9.64v4.39h-9.64v3.18h10.78v4.73H311.21Z" transform="translate(1.16 1.86)"/><path class="cls-6" d="M331,31.75h5.87l4.79,7.77,4.79-7.77h5.88V51.82h-5.54V40.29l-5.13,7.86h-.11l-5.11-7.8V51.82H331Z" transform="translate(1.16 1.86)"/><path class="cls-6" d="M356.58,31.75h10.3c2.52,0,4.3.63,5.47,1.8a4.4,4.4,0,0,1,1.29,3.24v.06a4.63,4.63,0,0,1-3.09,4.47c2.43.81,4,2.18,4,4.91v.05c0,3.45-2.81,5.54-7.59,5.54H356.58Zm8.92,8c1.69,0,2.64-.58,2.64-1.75v-.06c0-1.09-.86-1.72-2.53-1.72H362v3.53Zm.8,7.6c1.7,0,2.67-.66,2.67-1.84v-.06c0-1.09-.86-1.8-2.72-1.8H362v3.7Z" transform="translate(1.16 1.86)"/><path class="cls-6" d="M377.74,31.75h16.14v4.73H383.24v3h9.64v4.39h-9.64v3.18H394v4.73H377.74Z" transform="translate(1.16 1.86)"/><path class="cls-6" d="M397.55,31.75H407c3.07,0,5.19.8,6.53,2.18a6.19,6.19,0,0,1,1.78,4.67v.06a6.33,6.33,0,0,1-4.13,6.16l4.79,7h-6.42l-4-6.08h-2.44v6.08h-5.56Zm9.23,9.63c1.89,0,3-.92,3-2.38v-.06c0-1.57-1.15-2.37-3-2.37h-3.64v4.81Z" transform="translate(1.16 1.86)"/><path class="cls-6" d="M426.64,47.63l7.51-5.73c1.87-1.46,2.58-2.41,2.58-3.61a2,2,0,0,0-2.23-2c-1.35,0-2.41.77-4,2.58l-3.75-3.12c2.15-2.79,4.27-4.31,8.17-4.31,4.39,0,7.4,2.61,7.4,6.4v.06c0,3.21-1.67,4.87-4.65,7l-3.44,2.41h8.29v4.53H426.64Z" transform="translate(1.16 1.86)"/><path class="cls-6" d="M445.45,41.84v-.06c0-5.67,3.61-10.43,9.32-10.43S464,36.05,464,41.73v.05c0,5.68-3.59,10.44-9.32,10.44S445.45,47.52,445.45,41.84Zm13,0v-.06c0-3.18-1.52-5.5-3.73-5.5S451,38.52,451,41.73v.05c0,3.21,1.49,5.51,3.73,5.51S458.44,45,458.44,41.84Z" transform="translate(1.16 1.86)"/><path class="cls-6" d="M466.52,47.63,474,41.9c1.86-1.46,2.58-2.41,2.58-3.61a2,2,0,0,0-2.24-2c-1.34,0-2.41.77-4,2.58l-3.76-3.12c2.15-2.79,4.27-4.31,8.17-4.31,4.39,0,7.4,2.61,7.4,6.4v.06c0,3.21-1.66,4.87-4.65,7l-3.44,2.41h8.29v4.53H466.52Z" transform="translate(1.16 1.86)"/><path class="cls-6" d="M488.82,36.79l-3.38.78-1.07-4.3,5.88-1.66h4V51.82h-5.47Z" transform="translate(1.16 1.86)"/></g></g></svg>