<svg xmlns="http://www.w3.org/2000/svg" viewBox="0 0 383.92 34.43"><defs><style>.cls-1{fill:#283f7f;}.cls-2{fill:#4b53aa;}.cls-3{fill:#ba1539;}</style></defs><g id="Layer_2" data-name="Layer 2"><g id="Layer_1-2" data-name="Layer 1"><path class="cls-1" d="M101.11,31.49l-8.5,0a1,1,0,0,1-.7-.29.87.87,0,0,1-.29-.57,1.3,1.3,0,0,1,0-.4l9.91-28.72a1.89,1.89,0,0,1,2-1.48l12.51,0a1.9,1.9,0,0,1,2,1.5l9.71,28.79a1.36,1.36,0,0,1,0,.4.83.83,0,0,1-.29.56.94.94,0,0,1-.7.29l-8.51,0a2.06,2.06,0,0,1-2-1.53l-1.11-3.16-11,0L103.14,30A2.07,2.07,0,0,1,101.11,31.49ZM113,18.08l-3.17-9.37-3.22,9.35Z"/><path class="cls-1" d="M166.17,21.82q0,9.9-12.72,9.86l-18.54-.07a1.21,1.21,0,0,1-1.21-1.22l.1-29.07a1.16,1.16,0,0,1,.36-.85A1.18,1.18,0,0,1,135,.11l18.09.07c4.26,0,7.4.8,9.42,2.35s3,3.89,3,7v.13a5.9,5.9,0,0,1-1.18,3.69,5.24,5.24,0,0,1-2.44,1.92,5.78,5.78,0,0,1,3,2.38A7.11,7.11,0,0,1,166.17,21.82ZM145.44,19.5l0,4.41,6.53,0a1.78,1.78,0,0,0,1.55-.69,2.5,2.5,0,0,0,.52-1.55v0a2.14,2.14,0,0,0-.55-1.49,1.94,1.94,0,0,0-1.51-.64Zm7.43-8.14a2.47,2.47,0,0,0,.47-1.46,2.13,2.13,0,0,0-.46-1.4,1.67,1.67,0,0,0-1.37-.59l-6,0,0,4.09,6,0A1.62,1.62,0,0,0,152.87,11.36Z"/><path class="cls-1" d="M205.17,13.44l0,5.35a12.34,12.34,0,0,1-2.27,7.54A12.21,12.21,0,0,1,197,30.61a26.18,26.18,0,0,1-8.6,1.24,26,26,0,0,1-8.59-1.31,12.05,12.05,0,0,1-5.88-4.32,12.4,12.4,0,0,1-2.23-7.64l0-5.18q0-6.61,4.69-9.89T188.48.26q7.43,0,12.07,3.33T205.17,13.44Zm-21.33-.81,0,6.81a3.2,3.2,0,0,0,1.23,2.69,5.44,5.44,0,0,0,3.35.94,5.31,5.31,0,0,0,3.35-.94,3.22,3.22,0,0,0,1.25-2.7l0-6.72A3.21,3.21,0,0,0,191.8,10a5.4,5.4,0,0,0-3.35-1,5.49,5.49,0,0,0-3.36.93A3.16,3.16,0,0,0,183.84,12.63Z"/><path class="cls-1" d="M239.74,28.79q-4.44,3.23-12,3.2t-12-3.29q-4.42-3.25-4.4-10.14l.06-17a1.2,1.2,0,0,1,.37-.84,1.19,1.19,0,0,1,.85-.35l9.41,0a1.16,1.16,0,0,1,.85.36,1.15,1.15,0,0,1,.36.84l-.06,17.59A3.32,3.32,0,0,0,224.42,22a5.28,5.28,0,0,0,3.35,1,5.37,5.37,0,0,0,3.36-1,3.31,3.31,0,0,0,1.24-2.78l.07-17.6a1.15,1.15,0,0,1,.36-.84,1.21,1.21,0,0,1,.86-.35l9.4,0a1.18,1.18,0,0,1,.86.36,1.13,1.13,0,0,1,.35.84l-.06,17Q244.2,25.57,239.74,28.79Z"/><path class="cls-1" d="M251.7.53l31.05.11A1.21,1.21,0,0,1,284,1.86l0,7.24a1.15,1.15,0,0,1-.37.86,1.11,1.11,0,0,1-.85.35l-9.68,0L273,30.89a1.16,1.16,0,0,1-.36.85,1.18,1.18,0,0,1-.86.36l-9.27,0a1.13,1.13,0,0,1-.85-.37,1.16,1.16,0,0,1-.36-.85l.07-20.61-9.67,0a1.18,1.18,0,0,1-.86-.36,1.21,1.21,0,0,1-.35-.86l0-7.24a1.17,1.17,0,0,1,.37-.85A1.16,1.16,0,0,1,251.7.53Z"/><path class="cls-2" d="M39.74,33.13c2.4-2.18,1.6-5.78.15-8.27a41.81,41.81,0,0,0-8.34-9.79,32.82,32.82,0,0,0-6.14-4.32,9.17,9.17,0,0,1,4.68-4.81c5.36-2.47,12.3-.23,17.17,2.41a23.75,23.75,0,0,1,5.51,4.12C49.46,15,48,19.58,49,24.07a11.06,11.06,0,0,0,4.73,7.26c2.31,1.37,5.62,1.32,7.13-1.18,1.63-2.69.78-6.52-.27-9.26A29.62,29.62,0,0,0,55.85,13a9.09,9.09,0,0,1,2.66-.44c6.34-.12,13.26,3.59,17.54,8.09.86.89,2.27-.42,1.41-1.32C72.75,14.35,65,10.24,58,10.62a9.88,9.88,0,0,0-3.49.82C49.59,6.17,41.44,2.65,34.2,3A12.22,12.22,0,0,0,23.67,9.9C22.86,9.55,22,9.24,21.2,9,13.61,6.62,3.82,8.63.11,16.25c-.54,1.11,1.09,2.14,1.63,1C4.51,11.59,11,9.44,17,10.06a19.77,19.77,0,0,1,6,1.64,12.59,12.59,0,0,0-.52,3.17c-.14,3.85,1.41,7.58,3.45,10.76A27,27,0,0,0,32.19,33c2.23,1.64,5.32,2.19,7.55.17M58.5,21c1,2.21,2.24,6.33.45,8.45-2.34,2.78-6-.76-7.09-2.9a11.46,11.46,0,0,1-.75-8.43,7.37,7.37,0,0,1,3-4.24A27.3,27.3,0,0,1,58.5,21M30.33,28.39a30.34,30.34,0,0,1-4.59-7.11,14.23,14.23,0,0,1-.94-8.68,32.24,32.24,0,0,1,7.36,5.7,79.08,79.08,0,0,1,5.16,6.24c1.78,2.22,3.72,7.87-1,8-2.51.07-4.54-2.4-6-4.15"/><path class="cls-3" d="M345.93,33.13c2.41-2.18,1.6-5.78.15-8.27a41.77,41.77,0,0,0-8.33-9.79,32.57,32.57,0,0,0-6.15-4.32,9.24,9.24,0,0,1,4.68-4.81c5.37-2.47,12.3-.23,17.17,2.41A23.8,23.8,0,0,1,359,12.47c-3.32,2.49-4.73,7.11-3.82,11.6a11,11,0,0,0,4.72,7.26c2.31,1.37,5.62,1.32,7.14-1.18,1.63-2.69.77-6.52-.28-9.26A29.33,29.33,0,0,0,362.05,13a9,9,0,0,1,2.65-.44c6.35-.12,13.27,3.59,17.55,8.09.85.89,2.26-.42,1.4-1.32-4.71-5-12.44-9.06-19.45-8.68a9.82,9.82,0,0,0-3.48.82c-4.93-5.27-13.09-8.79-20.33-8.4A12.23,12.23,0,0,0,329.86,9.9,25.12,25.12,0,0,0,327.39,9c-7.58-2.35-17.37-.34-21.09,7.28-.54,1.11,1.09,2.14,1.63,1,2.78-5.69,9.25-7.84,15.29-7.22a19.79,19.79,0,0,1,5.95,1.64,13,13,0,0,0-.51,3.17c-.15,3.85,1.4,7.58,3.44,10.76A27.3,27.3,0,0,0,338.38,33c2.24,1.64,5.33,2.19,7.55.17M364.7,21c.95,2.21,2.23,6.33.45,8.45-2.35,2.78-6-.76-7.1-2.9a11.46,11.46,0,0,1-.75-8.43,7.38,7.38,0,0,1,3-4.24A27.3,27.3,0,0,1,364.7,21m-28.18,7.42a31,31,0,0,1-4.59-7.11A14.16,14.16,0,0,1,331,12.6a32.19,32.19,0,0,1,7.35,5.7,76.94,76.94,0,0,1,5.16,6.24c1.78,2.22,3.73,7.87-1,8-2.51.07-4.55-2.4-6-4.15"/></g></g></svg>