<svg xmlns="http://www.w3.org/2000/svg" viewBox="0 0 657.44 33.96"><defs><style>.cls-1{fill:#badb56;}.cls-2{fill:#283f7f;}.cls-3{fill:#fff;}</style></defs><g id="Layer_2" data-name="Layer 2"><g id="Layer_1-2" data-name="Layer 1"><path class="cls-1" d="M94.86,7H101V23.6h10.64v5.34H94.86Z"/><path class="cls-1" d="M113.6,20.53v-.06c0-5,3.55-8.89,8.57-8.89,5.87,0,8.57,4.3,8.57,9.29,0,.38,0,.82,0,1.23H119.35A3.5,3.5,0,0,0,123,24.89a5.15,5.15,0,0,0,3.77-1.72l3.29,2.73a8.88,8.88,0,0,1-7.37,3.45C117.37,29.35,113.6,25.8,113.6,20.53Zm11.56-1.48c-.22-1.88-1.32-3.07-3-3.07s-2.63,1.22-3,3.07Z"/><path class="cls-1" d="M133.22,24.08V24c0-3.51,2.67-5.33,6.66-5.33a12.86,12.86,0,0,1,4.08.66v-.29c0-1.75-1.1-2.76-3.39-2.76a12.1,12.1,0,0,0-4.68.94L134.67,13a16.93,16.93,0,0,1,6.87-1.32c3.05,0,5.12.72,6.47,2.07s1.82,3,1.82,5.4v9.76h-5.9V27.18a6.41,6.41,0,0,1-5,2.14C135.7,29.32,133.22,27.47,133.22,24.08ZM144,22.79V22a6.26,6.26,0,0,0-2.32-.44c-1.73,0-2.73.85-2.73,2.11v.06a1.87,1.87,0,0,0,2.1,1.85A2.73,2.73,0,0,0,144,22.79Z"/><path class="cls-1" d="M153.66,12h6v3.42c1-2.32,2.54-3.83,5.37-3.7V18h-.5c-3.11,0-4.87,1.78-4.87,5.71v5.27h-6Z"/><path class="cls-1" d="M167.85,12h6v2.39a6.29,6.29,0,0,1,5.09-2.77c3.61,0,5.77,2.39,5.77,6.25V28.94h-6v-9.2c0-1.85-1-2.85-2.39-2.85s-2.51,1-2.51,2.85v9.2h-6Z"/><path class="cls-1" d="M198.36,7h6.09v8.22h7.81V7h6.09v22h-6.09V20.59h-7.81v8.35h-6.09Z"/><path class="cls-1" d="M222.69,6h6.21v4.39h-6.21Zm.12,5.93h6v17h-6Z"/><path class="cls-1" d="M232.89,12h6v2.26A6.25,6.25,0,0,1,244,11.58c4.05,0,7.53,3.36,7.53,8.79v.06c0,5.53-3.48,8.89-7.5,8.89a6.38,6.38,0,0,1-5.18-2.45V34h-6Zm12.77,8.51V20.4a3.48,3.48,0,1,0-6.93,0v.07a3.49,3.49,0,1,0,6.93,0Z"/><path class="cls-1" d="M254.55,16.51h10.29v5.24H254.55Z"/><path class="cls-1" d="M268.83,7h6.09v8.22h7.81V7h6.09v22h-6.09V20.59h-7.81v8.35h-6.09Z"/><path class="cls-1" d="M292.47,20.53v-.06c0-4.84,3.95-8.89,9.41-8.89s9.36,4,9.36,8.82v.07c0,4.83-4,8.88-9.42,8.88S292.47,25.36,292.47,20.53Zm13,0v-.06a3.68,3.68,0,0,0-3.61-3.83,3.55,3.55,0,0,0-3.55,3.76v.07a3.68,3.68,0,0,0,3.61,3.83A3.56,3.56,0,0,0,305.43,20.53Z"/><path class="cls-1" d="M314.53,12h6v2.26a6.23,6.23,0,0,1,5.14-2.64c4.05,0,7.54,3.36,7.54,8.79v.06c0,5.53-3.49,8.89-7.5,8.89a6.36,6.36,0,0,1-5.18-2.45V34h-6Zm12.78,8.51V20.4a3.49,3.49,0,1,0-6.94,0v.07a3.49,3.49,0,1,0,6.94,0Z"/><path class="cls-1" d="M344.76,12h5.84l2.23,8.54,2.6-8.6h4.93L363,20.56l2.29-8.6H371l-5.24,17.11h-5.15l-2.76-8.82-2.82,8.82h-5.12Z"/><path class="cls-1" d="M373.77,6H380v4.39h-6.21Zm.12,5.93h6v17h-6Z"/><path class="cls-1" d="M385,23.67V16.76h-2V12h2V7.66h6V12h3.95v4.8H391v5.75c0,1.19.53,1.69,1.63,1.69a5.31,5.31,0,0,0,2.26-.56v4.67a8.47,8.47,0,0,1-4.14,1C387.14,29.29,385,27.72,385,23.67Z"/><path class="cls-1" d="M398.25,6h6v8.25a6.26,6.26,0,0,1,5.09-2.7c3.61,0,5.77,2.39,5.77,6.25V28.94h-6v-9.2c0-1.85-1-2.85-2.38-2.85s-2.52,1-2.52,2.85v9.2h-6Z"/><path class="cls-1" d="M429.45,23.67V16.76h-2V12h2V7.66h6V12h3.95v4.8h-3.95v5.75c0,1.19.53,1.69,1.63,1.69a5.31,5.31,0,0,0,2.26-.56v4.67a8.48,8.48,0,0,1-4.15,1C431.59,29.29,429.45,27.72,429.45,23.67Z"/><path class="cls-1" d="M442.7,6h6v8.25a6.26,6.26,0,0,1,5.09-2.7c3.61,0,5.77,2.39,5.77,6.25V28.94h-6v-9.2c0-1.85-1-2.85-2.39-2.85s-2.51,1-2.51,2.85v9.2h-6Z"/><path class="cls-1" d="M462.69,20.53v-.06c0-5,3.55-8.89,8.57-8.89,5.87,0,8.57,4.3,8.57,9.29,0,.38,0,.82,0,1.23H468.44a3.5,3.5,0,0,0,3.67,2.79,5.15,5.15,0,0,0,3.77-1.72l3.29,2.73a8.88,8.88,0,0,1-7.37,3.45C466.46,29.35,462.69,25.8,462.69,20.53Zm11.55-1.48C474,17.17,472.93,16,471.3,16s-2.64,1.22-3,3.07Z"/><path class="cls-1" d="M492.61,12h6v2.26a6.25,6.25,0,0,1,5.15-2.64c4,0,7.53,3.36,7.53,8.79v.06c0,5.53-3.48,8.89-7.5,8.89a6.38,6.38,0,0,1-5.18-2.45V34h-6Zm12.77,8.51V20.4a3.48,3.48,0,1,0-6.93,0v.07a3.49,3.49,0,1,0,6.93,0Z"/><path class="cls-1" d="M514.58,12h6v3.42c1-2.32,2.54-3.83,5.36-3.7V18h-.5c-3.11,0-4.86,1.78-4.86,5.71v5.27h-6Z"/><path class="cls-1" d="M527.77,20.53v-.06c0-4.84,4-8.89,9.41-8.89s9.36,4,9.36,8.82v.07c0,4.83-4,8.88-9.42,8.88S527.77,25.36,527.77,20.53Zm13,0v-.06a3.68,3.68,0,0,0-3.61-3.83,3.55,3.55,0,0,0-3.55,3.76v.07a3.68,3.68,0,0,0,3.61,3.83A3.56,3.56,0,0,0,540.73,20.53Z"/><path class="cls-1" d="M548.48,26.81l2.23-3.61a11.09,11.09,0,0,0,5.84,1.94c1,0,1.51-.31,1.51-.91v-.06c0-.66-.94-.94-2.73-1.44-3.36-.88-6-2-6-5.43v-.07c0-3.61,2.89-5.62,6.81-5.62a13.34,13.34,0,0,1,7,2l-2,3.77a11.52,11.52,0,0,0-5-1.57c-.91,0-1.38.34-1.38.82v.06c0,.66,1,1,2.76,1.5,3.36.95,6,2.11,6,5.4v.07c0,3.73-2.8,5.68-6.94,5.68A13.75,13.75,0,0,1,548.48,26.81Z"/><path class="cls-2" d="M94.86,3.17H101V19.81h10.64v5.33H94.86Z"/><path class="cls-2" d="M113.6,16.73v-.06c0-5,3.55-8.89,8.57-8.89,5.87,0,8.57,4.31,8.57,9.3,0,.37,0,.81,0,1.22H119.35A3.5,3.5,0,0,0,123,21.09a5.15,5.15,0,0,0,3.77-1.72l3.29,2.73a8.88,8.88,0,0,1-7.37,3.45C117.37,25.55,113.6,22,113.6,16.73Zm11.56-1.47c-.22-1.89-1.32-3.08-3-3.08s-2.63,1.22-3,3.08Z"/><path class="cls-2" d="M133.22,20.28v-.07c0-3.51,2.67-5.33,6.66-5.33a12.86,12.86,0,0,1,4.08.66v-.28c0-1.76-1.1-2.77-3.39-2.77a12.1,12.1,0,0,0-4.68.94l-1.22-4.2a16.93,16.93,0,0,1,6.87-1.32c3.05,0,5.12.72,6.47,2.07s1.82,3,1.82,5.4v9.76h-5.9V23.38a6.41,6.41,0,0,1-5,2.14C135.7,25.52,133.22,23.67,133.22,20.28ZM144,19v-.78a6.07,6.07,0,0,0-2.32-.44c-1.73,0-2.73.84-2.73,2.1v.06a1.87,1.87,0,0,0,2.1,1.85A2.72,2.72,0,0,0,144,19Z"/><path class="cls-2" d="M153.66,8.16h6v3.42c1-2.32,2.54-3.83,5.37-3.7v6.28h-.5c-3.11,0-4.87,1.79-4.87,5.71v5.27h-6Z"/><path class="cls-2" d="M167.85,8.16h6v2.39a6.29,6.29,0,0,1,5.09-2.77c3.61,0,5.77,2.39,5.77,6.25V25.14h-6V16c0-1.86-1-2.86-2.39-2.86s-2.51,1-2.51,2.86v9.19h-6Z"/><path class="cls-2" d="M198.36,3.17h6.09v8.22h7.81V3.17h6.09v22h-6.09V16.79h-7.81v8.35h-6.09Z"/><path class="cls-2" d="M222.69,2.23h6.21V6.62h-6.21Zm.12,5.93h6v17h-6Z"/><path class="cls-2" d="M232.89,8.16h6v2.26A6.25,6.25,0,0,1,244,7.78c4.05,0,7.53,3.36,7.53,8.79v.07c0,5.52-3.48,8.88-7.5,8.88a6.38,6.38,0,0,1-5.18-2.45v7.09h-6Zm12.77,8.51V16.6a3.48,3.48,0,1,0-6.93,0v.07a3.49,3.49,0,1,0,6.93,0Z"/><path class="cls-2" d="M254.55,12.71h10.29V18H254.55Z"/><path class="cls-2" d="M268.83,3.17h6.09v8.22h7.81V3.17h6.09v22h-6.09V16.79h-7.81v8.35h-6.09Z"/><path class="cls-2" d="M292.47,16.73v-.06c0-4.84,3.95-8.89,9.41-8.89s9.36,4,9.36,8.82v.07c0,4.83-4,8.88-9.42,8.88S292.47,21.56,292.47,16.73Zm13,0v-.06a3.68,3.68,0,0,0-3.61-3.83,3.55,3.55,0,0,0-3.55,3.76v.07a3.68,3.68,0,0,0,3.61,3.83A3.56,3.56,0,0,0,305.43,16.73Z"/><path class="cls-2" d="M314.53,8.16h6v2.26a6.23,6.23,0,0,1,5.14-2.64c4.05,0,7.54,3.36,7.54,8.79v.07c0,5.52-3.49,8.88-7.5,8.88a6.36,6.36,0,0,1-5.18-2.45v7.09h-6Zm12.78,8.51V16.6a3.49,3.49,0,1,0-6.94,0v.07a3.49,3.49,0,1,0,6.94,0Z"/><path class="cls-2" d="M344.76,8.16h5.84l2.23,8.54,2.6-8.6h4.93L363,16.76l2.29-8.6H371l-5.24,17.11h-5.15l-2.76-8.82-2.82,8.82h-5.12Z"/><path class="cls-2" d="M373.77,2.23H380V6.62h-6.21Zm.12,5.93h6v17h-6Z"/><path class="cls-2" d="M385,19.87V13h-2V8.16h2V3.86h6v4.3h3.95V13H391v5.75c0,1.19.53,1.69,1.63,1.69a5.31,5.31,0,0,0,2.26-.56v4.67a8.47,8.47,0,0,1-4.14,1C387.14,25.49,385,23.92,385,19.87Z"/><path class="cls-2" d="M398.25,2.23h6v8.25a6.26,6.26,0,0,1,5.09-2.7c3.61,0,5.77,2.39,5.77,6.25V25.14h-6V16c0-1.86-1-2.86-2.38-2.86s-2.52,1-2.52,2.86v9.19h-6Z"/><path class="cls-2" d="M429.45,19.87V13h-2V8.16h2V3.86h6v4.3h3.95V13h-3.95v5.75c0,1.19.53,1.69,1.63,1.69a5.31,5.31,0,0,0,2.26-.56v4.67a8.48,8.48,0,0,1-4.15,1C431.59,25.49,429.45,23.92,429.45,19.87Z"/><path class="cls-2" d="M442.7,2.23h6v8.25a6.26,6.26,0,0,1,5.09-2.7c3.61,0,5.77,2.39,5.77,6.25V25.14h-6V16c0-1.86-1-2.86-2.39-2.86s-2.51,1-2.51,2.86v9.19h-6Z"/><path class="cls-2" d="M462.69,16.73v-.06c0-5,3.55-8.89,8.57-8.89,5.87,0,8.57,4.31,8.57,9.3,0,.37,0,.81,0,1.22H468.44a3.5,3.5,0,0,0,3.67,2.79,5.15,5.15,0,0,0,3.77-1.72l3.29,2.73a8.88,8.88,0,0,1-7.37,3.45C466.46,25.55,462.69,22,462.69,16.73Zm11.55-1.47c-.21-1.89-1.31-3.08-2.94-3.08s-2.64,1.22-3,3.08Z"/><path class="cls-2" d="M492.61,8.16h6v2.26a6.25,6.25,0,0,1,5.15-2.64c4,0,7.53,3.36,7.53,8.79v.07c0,5.52-3.48,8.88-7.5,8.88a6.38,6.38,0,0,1-5.18-2.45v7.09h-6Zm12.77,8.51V16.6a3.48,3.48,0,1,0-6.93,0v.07a3.49,3.49,0,1,0,6.93,0Z"/><path class="cls-2" d="M514.58,8.16h6v3.42c1-2.32,2.54-3.83,5.36-3.7v6.28h-.5c-3.11,0-4.86,1.79-4.86,5.71v5.27h-6Z"/><path class="cls-2" d="M527.77,16.73v-.06c0-4.84,4-8.89,9.41-8.89s9.36,4,9.36,8.82v.07c0,4.83-4,8.88-9.42,8.88S527.77,21.56,527.77,16.73Zm13,0v-.06a3.68,3.68,0,0,0-3.61-3.83,3.55,3.55,0,0,0-3.55,3.76v.07a3.68,3.68,0,0,0,3.61,3.83A3.56,3.56,0,0,0,540.73,16.73Z"/><path class="cls-2" d="M548.48,23l2.23-3.61a11,11,0,0,0,5.84,1.94c1,0,1.51-.31,1.51-.91v-.06c0-.66-.94-.94-2.73-1.44-3.36-.88-6-2-6-5.43v-.07c0-3.6,2.89-5.61,6.81-5.61a13.34,13.34,0,0,1,7,2l-2,3.77a11.52,11.52,0,0,0-5-1.57c-.91,0-1.38.35-1.38.82v.06c0,.66,1,1,2.76,1.51,3.36.94,6,2.1,6,5.4v.06c0,3.73-2.8,5.68-6.94,5.68A13.75,13.75,0,0,1,548.48,23Z"/><path class="cls-3" d="M85.57,28.94s-28.24-27.06-29-15.3-8.63,3.14-26.67-9.8-17.26,11-17.26,11S.55,2.76,0,15.79a20.7,20.7,0,0,0,.3,4.38L2,28.94Z"/><path class="cls-3" d="M571.87,28.94s28.24-27.06,29-15.3,8.63,3.14,26.67-9.8,17.26,11,17.26,11,12.06-12.06,12.6,1a20.7,20.7,0,0,1-.3,4.38l-1.71,8.77Z"/></g></g></svg>